<?xml version="1.0" encoding="UTF-8" standalone="no"?>
<!-- Created with Inkscape (http://www.inkscape.org/) -->

<svg
   width="210mm"
   height="297mm"
   viewBox="0 0 210 297"
   version="1.1"
   id="svg1"
   xml:space="preserve"
   inkscape:version="1.3.1 (9b9bdc1480, 2023-11-25, custom)"
   sodipodi:docname="acted.svg"
   xmlns:inkscape="http://www.inkscape.org/namespaces/inkscape"
   xmlns:sodipodi="http://sodipodi.sourceforge.net/DTD/sodipodi-0.dtd"
   xmlns="http://www.w3.org/2000/svg"
   xmlns:svg="http://www.w3.org/2000/svg"><sodipodi:namedview
     id="namedview1"
     pagecolor="#ffffff"
     bordercolor="#000000"
     borderopacity="0.25"
     inkscape:showpageshadow="2"
     inkscape:pageopacity="0.0"
     inkscape:pagecheckerboard="0"
     inkscape:deskcolor="#d1d1d1"
     inkscape:document-units="mm"
     inkscape:zoom="0.72693603"
     inkscape:cx="419.56925"
     inkscape:cy="568.13803"
     inkscape:window-width="1845"
     inkscape:window-height="1016"
     inkscape:window-x="75"
     inkscape:window-y="27"
     inkscape:window-maximized="1"
     inkscape:current-layer="layer1" /><defs
     id="defs1" /><g
     inkscape:label="Layer 1"
     inkscape:groupmode="layer"
     id="layer1"><g
       id="g7"
       transform="matrix(1.195334,0,0,1.319413,-22.282936,-38.858615)"><path
         style="fill:#adabc7"
         d="m 48.316744,154.04421 c 0.22689,-0.0626 0.598165,-0.0626 0.825055,0 0.22689,0.0626 0.04125,0.1138 -0.412528,0.1138 -0.45378,0 -0.639417,-0.0512 -0.412527,-0.1138 z m -14.468523,-5.98677 c -0.293217,-0.39464 -0.284879,-0.40344 0.089,-0.0939 0.22689,0.18782 0.412527,0.38377 0.412527,0.43544 0,0.20478 -0.193577,0.073 -0.501528,-0.3415 z m -1.885839,-1.99055 c -0.293217,-0.39465 -0.284879,-0.40345 0.089,-0.094 0.22689,0.18782 0.412528,0.38377 0.412528,0.43544 0,0.20478 -0.193578,0.073 -0.501529,-0.34149 z m 23.241992,-4.85655 -3.292749,-3.54112 3.35915,3.48014 3.359151,3.48015 0.05039,-2.98251 0.05039,-2.9825 0.07556,2.84045 c 0.04156,1.56225 -0.011,2.93182 -0.116789,3.04348 -0.105793,0.11167 -1.674089,-1.39047 -3.485102,-3.33809 z m -16.379969,0.25338 c 1.359024,-1.47114 2.499367,-2.67481 2.534096,-2.67481 0.170246,0 -0.117229,0.31895 -2.470952,2.74146 l -2.534096,2.60816 z m 48.269902,0.8927 c 0.162064,-0.069 0.42726,-0.069 0.589325,0 0.162064,0.069 0.02947,0.1255 -0.294663,0.1255 -0.324128,0 -0.456726,-0.0565 -0.294662,-0.1255 z m 3.300218,0 c 0.162064,-0.069 0.427261,-0.069 0.589325,0 0.162064,0.069 0.02947,0.1255 -0.294663,0.1255 -0.324128,0 -0.456726,-0.0565 -0.294662,-0.1255 z m 21.701885,-0.005 c 0.17016,-0.0719 0.37348,-0.063 0.45181,0.0197 0.0783,0.0827 -0.0609,0.14149 -0.30939,0.13068 -0.27462,-0.0119 -0.33047,-0.0709 -0.14242,-0.15033 z m 21.55455,-0.008 c 0.35654,-0.057 0.93997,-0.057 1.29651,0 0.35654,0.057 0.0648,0.10365 -0.64826,0.10365 -0.71308,0 -1.0048,-0.0466 -0.64825,-0.10365 z m 18.51952,0.008 c 0.17017,-0.0719 0.37349,-0.063 0.45182,0.0197 0.0783,0.0827 -0.0609,0.14149 -0.3094,0.13068 -0.27461,-0.0119 -0.33047,-0.0709 -0.14242,-0.15033 z m 2.82876,0 c 0.17017,-0.0719 0.37349,-0.063 0.45182,0.0197 0.0783,0.0827 -0.0609,0.14149 -0.3094,0.13068 -0.27461,-0.0119 -0.33047,-0.0709 -0.14242,-0.15033 z m 20.96523,0.005 c 0.16206,-0.069 0.42726,-0.069 0.58932,0 0.16207,0.069 0.0295,0.1255 -0.29466,0.1255 -0.32413,0 -0.45673,-0.0565 -0.29466,-0.1255 z m 3.06448,0 c 0.16207,-0.069 0.42727,-0.069 0.58933,0 0.16206,0.069 0.0295,0.1255 -0.29466,0.1255 -0.32413,0 -0.45673,-0.0565 -0.29467,-0.1255 z m -50.65305,-2.01239 c -0.29322,-0.39464 -0.28488,-0.40344 0.089,-0.0939 0.22689,0.18782 0.41253,0.38377 0.41253,0.43543 0,0.20479 -0.19358,0.073 -0.50153,-0.34149 z m -46.78471,-0.37323 -0.449062,-0.55984 0.530392,0.474 c 0.291716,0.2607 0.530392,0.51263 0.530392,0.55984 0,0.19912 -0.189714,0.0521 -0.611722,-0.474 z m 24.6261,-0.12441 c -0.29322,-0.39464 -0.28488,-0.40344 0.089,-0.0939 0.22689,0.18782 0.41253,0.38377 0.41253,0.43543 0,0.20479 -0.19358,0.073 -0.50153,-0.34149 z m 80.23514,-13.53994 c -0.0444,-11.00156 -0.12166,-14.12736 -0.35158,-14.22528 -0.23079,-0.0983 -0.22919,-0.12976 0.007,-0.14515 0.16613,-0.0108 0.3528,0.12032 0.41481,0.29139 0.062,0.17106 0.0843,6.58128 0.0495,14.24492 l -0.0632,13.93391 z m -97.472284,12.05804 c 0.291716,-0.0593 0.769069,-0.0593 1.060784,0 0.291716,0.0593 0.05304,0.10783 -0.530392,0.10783 -0.583431,0 -0.822108,-0.0485 -0.530392,-0.10783 z m 24.398044,-0.49356 c 0.22689,-0.0626 0.59816,-0.0626 0.82505,0 0.22689,0.0626 0.0413,0.11379 -0.41253,0.11379 -0.45378,0 -0.63941,-0.0512 -0.41252,-0.11379 z m 64.23639,0.007 c 0.16206,-0.069 0.42726,-0.069 0.58932,0 0.16206,0.069 0.0295,0.1255 -0.29466,0.1255 -0.32413,0 -0.45673,-0.0565 -0.29466,-0.1255 z M 57.705616,137.15085 c 0.01131,-0.28986 0.06717,-0.34882 0.142421,-0.15033 0.06809,0.17961 0.05972,0.39422 -0.01861,0.4769 -0.07833,0.0827 -0.134045,-0.0643 -0.123811,-0.32657 z m 2.828759,0 c 0.01131,-0.28986 0.06717,-0.34882 0.14242,-0.15033 0.06809,0.17961 0.05972,0.39422 -0.01861,0.4769 -0.07833,0.0827 -0.134046,-0.0643 -0.12381,-0.32657 z m 58.773595,-0.16588 -0.44906,-0.55985 0.53039,0.474 c 0.29171,0.2607 0.53039,0.51263 0.53039,0.55985 0,0.19911 -0.18971,0.0521 -0.61172,-0.474 z m 19.56558,0 -0.44906,-0.55985 0.53039,0.474 c 0.29171,0.2607 0.53039,0.51263 0.53039,0.55985 0,0.19911 -0.18971,0.0521 -0.61172,-0.474 z m -94.033821,-1.92836 c 0.769791,-0.8211 1.45266,-1.49291 1.517485,-1.49291 0.06483,0 -0.511964,0.67181 -1.281756,1.49291 -0.769791,0.82111 -1.45266,1.49292 -1.517485,1.49292 -0.06483,0 0.511964,-0.67181 1.281756,-1.49292 z m 73.131261,1.21323 c 0.1599,-0.17005 0.35012,-0.2465 0.42269,-0.16989 0.0726,0.0766 -0.0583,0.21574 -0.29073,0.30918 -0.33596,0.13503 -0.36304,0.10645 -0.13196,-0.13929 z m 42.02278,-0.21795 c -0.21246,-0.14492 -0.24154,-0.24272 -0.0729,-0.24501 0.15442,-0.002 0.34631,0.10816 0.42644,0.24501 0.18088,0.30892 0.0993,0.30892 -0.35359,0 z m -111.389743,-1.80394 -1.407,-1.55512 1.473312,1.48513 c 0.810321,0.81682 1.473312,1.51662 1.473312,1.55512 0,0.18385 -0.232641,-0.0405 -1.539624,-1.48513 z m 1.966884,1.38515 c 0.170167,-0.0719 0.373484,-0.063 0.451815,0.0196 0.07833,0.0827 -0.0609,0.14149 -0.309395,0.13069 -0.274612,-0.0119 -0.33047,-0.0709 -0.14242,-0.15033 z m 8.149855,-3.06468 c 0,-1.71064 0.03766,-2.41044 0.08369,-1.55513 0.04603,0.85532 0.04603,2.25493 0,3.11025 -0.04603,0.85532 -0.08369,0.15551 -0.08369,-1.55512 z m 44.244984,0.60131 c 0.0113,-0.28986 0.0672,-0.34882 0.14242,-0.15033 0.0681,0.17962 0.0597,0.39423 -0.0186,0.47691 -0.0783,0.0827 -0.13404,-0.0643 -0.12381,-0.32658 z m -32.059261,-0.49764 c 0.01131,-0.28986 0.06717,-0.34882 0.14242,-0.15033 0.0681,0.17962 0.05972,0.39423 -0.01861,0.47691 -0.07833,0.0827 -0.134046,-0.0643 -0.12381,-0.32658 z m -22.884407,-0.97454 c 0.439821,-0.47898 0.852713,-0.87087 0.917539,-0.87087 0.06483,0 -0.241989,0.39189 -0.681809,0.87087 -0.439821,0.47898 -0.852714,0.87087 -0.91754,0.87087 -0.06482,0 0.241989,-0.39189 0.68181,-0.87087 z m 40.725082,0.69489 c 0.293228,-0.0595 0.717542,-0.0573 0.94292,0.005 0.225378,0.0623 -0.01453,0.11097 -0.533141,0.10821 -0.518605,-0.003 -0.703006,-0.0537 -0.409779,-0.11323 z m 19.168916,-0.46681 c 0.0113,-0.28986 0.0672,-0.34882 0.14242,-0.15033 0.0681,0.17962 0.0597,0.39423 -0.0186,0.47691 -0.0783,0.0827 -0.13405,-0.0643 -0.12381,-0.32658 z m -81.503794,-1.47218 c 10e-4,-0.95796 0.04365,-1.31936 0.09468,-0.80312 0.05103,0.51625 0.05017,1.30003 -0.0019,1.74174 -0.05208,0.44172 -0.09383,0.0193 -0.09278,-0.93862 z m 18.420063,-0.18662 -1.407,-1.55512 1.473312,1.48513 c 0.810321,0.81682 1.473312,1.51663 1.473312,1.55512 0,0.18386 -0.232641,-0.0405 -1.539624,-1.48513 z m 36.781239,0.80867 c 0.234665,-0.2737 0.479704,-0.49764 0.54453,-0.49764 0.06482,0 -0.07413,0.22394 -0.308801,0.49764 -0.234665,0.2737 -0.479704,0.49764 -0.54453,0.49764 -0.06482,0 0.07413,-0.22394 0.308801,-0.49764 z m 26.302492,-0.89161 c 0.0113,-0.28986 0.0672,-0.34882 0.14242,-0.15032 0.0681,0.17961 0.0597,0.39422 -0.0186,0.4769 -0.0783,0.0827 -0.13405,-0.0643 -0.12381,-0.32658 z m 54.73492,-0.60131 c 0,-0.61583 0.046,-0.86776 0.10216,-0.55984 0.0562,0.30791 0.0562,0.81177 0,1.11968 -0.0562,0.30792 -0.10216,0.056 -0.10216,-0.55984 z M 42.084636,129.41261 c 0.170167,-0.0719 0.373484,-0.063 0.451815,0.0196 0.07833,0.0827 -0.0609,0.14149 -0.309395,0.13069 -0.274612,-0.0119 -0.33047,-0.0709 -0.14242,-0.15033 z m 6.644635,0.076 c 0,-0.0517 0.185638,-0.24762 0.412528,-0.43544 0.37388,-0.3095 0.382218,-0.3007 0.089,0.094 -0.307951,0.41447 -0.501529,0.54627 -0.501529,0.34149 z m 38.487387,-0.82495 c 0.229358,-0.0631 0.547593,-0.0589 0.70719,0.009 0.159597,0.0682 -0.02806,0.11977 -0.417014,0.1147 -0.388954,-0.005 -0.519533,-0.0608 -0.290176,-0.12392 z m 2.357299,0 c 0.229357,-0.0631 0.547593,-0.0589 0.70719,0.009 0.159596,0.0682 -0.02806,0.11977 -0.417014,0.1147 -0.388954,-0.005 -0.519534,-0.0608 -0.290176,-0.12392 z m -18.667468,-0.47035 c 0.01131,-0.28986 0.06717,-0.34882 0.14242,-0.15033 0.0681,0.17961 0.05972,0.39422 -0.01861,0.4769 -0.07833,0.0827 -0.134046,-0.0643 -0.12381,-0.32657 z m -13.200873,-0.24882 c 0.01131,-0.28986 0.06717,-0.34882 0.142421,-0.15033 0.06809,0.17962 0.05972,0.39422 -0.01861,0.4769 -0.07833,0.0827 -0.134045,-0.0643 -0.123811,-0.32657 z m 2.828759,0 c 0.01131,-0.28986 0.06717,-0.34882 0.14242,-0.15033 0.06809,0.17962 0.05972,0.39422 -0.01861,0.4769 -0.07833,0.0827 -0.134046,-0.0643 -0.12381,-0.32657 z m 37.716778,-0.74646 c 0.01131,-0.28986 0.06717,-0.34882 0.142421,-0.15033 0.06809,0.17962 0.05972,0.39422 -0.01861,0.4769 -0.07833,0.0827 -0.134045,-0.0643 -0.123811,-0.32657 z m -60.015262,-3.89818 -3.061087,-3.29686 3.123421,3.23107 c 2.901397,3.00139 3.230263,3.36265 3.061087,3.36265 -0.03428,0 -1.439823,-1.48358 -3.123421,-3.29686 z m 3.848745,3.12689 c 0.170167,-0.0719 0.373484,-0.063 0.451815,0.0196 0.07833,0.0827 -0.0609,0.14148 -0.309395,0.13068 -0.274612,-0.0119 -0.33047,-0.0709 -0.14242,-0.15033 z m 12.534607,-3.12689 c 1.748493,-1.8817 3.207071,-3.42127 3.241285,-3.42127 0.169008,0 -0.168132,0.36979 -3.179078,3.48693 l -3.241285,3.35561 z m 4.099828,0.31103 c 0,-1.57379 0.03828,-2.21761 0.08506,-1.43072 0.04678,0.7869 0.04678,2.07454 0,2.86143 -0.04678,0.78689 -0.08506,0.14307 -0.08506,-1.43071 z m 50.946369,2.23937 c 0.23467,-0.2737 0.47971,-0.49763 0.54453,-0.49763 0.0648,0 -0.0741,0.22393 -0.3088,0.49763 -0.23466,0.27371 -0.4797,0.49764 -0.54453,0.49764 -0.0648,0 0.0741,-0.22393 0.3088,-0.49764 z m -17.230676,-0.31102 -0.449062,-0.55984 0.530392,0.47399 c 0.498438,0.44545 0.637706,0.64569 0.449062,0.64569 -0.04473,0 -0.283407,-0.25193 -0.530392,-0.55984 z m 26.306276,-0.28056 c 0,-0.0517 0.18564,-0.24761 0.41253,-0.43543 0.37388,-0.3095 0.38222,-0.3007 0.089,0.0939 -0.30795,0.41447 -0.50153,0.54628 -0.50153,0.34149 z m 5.36286,-0.33487 c 0.42136,-0.0552 1.11087,-0.0552 1.53224,0 0.42137,0.0552 0.0766,0.10035 -0.76612,0.10035 -0.84274,0 -1.18749,-0.0452 -0.76612,-0.10035 z m 9.54706,-0.005 c 1.00479,-0.0466 2.64901,-0.0466 3.65381,0 1.0048,0.0466 0.18269,0.0848 -1.82691,0.0848 -2.0096,0 -2.8317,-0.0382 -1.8269,-0.0848 z m 43.61002,-0.49091 c 0.35654,-0.057 0.93997,-0.057 1.29652,0 0.35654,0.057 0.0648,0.10365 -0.64826,0.10365 -0.71308,0 -1.0048,-0.0466 -0.64826,-0.10365 z m -63.75019,-0.24058 c 0.17016,-0.0719 0.37348,-0.063 0.45181,0.0197 0.0783,0.0827 -0.0609,0.14149 -0.30939,0.13068 -0.27462,-0.0119 -0.33047,-0.0709 -0.14242,-0.15033 z m 9.54081,-1.44735 c 0.002,-0.68426 0.0476,-0.93465 0.10173,-0.55643 0.0542,0.37823 0.0527,0.93807 -0.003,1.2441 -0.056,0.30604 -0.10029,-0.003 -0.0985,-0.68767 z m 16.26214,0.12441 c 0,-0.61583 0.046,-0.86776 0.10216,-0.55985 0.0562,0.30792 0.0562,0.81178 0,1.11969 -0.0562,0.30792 -0.10216,0.056 -0.10216,-0.55984 z m -33.41998,0 c 0.23467,-0.2737 0.47971,-0.49764 0.54453,-0.49764 0.0648,0 -0.0741,0.22394 -0.3088,0.49764 -0.23466,0.2737 -0.4797,0.49764 -0.54453,0.49764 -0.0648,0 0.0741,-0.22394 0.3088,-0.49764 z m 54.08217,-0.43544 -0.57149,-0.68425 0.64826,0.60322 c 0.35654,0.33177 0.64826,0.63968 0.64826,0.68425 0,0.19514 -0.1909,0.0363 -0.72503,-0.60322 z m -63.769488,-0.12441 -0.449062,-0.55984 0.530392,0.474 c 0.498438,0.44544 0.637706,0.64569 0.449062,0.64569 -0.04473,0 -0.283408,-0.25193 -0.530392,-0.55985 z m -54.372269,-1.5955 c 0.162064,-0.069 0.42726,-0.069 0.589324,0 0.162065,0.069 0.02947,0.1255 -0.294662,0.1255 -0.324128,0 -0.456727,-0.0565 -0.294662,-0.1255 z m 8.736738,-0.005 c 0.170167,-0.0719 0.373484,-0.063 0.451815,0.0196 0.07833,0.0827 -0.0609,0.14149 -0.309395,0.13069 -0.274612,-0.0119 -0.33047,-0.0709 -0.14242,-0.15033 z m 38.176253,-1.00129 c 0.293228,-0.0595 0.717542,-0.0573 0.94292,0.005 0.225378,0.0623 -0.01453,0.11097 -0.533141,0.10821 -0.518605,-0.003 -0.703006,-0.0537 -0.409779,-0.11323 z m 24.281646,-0.004 c 0.42369,-0.0554 1.06016,-0.0542 1.41438,0.003 0.35422,0.0568 0.008,0.10209 -0.77034,0.10069 -0.77791,-0.001 -1.06773,-0.0478 -0.64404,-0.10323 z m 39.95199,0.009 c 0.22689,-0.0626 0.59817,-0.0626 0.82506,0 0.22689,0.0626 0.0412,0.11379 -0.41253,0.11379 -0.45378,0 -0.63942,-0.0512 -0.41253,-0.11379 z M 33.377175,118.81441 c 0.101097,-0.10633 1.819862,-0.16197 3.819479,-0.12366 l 3.635667,0.0697 -3.819479,0.12366 c -2.100713,0.068 -3.736763,0.0367 -3.635667,-0.0697 z m 11.766454,-0.11556 c 0.815402,-0.0487 2.088343,-0.0483 2.828758,9e-4 0.740415,0.0492 0.07327,0.0891 -1.482549,0.0886 -1.555818,-4.9e-4 -2.161612,-0.0408 -1.346209,-0.0895 z m 8.477037,2.6e-4 c 0.810321,-0.0486 2.136302,-0.0486 2.946623,0 0.810322,0.0486 0.147332,0.0883 -1.473311,0.0883 -1.620643,0 -2.283633,-0.0398 -1.473312,-0.0883 z m -11.53603,-0.98103 c 0.170167,-0.0719 0.373484,-0.063 0.451815,0.0196 0.07833,0.0827 -0.0609,0.14148 -0.309395,0.13068 -0.274612,-0.0119 -0.33047,-0.0709 -0.14242,-0.15033 z m 8.486275,0 c 0.170167,-0.0719 0.373484,-0.063 0.451815,0.0196 0.07833,0.0827 -0.0609,0.14148 -0.309395,0.13068 -0.274612,-0.0119 -0.33047,-0.0709 -0.14242,-0.15033 z m 15.100842,-2.50484 c -0.293217,-0.39464 -0.28488,-0.40344 0.089,-0.0939 0.392667,0.32505 0.51754,0.52938 0.323526,0.52938 -0.04895,0 -0.234588,-0.19595 -0.412527,-0.43544 z m -32.746234,-1.36851 c 0.976856,-1.09858 1.188501,-1.29612 1.188501,-1.10929 0,0.0399 -0.503873,0.57179 -1.119717,1.1819 l -1.119717,1.10929 z M 128.4649,114.724 c 0.35654,-0.057 0.93997,-0.057 1.29651,0 0.35654,0.057 0.0648,0.10365 -0.64825,0.10365 -0.71309,0 -1.0048,-0.0466 -0.64826,-0.10365 z m -65.386175,-2.24778 c -0.293218,-0.39464 -0.28488,-0.40344 0.089,-0.0939 0.392666,0.32505 0.51754,0.52938 0.323526,0.52938 -0.04895,0 -0.234588,-0.19595 -0.412527,-0.43544 z M 51.2781,107.01883 c 0.170168,-0.0719 0.373485,-0.063 0.451816,0.0197 0.07833,0.0827 -0.0609,0.14149 -0.309395,0.13068 -0.274612,-0.0119 -0.33047,-0.0709 -0.142421,-0.15033 z"
         id="path13" /><path
         style="fill:#928fb5"
         d="m 34.821209,145.63145 c 0.835244,-0.88953 1.571664,-1.61733 1.63649,-1.61733 0.06482,0 -0.565516,0.7278 -1.40076,1.61733 -0.835243,0.88953 -1.571664,1.61733 -1.636489,1.61733 -0.06483,0 0.565516,-0.7278 1.400759,-1.61733 z m -1.532244,-0.12441 c 0.506405,-0.5474 0.973776,-0.99528 1.038601,-0.99528 0.06483,0 -0.296466,0.44788 -0.802871,0.99528 -0.506405,0.54741 -0.973775,0.99528 -1.038601,0.99528 -0.06483,0 0.296466,-0.44787 0.802871,-0.99528 z m 54.762995,-3.15581 c 0.170167,-0.0719 0.373484,-0.063 0.451815,0.0197 0.07833,0.0827 -0.0609,0.14149 -0.309395,0.13068 -0.274612,-0.0119 -0.33047,-0.0709 -0.14242,-0.15033 z m 1.650109,0 c 0.170167,-0.0719 0.373484,-0.063 0.451815,0.0197 0.07833,0.0827 -0.0609,0.14149 -0.309395,0.13068 -0.274612,-0.0119 -0.33047,-0.0709 -0.14242,-0.15033 z m 23.101531,0 c 0.17016,-0.0719 0.37348,-0.063 0.45181,0.0197 0.0783,0.0827 -0.0609,0.14149 -0.30939,0.13068 -0.27462,-0.0119 -0.33047,-0.0709 -0.14242,-0.15033 z m 41.48845,0 c 0.17017,-0.0719 0.37349,-0.063 0.45182,0.0197 0.0783,0.0827 -0.0609,0.14149 -0.3094,0.13068 -0.27461,-0.0119 -0.33047,-0.0709 -0.14242,-0.15033 z m 14.99065,-3.12689 -0.44906,-0.55984 0.53039,0.474 c 0.29172,0.2607 0.53039,0.51263 0.53039,0.55984 0,0.19912 -0.18971,0.0521 -0.61172,-0.474 z m -37.7132,-9.26853 c -2e-4,-2.73702 0.0342,-3.89065 0.0765,-2.56364 0.0423,1.32702 0.0425,3.5664 3.8e-4,4.9764 -0.0421,1.41 -0.0767,0.32426 -0.0769,-2.41276 z m -43.174192,-1.29212 c 0.229357,-0.0631 0.547592,-0.0589 0.707189,0.009 0.159597,0.0682 -0.02806,0.11977 -0.417013,0.1147 -0.388955,-0.005 -0.519534,-0.0608 -0.290176,-0.12392 z m 64.718092,-4.72512 c 0.17017,-0.0719 0.37349,-0.063 0.45182,0.0196 0.0783,0.0827 -0.0609,0.14149 -0.3094,0.13068 -0.27461,-0.0119 -0.33047,-0.0709 -0.14242,-0.15033 z m -21.5538,-6.05052 c 0,-1.57378 0.0383,-2.2176 0.0851,-1.43071 0.0468,0.78689 0.0468,2.07453 0,2.86143 -0.0468,0.78689 -0.0851,0.14307 -0.0851,-1.43072 z"
         id="path12" /><path
         style="fill:#827da9"
         d="m 36.589183,142.02357 c 1.29165,-1.36851 2.401493,-2.4882 2.466318,-2.4882 0.06483,0 -0.938939,1.11969 -2.230588,2.4882 -1.291649,1.3685 -2.401492,2.48819 -2.466318,2.48819 -0.06483,0 0.938939,-1.11969 2.230588,-2.48819 z m 52.155233,0.33285 c 0.162064,-0.069 0.42726,-0.069 0.589325,0 0.162064,0.069 0.02947,0.1255 -0.294663,0.1255 -0.324128,0 -0.456726,-0.0565 -0.294662,-0.1255 z m 24.751634,0 c 0.16207,-0.069 0.42726,-0.069 0.58933,0 0.16206,0.069 0.0295,0.1255 -0.29467,0.1255 -0.32412,0 -0.45672,-0.0565 -0.29466,-0.1255 z m 39.83835,0 c 0.16206,-0.069 0.42726,-0.069 0.58932,0 0.16207,0.069 0.0295,0.1255 -0.29466,0.1255 -0.32413,0 -0.45672,-0.0565 -0.29466,-0.1255 z m 24.1668,-0.008 c 0.22935,-0.0631 0.54759,-0.0589 0.70719,0.009 0.15959,0.0682 -0.0281,0.11977 -0.41702,0.1147 -0.38895,-0.005 -0.51953,-0.0608 -0.29017,-0.12392 z m -79.268981,-8.1129 0.117542,-6.27063 0.06354,6.07912 c 0.03495,3.34351 -0.01794,6.16529 -0.117541,6.27063 -0.0996,0.10533 -0.128192,-2.63027 -0.06355,-6.07912 z m -4.629293,1.31837 c 0,-1.30008 0.03973,-1.83193 0.08829,-1.18189 0.04856,0.65004 0.04856,1.71375 0,2.36379 -0.04856,0.65004 -0.08829,0.11819 -0.08829,-1.1819 z m 57.197374,-3.16168 c 6.2046,-0.17587 11.73254,-0.18099 11.63256,-0.0108 -0.0603,0.10264 -3.25919,0.16284 -7.10867,0.13377 -3.84948,-0.0291 -5.88523,-0.0844 -4.52389,-0.123 z m -79.893811,-0.71576 c 0.01131,-0.28986 0.06717,-0.34882 0.14242,-0.15033 0.0681,0.17962 0.05972,0.39423 -0.01861,0.47691 -0.07833,0.0827 -0.134046,-0.0643 -0.12381,-0.32658 z m 0,-2.48819 c 0.01131,-0.28987 0.06717,-0.34882 0.14242,-0.15033 0.0681,0.17961 0.05972,0.39422 -0.01861,0.4769 -0.07833,0.0827 -0.134046,-0.0643 -0.12381,-0.32657 z m 22.592812,-0.53934 c 0.112642,-0.85872 0.129075,-0.87607 0.206799,-0.21828 0.04644,0.39301 -0.0086,0.81279 -0.122366,0.93285 -0.118578,0.12516 -0.154598,-0.17967 -0.08443,-0.71457 z m -5.10848,-4.46343 c 0.22689,-0.0626 0.598165,-0.0626 0.825055,0 0.22689,0.0626 0.04125,0.11379 -0.412527,0.11379 -0.45378,0 -0.639418,-0.0512 -0.412528,-0.11379 z m 81.150009,-1.07258 c 0.23466,-0.2737 0.4797,-0.49764 0.54453,-0.49764 0.0648,0 -0.0741,0.22394 -0.3088,0.49764 -0.23467,0.2737 -0.47971,0.49764 -0.54453,0.49764 -0.0648,0 0.0741,-0.22394 0.3088,-0.49764 z m -34.18083,-2.23938 -3.77168,-0.14366 3.69883,-0.0526 c 2.267,-0.0322 3.75523,0.0437 3.84452,0.19624 0.0801,0.13685 0.11291,0.22516 0.0728,0.19624 -0.0401,-0.0289 -1.7701,-0.11723 -3.84452,-0.19624 z m -11.26136,-0.17958 c 0.41847,-0.055 1.16102,-0.0559 1.65011,-0.002 0.48908,0.0539 0.14669,0.0988 -0.76087,0.0999 -0.90756,0.001 -1.30772,-0.043 -0.88924,-0.0979 z m -59.829039,-6.97399 -0.571483,-0.68425 0.648257,0.60322 c 0.356541,0.33177 0.648257,0.63968 0.648257,0.68425 0,0.19514 -0.190894,0.0363 -0.725031,-0.60322 z"
         id="path11" /><path
         style="fill:#605c93"
         d="m 63.815983,147.66856 c 0,-0.0428 0.344755,-0.40672 0.766122,-0.80866 l 0.766122,-0.73081 -0.69236,0.80867 c -0.645377,0.75378 -0.839884,0.92303 -0.839884,0.7308 z m -8.842633,-4.96074 -3.768915,-4.04332 3.83061,3.9782 c 3.558732,3.69584 3.937231,4.10844 3.768915,4.10844 -0.03393,0 -1.757707,-1.81949 -3.83061,-4.04332 z M 39.771536,138.6645 c 0.439821,-0.47898 0.852714,-0.87087 0.91754,-0.87087 0.06482,0 -0.241989,0.39189 -0.68181,0.87087 -0.439821,0.47898 -0.852713,0.87087 -0.917539,0.87087 -0.06483,0 0.241989,-0.39189 0.681809,-0.87087 z m 113.801344,-0.54921 c 0.29322,-0.0595 0.71754,-0.0573 0.94292,0.005 0.22538,0.0623 -0.0145,0.11097 -0.53314,0.10821 -0.51861,-0.003 -0.70301,-0.0537 -0.40978,-0.11323 z m -3.98129,-1.75237 c -0.29322,-0.39464 -0.28488,-0.40345 0.089,-0.094 0.39266,0.32505 0.51754,0.52938 0.32352,0.52938 -0.0489,0 -0.23459,-0.19594 -0.41252,-0.43543 z m -101.813291,-1.2441 -1.288461,-1.43071 1.355446,1.36 c 1.259253,1.2635 1.463433,1.50142 1.288462,1.50142 -0.03684,0 -0.646793,-0.64382 -1.355447,-1.43071 z m 12.235937,0.74646 c -0.293217,-0.39464 -0.284879,-0.40344 0.089,-0.094 0.392667,0.32506 0.51754,0.52938 0.323527,0.52938 -0.04895,0 -0.234588,-0.19594 -0.412528,-0.43543 z m 20.121797,-0.31103 c 0,-0.47897 0.04851,-0.67492 0.107805,-0.43543 0.05929,0.23949 0.05929,0.63138 0,0.87087 -0.05929,0.23949 -0.107805,0.0435 -0.107805,-0.43544 z m -37.74597,0.18662 c 0.05724,-0.0342 0.790951,-0.73402 1.630465,-1.55513 l 1.52639,-1.49291 -1.407,1.55512 c -0.77385,0.85532 -1.507559,1.55512 -1.630465,1.55512 -0.122905,0 -0.176631,-0.028 -0.11939,-0.0622 z m 1.499367,-4.72758 -1.407,-1.55512 1.473312,1.48513 c 1.36858,1.37956 1.581181,1.62512 1.407,1.62512 -0.03647,0 -0.699462,-0.69981 -1.473312,-1.55513 z m 59.12513,0.18662 c 0.002,-0.68426 0.0476,-0.93465 0.10174,-0.55642 0.0542,0.37822 0.0527,0.93806 -0.003,1.24409 -0.056,0.30604 -0.10029,-0.003 -0.0985,-0.68767 z m -56.642587,0.5281 c 0,-0.0517 0.185637,-0.24761 0.412527,-0.43543 0.373881,-0.3095 0.382218,-0.3007 0.089,0.0939 -0.30795,0.41447 -0.501528,0.54628 -0.501528,0.34149 z m 124.955437,-0.54884 c 0.0113,-0.28986 0.0672,-0.34882 0.14242,-0.15033 0.0681,0.17962 0.0597,0.39423 -0.0186,0.47691 -0.0783,0.0827 -0.13404,-0.0643 -0.12381,-0.32658 z M 70.947326,130.45345 c 0.0026,-0.5474 0.05089,-0.74204 0.107275,-0.43253 0.05638,0.30951 0.05424,0.75738 -0.0048,0.99527 -0.059,0.2379 -0.105135,-0.0153 -0.102518,-0.56274 z m -34.125176,-6.90475 -3.768915,-4.04332 3.830611,3.9782 c 3.558731,3.69585 3.93723,4.10844 3.768914,4.10844 -0.03393,0 -1.757707,-1.81949 -3.83061,-4.04332 z m 18.389693,0.80867 c 1.681727,-1.77906 3.110725,-3.23466 3.17555,-3.23466 0.06483,0 -1.258093,1.4556 -2.939821,3.23466 -1.681727,1.77906 -3.110725,3.23465 -3.17555,3.23465 -0.06483,0 1.258093,-1.45559 2.939821,-3.23465 z m 94.174077,1.39897 c 0,-0.0517 0.18564,-0.24761 0.41253,-0.43543 0.37388,-0.3095 0.38222,-0.3007 0.089,0.0939 -0.30795,0.41447 -0.50153,0.54628 -0.50153,0.34149 z m -67.448806,-0.59031 c -0.293218,-0.39464 -0.28488,-0.40344 0.089,-0.0939 0.22689,0.18782 0.412527,0.38376 0.412527,0.43543 0,0.20479 -0.193578,0.073 -0.501528,-0.34149 z m -38.865359,-4.6349 c 0,-0.0517 0.185637,-0.24762 0.412527,-0.43544 0.37388,-0.3095 0.382218,-0.3007 0.089,0.0939 -0.307951,0.41447 -0.501528,0.54627 -0.501528,0.34149 z m 139.979345,-8.5359 c 0.17016,-0.0719 0.37348,-0.063 0.45181,0.0196 0.0783,0.0827 -0.0609,0.14149 -0.30939,0.13069 -0.27462,-0.0119 -0.33047,-0.0709 -0.14242,-0.15033 z m 1.6501,0 c 0.17017,-0.0719 0.37349,-0.063 0.45182,0.0196 0.0783,0.0827 -0.0609,0.14149 -0.3094,0.13069 -0.27461,-0.0119 -0.33046,-0.0709 -0.14242,-0.15033 z m -137.430507,-4.9764 c 0.170167,-0.0719 0.373484,-0.063 0.451815,0.0197 0.07833,0.0827 -0.0609,0.14149 -0.309395,0.13068 -0.274612,-0.0119 -0.33047,-0.0709 -0.14242,-0.15033 z m 2.828758,0 c 0.170168,-0.0719 0.373485,-0.063 0.451816,0.0197 0.07833,0.0827 -0.0609,0.14149 -0.309396,0.13068 -0.274612,-0.0119 -0.330469,-0.0709 -0.14242,-0.15033 z"
         id="path10" /><path
         style="fill:#413c7e"
         d="m 47.034963,153.79694 c 0.170167,-0.0719 0.373484,-0.063 0.451815,0.0196 0.07833,0.0827 -0.0609,0.14149 -0.309395,0.13069 -0.274612,-0.0119 -0.33047,-0.0709 -0.14242,-0.15033 z m 12.869033,-11.15132 c 2.98e-4,-2.18962 0.03636,-3.05206 0.08014,-1.91654 0.04378,1.13551 0.04353,2.92702 -5.42e-4,3.98111 -0.04408,1.0541 -0.0799,0.12504 -0.0796,-2.06457 z m -4.813556,-1.80395 -2.943086,-3.17245 3.005556,3.10651 c 1.653056,1.70859 3.005556,3.13619 3.005556,3.17246 0,0.17876 -0.334202,-0.15964 -3.068026,-3.10652 z m 73.41099,-0.62205 -0.44906,-0.55984 0.53039,0.474 c 0.29172,0.2607 0.5304,0.51263 0.5304,0.55984 0,0.19912 -0.18972,0.0521 -0.61173,-0.474 z m -18.98392,-3.8567 c -0.29322,-0.39464 -0.28488,-0.40345 0.089,-0.094 0.39267,0.32505 0.51754,0.52938 0.32353,0.52938 -0.049,0 -0.23459,-0.19594 -0.41253,-0.43543 z m -64.334038,-1.36851 c 0.976856,-1.09859 1.188501,-1.29613 1.188501,-1.10929 0,0.0399 -0.503873,0.57178 -1.119717,1.18189 l -1.119717,1.10929 z m 81.673158,-4.66537 c 0,-3.07914 0.0338,-4.33879 0.0752,-2.79922 0.0414,1.53957 0.0414,4.05887 0,5.59844 -0.0414,1.53957 -0.0752,0.27992 -0.0752,-2.79922 z m -78.135411,3.7945 -1.288462,-1.43071 1.355447,1.36001 c 1.259253,1.26349 1.463433,1.50141 1.288461,1.50141 -0.03684,0 -0.646792,-0.64382 -1.355446,-1.43071 z m 11.178197,-1.55512 c 0,-1.71064 0.03766,-2.41044 0.08369,-1.55513 0.04603,0.85532 0.04603,2.25493 0,3.11025 -0.04603,0.85532 -0.08369,0.15551 -0.08369,-1.55512 z m -11.170145,-1.36851 c 0.704225,-0.75268 1.333449,-1.36851 1.398274,-1.36851 0.06483,0 -0.458319,0.61583 -1.162544,1.36851 -0.704225,0.75268 -1.333448,1.36851 -1.398274,1.36851 -0.06483,0 0.458319,-0.61583 1.162544,-1.36851 z m -3.896922,-1.1819 -1.407,-1.55512 1.473312,1.48513 c 1.368581,1.37956 1.581181,1.62512 1.407,1.62512 -0.03647,0 -0.699462,-0.69981 -1.473312,-1.55513 z m 3.179881,0 c 0.976856,-1.09858 1.188501,-1.29612 1.188501,-1.10929 0,0.0399 -0.503873,0.57179 -1.119717,1.1819 l -1.119717,1.10929 z m 95.26333,0.16588 c 0.0113,-0.28986 0.0672,-0.34882 0.14242,-0.15032 0.0681,0.17961 0.0597,0.39422 -0.0186,0.4769 -0.0783,0.0827 -0.13405,-0.0643 -0.12381,-0.32658 z m -92.704649,-0.52246 c 0.170167,-0.0719 0.373484,-0.063 0.451815,0.0196 0.07833,0.0827 -0.0609,0.14149 -0.309395,0.13069 -0.274612,-0.0119 -0.33047,-0.0709 -0.14242,-0.15033 z m 100.182999,-0.51341 c 1.33582,-0.0444 3.45739,-0.0443 4.7146,4e-4 1.2572,0.0447 0.16426,0.081 -2.42877,0.0808 -2.59303,-2.2e-4 -3.62165,-0.0367 -2.28583,-0.0812 z m -110.256574,-1.2035 c 0.01131,-0.28986 0.06717,-0.34882 0.14242,-0.15033 0.0681,0.17962 0.05972,0.39422 -0.01861,0.4769 -0.07833,0.0827 -0.134045,-0.0643 -0.12381,-0.32657 z M 51.1106,126.53454 c 0.05643,-0.0342 0.631025,-0.56607 1.27687,-1.18189 l 1.174264,-1.11969 -1.050933,1.18189 c -0.578013,0.65004 -1.152605,1.18189 -1.27687,1.18189 -0.124266,0 -0.179765,-0.028 -0.123331,-0.0622 z m -12.635578,-3.17245 c -1.551764,-1.64221 -2.768349,-2.98584 -2.703524,-2.98584 0.06483,0 1.38749,1.34363 2.939254,2.98584 1.551764,1.64221 2.768349,2.98583 2.703524,2.98583 -0.06483,0 -1.38749,-1.34362 -2.939254,-2.98583 z m 21.37318,0.32571 c -0.02179,-1.5315 0.03993,-2.83682 0.13717,-2.90071 0.09724,-0.0639 0.148225,0.79725 0.113304,1.91366 -0.109104,3.48795 -0.209266,3.88266 -0.250474,0.98705 z m 32.696756,1.72705 c -0.293218,-0.39464 -0.28488,-0.40344 0.089,-0.0939 0.22689,0.18782 0.412527,0.38376 0.412527,0.43543 0,0.20479 -0.193578,0.073 -0.501528,-0.34149 z m 25.960352,-0.15615 c 0,-0.0517 0.18564,-0.24761 0.41253,-0.43543 0.37388,-0.3095 0.38222,-0.3007 0.089,0.0939 -0.30795,0.41447 -0.50153,0.54628 -0.50153,0.34149 z m -12.49368,-2.26984 c 0.3045,-0.34213 0.60668,-0.62205 0.67151,-0.62205 0.0648,0 -0.13128,0.27992 -0.43578,0.62205 -0.3045,0.34212 -0.60668,0.62205 -0.67151,0.62205 -0.0648,0 0.13128,-0.27993 0.43578,-0.62205 z m -10.040918,-0.68426 -0.449062,-0.55984 0.530392,0.474 c 0.498438,0.44544 0.637706,0.64569 0.449062,0.64569 -0.04473,0 -0.283407,-0.25193 -0.530392,-0.55985 z M 126.845,117.88805 c 0,-1.57378 0.0383,-2.2176 0.0851,-1.43071 0.0468,0.78689 0.0468,2.07453 0,2.86143 -0.0468,0.78689 -0.0851,0.14307 -0.0851,-1.43072 z m -90.079019,2.05551 c 0.745495,-0.0494 1.965397,-0.0494 2.710893,0 0.745496,0.0494 0.135545,0.0898 -1.355447,0.0898 -1.490991,0 -2.100942,-0.0404 -1.355446,-0.0898 z m 8.377648,-6.1e-4 c 0.815402,-0.0487 2.088343,-0.0483 2.828758,9e-4 0.740415,0.0492 0.07327,0.0891 -1.482549,0.0886 -1.555818,-4.9e-4 -2.161612,-0.0408 -1.346209,-0.0895 z m 8.359172,6.1e-4 c 0.745496,-0.0494 1.965398,-0.0494 2.710894,0 0.745495,0.0494 0.135544,0.0898 -1.355447,0.0898 -1.490992,0 -2.100943,-0.0404 -1.355447,-0.0898 z m 124.833699,0.0139 c 0.17017,-0.0719 0.37348,-0.063 0.45181,0.0196 0.0783,0.0827 -0.0609,0.14149 -0.30939,0.13069 -0.27461,-0.0119 -0.33047,-0.0709 -0.14242,-0.15033 z m 5.40705,-7.95705 c 0.16207,-0.069 0.42726,-0.069 0.58933,0 0.16206,0.069 0.0295,0.1255 -0.29467,0.1255 -0.32412,0 -0.45672,-0.0565 -0.29466,-0.1255 z M 48.319985,107.01026 c 0.358324,-0.0572 0.888717,-0.0557 1.17865,0.003 0.289933,0.0591 -0.0032,0.10586 -0.651499,0.10399 -0.648257,-0.002 -0.885475,-0.0502 -0.527151,-0.10738 z"
         id="path9" /><path
         style="fill:#302a72"
         d="m 48.203101,153.78658 c 0.423689,-0.0554 1.06016,-0.0542 1.414379,0.003 0.35422,0.0568 0.0076,0.10209 -0.770344,0.10069 -0.777908,-10e-4 -1.067724,-0.0479 -0.644035,-0.10323 z m -14.59061,-6.22678 c -0.293217,-0.39464 -0.284879,-0.40344 0.089,-0.0939 0.22689,0.18782 0.412528,0.38377 0.412528,0.43544 0,0.20478 -0.193578,0.073 -0.501529,-0.3415 z m 4.626801,-5.28741 c 1.811646,-1.91592 3.346941,-3.48348 3.411767,-3.48348 0.06483,0 -1.364391,1.56756 -3.176037,3.48348 -1.811646,1.91591 -3.346941,3.48347 -3.411767,3.48347 -0.06482,0 1.364391,-1.56756 3.176037,-3.48347 z m 20.100974,0.0628 c 0.112973,-3.40844 0.209362,-3.74439 0.250033,-0.87145 0.02179,1.53957 -0.03993,2.79948 -0.137171,2.7998 -0.09724,3.2e-4 -0.148026,-0.86744 -0.112862,-1.92835 z m 23.361118,-2.48878 c -0.293217,-0.39464 -0.28488,-0.40344 0.089,-0.0939 0.392667,0.32505 0.51754,0.52938 0.323526,0.52938 -0.04895,0 -0.234588,-0.19595 -0.412527,-0.43544 z m -31.130473,-0.97863 c 0.170167,-0.0719 0.373484,-0.063 0.451815,0.0196 0.07833,0.0827 -0.0609,0.14149 -0.309395,0.13069 -0.274612,-0.0119 -0.33047,-0.0709 -0.14242,-0.15033 z m -1.5873,-1.71691 c 0.01131,-0.28986 0.06717,-0.34882 0.142421,-0.15033 0.06809,0.17961 0.05972,0.39422 -0.01861,0.4769 -0.07833,0.0827 -0.134045,-0.0643 -0.123811,-0.32657 z m 132.799249,-5.82653 c 0,-3.35285 0.0334,-4.72447 0.0742,-3.04804 0.0408,1.67642 0.0408,4.41966 0,6.09608 -0.0408,1.67642 -0.0742,0.3048 -0.0742,-3.04804 z m -21.3477,5.28742 c -0.29322,-0.39464 -0.28488,-0.40345 0.089,-0.094 0.22689,0.18782 0.41253,0.38377 0.41253,0.43544 0,0.20479 -0.19358,0.073 -0.50153,-0.34149 z m -42.46417,-0.0931 c 0.1599,-0.17005 0.35012,-0.2465 0.42269,-0.16989 0.0726,0.0766 -0.0583,0.21574 -0.29073,0.30917 -0.33596,0.13504 -0.36304,0.10646 -0.13196,-0.13928 z m 54.95785,-0.40456 c -0.29322,-0.39464 -0.28488,-0.40344 0.089,-0.094 0.39267,0.32506 0.51754,0.52938 0.32353,0.52938 -0.049,0 -0.23459,-0.19594 -0.41253,-0.43543 z m -88.095679,-0.80867 c 0,-0.34212 0.05351,-0.48208 0.118899,-0.31102 0.06539,0.17106 0.06539,0.45098 0,0.62205 -0.06539,0.17106 -0.118899,0.0311 -0.118899,-0.31103 z m -26.348124,-2.73701 c 0,-1.71064 0.03766,-2.41044 0.08369,-1.55513 0.04603,0.85532 0.04603,2.25493 0,3.11025 -0.04603,0.85532 -0.08369,0.15551 -0.08369,-1.55512 z m -31.895763,-0.39397 c 0.01131,-0.28986 0.06717,-0.34882 0.14242,-0.15033 0.0681,0.17962 0.05972,0.39423 -0.01861,0.47691 -0.07833,0.0827 -0.134045,-0.0643 -0.12381,-0.32658 z m 116.722366,-0.85013 c 0,-0.47898 0.0485,-0.67493 0.1078,-0.43544 0.0593,0.23949 0.0593,0.63138 0,0.87087 -0.0593,0.23949 -0.1078,0.0436 -0.1078,-0.43543 z m 23.33725,0 c 0,-0.47898 0.0485,-0.67493 0.10781,-0.43544 0.0593,0.23949 0.0593,0.63138 0,0.87087 -0.0593,0.23949 -0.10781,0.0436 -0.10781,-0.43543 z m -58.93246,-0.24882 c 0,-0.47898 0.0485,-0.67492 0.1078,-0.43544 0.0593,0.23949 0.0593,0.63138 0,0.87087 -0.0593,0.23949 -0.1078,0.0436 -0.1078,-0.43543 z m 54.67186,-0.49764 c 0,-0.34213 0.0535,-0.48209 0.1189,-0.31103 0.0654,0.17107 0.0654,0.45099 0,0.62205 -0.0654,0.17107 -0.1189,0.0311 -0.1189,-0.31102 z M 26.589274,128.69098 c 0.01131,-0.28986 0.06717,-0.34882 0.14242,-0.15033 0.0681,0.17961 0.05972,0.39422 -0.01861,0.4769 -0.07833,0.0827 -0.134045,-0.0643 -0.12381,-0.32657 z m 135.780406,0 c 0.0113,-0.28986 0.0672,-0.34882 0.14242,-0.15033 0.0681,0.17961 0.0597,0.39422 -0.0186,0.4769 -0.0783,0.0827 -0.13405,-0.0643 -0.12381,-0.32657 z M 48.983611,127.94452 c 0.01131,-0.28986 0.06717,-0.34882 0.142421,-0.15033 0.06809,0.17962 0.05972,0.39422 -0.01861,0.4769 -0.07833,0.0827 -0.134045,-0.0643 -0.123811,-0.32657 z m 9.498764,-4.2092 c 5.31e-4,-1.50536 0.03936,-2.08911 0.08628,-1.29722 0.04692,0.79189 0.04649,2.02355 -9.67e-4,2.73702 -0.04745,0.71347 -0.08584,0.0656 -0.08531,-1.4398 z m 65.739385,0.93843 c 0.48619,-0.0537 1.28178,-0.0537 1.76797,0 0.4862,0.0537 0.0884,0.0976 -0.88398,0.0976 -0.97239,0 -1.37018,-0.0439 -0.88399,-0.0976 z m 9.32252,-0.004 c 1.07578,-0.0462 2.77304,-0.046 3.77168,5.7e-4 0.99864,0.0465 0.11846,0.0843 -1.95596,0.084 -2.07443,-3.2e-4 -2.8915,-0.0384 -1.81572,-0.0846 z m -78.214572,-2.4273 c 1.096312,-1.16323 2.046334,-2.11497 2.11116,-2.11497 0.06482,0 -0.779118,0.95174 -1.875431,2.11497 -1.096312,1.16323 -2.046334,2.11497 -2.11116,2.11497 -0.06482,0 0.779118,-0.95174 1.875431,-2.11497 z m 122.171492,1.94254 c 0.22935,-0.0631 0.54759,-0.0589 0.70719,0.009 0.15959,0.0682 -0.0281,0.11977 -0.41702,0.1147 -0.38895,-0.005 -0.51953,-0.0608 -0.29017,-0.12392 z m 4.27617,-7.66539 c -2.7e-4,-2.32647 0.0352,-3.31169 0.0787,-2.18939 0.0436,1.1223 0.0438,3.02577 4.9e-4,4.22993 -0.0433,1.20417 -0.079,0.28592 -0.0792,-2.04054 z m -93.72541,3.43791 c 0.170167,-0.0719 0.373484,-0.063 0.451815,0.0196 0.07833,0.0827 -0.0609,0.14149 -0.309395,0.13069 -0.274612,-0.0119 -0.33047,-0.0709 -0.14242,-0.15033 z m 1.885839,0 c 0.170167,-0.0719 0.373484,-0.063 0.451815,0.0196 0.07833,0.0827 -0.0609,0.14149 -0.309395,0.13069 -0.274612,-0.0119 -0.33047,-0.0709 -0.14242,-0.15033 z m 62.468411,0 c 0.17017,-0.0719 0.37349,-0.063 0.45182,0.0196 0.0783,0.0827 -0.0609,0.14149 -0.3094,0.13069 -0.27461,-0.0119 -0.33047,-0.0709 -0.14242,-0.15033 z m 1.65011,0 c 0.17017,-0.0719 0.37349,-0.063 0.45182,0.0196 0.0783,0.0827 -0.0609,0.14149 -0.3094,0.13069 -0.27461,-0.0119 -0.33047,-0.0709 -0.14242,-0.15033 z m 23.20915,-0.002 c 0.22935,-0.0631 0.54759,-0.0589 0.70719,0.009 0.15959,0.0682 -0.0281,0.11977 -0.41702,0.1147 -0.38895,-0.005 -0.51953,-0.0608 -0.29017,-0.12392 z M 35.351601,118.44956 c 1.004799,-0.0466 2.649015,-0.0466 3.653813,0 1.004799,0.0466 0.182691,0.0848 -1.826906,0.0848 -2.009597,0 -2.831705,-0.0382 -1.826907,-0.0848 z m 9.792028,4.7e-4 c 0.815402,-0.0487 2.088343,-0.0483 2.828758,9e-4 0.740415,0.0492 0.07327,0.0891 -1.482549,0.0886 -1.555818,-4.9e-4 -2.161612,-0.0408 -1.346209,-0.0895 z m 8.477037,2.6e-4 c 0.810321,-0.0486 2.136302,-0.0486 2.946623,0 0.810322,0.0486 0.147332,0.0883 -1.473311,0.0883 -1.620643,0 -2.283633,-0.0398 -1.473312,-0.0883 z m 76.626944,-3.46923 c 0.17016,-0.0719 0.37348,-0.063 0.45181,0.0196 0.0783,0.0827 -0.0609,0.14149 -0.30939,0.13068 -0.27462,-0.0119 -0.33047,-0.0709 -0.14242,-0.15033 z m -97.31224,-0.94971 c 0.304503,-0.34213 0.606681,-0.62205 0.671507,-0.62205 0.06483,0 -0.131274,0.27992 -0.435777,0.62205 -0.304503,0.34213 -0.606681,0.62205 -0.671507,0.62205 -0.06482,0 0.131274,-0.27992 0.435777,-0.62205 z"
         id="path8" /><path
         style="fill:#1a1363"
         d="m 44.250404,153.33171 c -3.508955,-0.79424 -7.271945,-2.72669 -9.551424,-4.90503 l -1.158206,-1.10682 3.969796,-4.07886 c 2.737698,-2.81291 4.161882,-4.10435 4.588693,-4.16099 0.848584,-0.11261 1.679681,-0.98987 1.679681,-1.77298 0,-0.46004 0.396206,-1.06251 1.362557,-2.07188 l 1.362557,-1.42321 1.354707,1.44501 c 0.745089,0.79476 1.284523,1.51909 1.198742,1.60964 -0.08578,0.0905 -0.02651,0.49452 0.131717,0.89772 0.281639,0.71769 1.51774,1.50822 1.834881,1.17347 0.08698,-0.0918 1.940337,1.71179 4.11857,4.00799 4.959575,5.22818 4.757586,5.24333 4.848421,-0.3637 0.05108,-3.15329 0.13768,-4.05504 0.412527,-4.29581 0.452133,-0.39608 0.448443,-1.83651 -0.0057,-2.23437 -0.53651,-0.46999 -0.511678,-6.37016 0.02947,-7.00132 0.210683,-0.24573 0.383061,-0.73412 0.383061,-1.08532 0,-0.35119 -0.172378,-0.83959 -0.383061,-1.08532 -0.303652,-0.35416 -0.383061,-1.00197 -0.383061,-3.12496 0,-2.30142 0.06632,-2.76718 0.47146,-3.31082 0.599296,-0.80419 0.595128,-1.32776 -0.01711,-2.14931 -0.553027,-0.7421 -1.629432,-0.88653 -2.104459,-0.28238 -0.232784,0.29607 -0.915121,0.37323 -3.300218,0.37323 -2.385097,0 -3.067435,-0.0772 -3.300218,-0.37323 -0.37912,-0.48217 -1.742449,-0.48217 -2.121569,0 -0.427702,0.54397 -5.937005,0.54397 -6.364707,0 -0.379119,-0.48217 -1.742449,-0.48217 -2.121568,0 -0.236894,0.30129 -0.972435,0.37323 -3.816039,0.37323 -3.434265,0 -4.434507,0.18504 -4.434507,0.82034 0,0.16785 1.687003,2.08326 3.748896,4.25646 2.483116,2.61716 3.792475,4.18126 3.877967,4.63246 0.16409,0.86601 0.749219,1.48763 1.4003,1.48763 0.306213,0 1.093569,0.61342 1.986853,1.54792 l 1.479641,1.54792 -1.348054,1.43792 c -0.87343,0.93165 -1.541167,1.43791 -1.896541,1.43791 -0.704763,0 -1.705706,1.05357 -1.705706,1.79538 0,0.41097 -1.128615,1.76364 -3.97535,4.76455 l -3.97535,4.19065 -0.916044,-1.14519 c -3.546292,-4.43341 -5.458207,-11.2485 -4.809079,-17.14215 0.598054,-5.42994 2.521549,-9.73931 6.116294,-13.70286 2.701879,-2.97908 5.893016,-5.0202 9.848862,-6.29955 1.867528,-0.60398 2.443329,-0.67157 5.843347,-0.68593 3.221919,-0.0136 4.063738,0.0671 5.775382,0.55395 9.572777,2.72267 16.489797,12.13446 16.496213,22.44594 0.0018,2.82787 -0.330852,4.86218 -1.27183,7.77872 -2.500316,7.74969 -8.721931,13.50767 -16.477376,15.2495 -2.020104,0.45371 -6.827136,0.43988 -8.883391,-0.0256 z m 11.020371,-12.489 c -2.295716,-2.42927 -3.005556,-3.33209 -3.005556,-3.82264 0,-0.78834 -0.665687,-1.46582 -1.44032,-1.46582 -0.391508,0 -1.013408,-0.46428 -1.926481,-1.43821 l -1.34834,-1.43822 1.355719,-1.39301 c 0.745645,-0.76615 1.640016,-1.46275 1.987492,-1.54799 0.820286,-0.20123 1.37193,-0.7971 1.37193,-1.48191 0,-0.36817 0.996784,-1.59546 3.064489,-3.77313 l 3.064488,-3.22748 v 2.64076 c 0,2.04379 -0.07993,2.71077 -0.353595,2.9505 -0.194477,0.17037 -0.353595,0.67423 -0.353595,1.11969 0,0.44547 0.159118,0.94933 0.353595,1.11969 0.280487,0.24571 0.353595,0.96594 0.353595,3.48348 0,2.51754 -0.07311,3.23776 -0.353595,3.48347 -0.459171,0.40224 -0.454352,1.70945 0.0083,2.24905 0.287652,0.3355 0.348097,0.96569 0.294662,3.07213 l -0.06722,2.65004 z m 30.559724,1.077 c -3.589811,-0.86828 -5.515828,-3.08166 -5.512111,-6.33453 0.002,-1.74354 0.380924,-2.83971 1.406976,-4.0701 1.708341,-2.04854 5.172021,-3.02339 8.789256,-2.47373 1.068398,0.16235 2.248093,0.36639 2.621544,0.45342 l 0.679003,0.15823 -0.104949,-1.53147 c -0.1952,-2.84846 -1.57792,-3.89231 -5.142599,-3.88227 -2.044941,0.006 -2.388974,0.0797 -3.961261,0.85172 l -1.721826,0.84541 -0.566623,-0.60289 c -0.311642,-0.3316 -0.7321,-1.02398 -0.93435,-1.53864 l -0.367727,-0.93573 1.112422,-0.74465 c 3.20661,-2.14649 7.62357,-2.68537 11.337746,-1.38321 2.238928,0.78495 3.993531,2.9519 4.507412,5.5667 0.148677,0.75652 0.259131,4.00632 0.259131,7.62419 v 6.30563 l -0.976869,0.41257 c -3.128769,1.32141 -8.680915,1.94311 -11.425175,1.27935 z m 6.732925,-3.64906 1.190252,-0.26944 v -2.46062 -2.46063 l -1.315074,-0.40353 c -0.921645,-0.28281 -1.974487,-0.37794 -3.519227,-0.31798 -2.574788,0.0999 -3.328886,0.51326 -3.866923,2.11946 -0.302007,0.90158 -0.291097,1.08375 0.117864,1.96802 0.665345,1.43863 2.035963,2.09416 4.378568,2.09416 1.003358,0 2.359901,-0.12125 3.01454,-0.26944 z m 18.222006,3.62441 c -4.75496,-1.0903 -7.60256,-5.12785 -7.60256,-10.77953 0,-4.99117 2.52795,-8.91902 6.78122,-10.53645 1.02557,-0.39 1.91991,-0.51394 3.70876,-0.51394 2.93673,0 4.37475,0.47325 6.67581,2.19698 0.18248,0.13669 -0.92082,2.03456 -1.54853,2.66372 l -0.69127,0.69287 -1.25457,-0.68703 c -1.82054,-0.99698 -3.99108,-1.09489 -5.72263,-0.25814 -2.1571,1.04239 -3.27353,3.16686 -3.29893,6.27755 -0.018,2.19897 0.34516,3.55427 1.30874,4.88477 1.15174,1.59032 2.45131,2.20659 4.65321,2.20659 1.57763,0 2.00583,-0.10353 3.26637,-0.78974 l 1.45073,-0.78974 0.69308,0.70088 c 0.38119,0.38549 0.86986,1.09412 1.08593,1.57474 0.38456,0.8554 0.38106,0.88355 -0.16592,1.33311 -2.3169,1.90425 -5.91936,2.60757 -9.33944,1.82336 z m 21.86367,0.22032 c -2.47603,-0.50006 -4.10135,-1.60902 -5.02314,-3.42732 -0.48312,-0.95298 -0.52413,-1.43703 -0.63437,-7.48815 l -0.11787,-6.46931 -1.69,-0.0727 -1.69,-0.0727 -0.15287,-0.95507 c -0.0841,-0.52529 -0.0808,-1.36033 0.007,-1.85565 l 0.16006,-0.90059 h 1.74174 1.74174 v -2.83317 -2.83318 l 1.0384,-0.16436 c 0.57112,-0.0904 1.57887,-0.0887 2.23944,0.004 l 1.20102,0.16817 v 2.82937 2.82937 h 3.74545 3.74544 l 0.16006,0.90059 c 0.088,0.49532 0.091,1.33229 0.007,1.85993 l -0.15355,0.95935 -3.69302,0.0684 -3.69302,0.0684 -0.0633,5.49255 c -0.062,5.37302 -0.0515,5.51102 0.47853,6.34128 0.29803,0.46679 0.80388,0.98866 1.12412,1.1597 0.97997,0.52341 2.84466,0.38931 4.12884,-0.29693 l 1.15134,-0.61524 0.50876,0.50449 c 0.27981,0.27747 0.70336,0.96002 0.94122,1.51677 l 0.43245,1.01228 -0.62663,0.56894 c -1.31381,1.19284 -5.04745,2.09821 -7.01452,1.70094 z m 18.38693,-0.19284 c -2.69205,-0.63982 -4.52932,-1.93165 -5.87669,-4.13205 -1.31829,-2.15292 -1.75415,-4.1147 -1.62025,-7.29267 0.098,-2.3246 0.19569,-2.78717 0.93609,-4.43024 1.04877,-2.32738 2.58362,-4.00659 4.54989,-4.97781 3.88242,-1.91769 8.45458,-1.16963 11.10053,1.81618 1.75313,1.97831 2.54702,4.7534 2.28373,7.98293 l -0.11664,1.43072 h -7.15468 -7.15468 l 0.15107,0.80866 c 0.22865,1.22402 0.69439,2.28033 1.39031,3.15333 1.87867,2.35664 5.99717,2.64897 9.14372,0.649 l 1.32052,-0.83933 0.80638,0.99438 c 1.02623,1.2655 1.2539,2.13275 0.68253,2.59993 -0.96224,0.78676 -3.35758,1.86705 -4.90217,2.21087 -1.96632,0.43769 -3.77208,0.4462 -5.53966,0.0261 z m 6.89819,-13.68233 c -0.0767,-1.33109 -0.7189,-2.58968 -1.77468,-3.47803 -1.13467,-0.95472 -3.17111,-1.18694 -4.76706,-0.5436 -1.63719,0.65997 -3.18521,2.8422 -3.18521,4.49019 v 0.63509 l 4.8914,-0.0673 4.89139,-0.0673 z m 16.78817,13.68378 c -5.19788,-1.25789 -7.89246,-4.87537 -7.89246,-10.59563 0,-5.66643 3.01494,-9.77466 8.03864,-10.95366 1.30392,-0.30602 5.00517,-0.22568 6.39982,0.13892 l 0.64826,0.16946 v -4.26828 -4.26827 l 2.1805,0.0715 2.1805,0.0715 0.0609,13.97746 0.0609,13.97746 -1.34138,0.52974 c -3.29479,1.3012 -7.68962,1.79007 -10.33565,1.14972 z m 6.5502,-4.33673 0.65246,-0.28232 -0.0631,-6.03835 -0.0631,-6.03835 -0.89444,-0.4612 c -1.30041,-0.67053 -4.40061,-0.66857 -5.82651,0.004 -2.41607,1.13909 -3.6421,3.30004 -3.64764,6.42918 -0.003,1.67676 0.0996,2.21218 0.65056,3.39642 0.69438,1.49251 1.73254,2.49972 3.17735,3.08263 1.03441,0.41733 4.97703,0.35723 6.01449,-0.0917 z M 45.127281,130.1355 c -1.05118,-1.12125 -1.348337,-1.60635 -1.348337,-2.2011 0,-0.93934 -0.634034,-1.58648 -1.554343,-1.58648 -0.572042,0 -1.202314,-0.53977 -3.631714,-3.11024 l -2.939549,-3.11025 h 2.648424 c 1.456633,0 2.648424,0.10102 2.648424,0.22448 0,0.69127 2.064178,0.72625 2.464954,0.0418 0.09685,-0.16542 1.237261,-0.26626 3.011116,-0.26626 2.304779,0 2.936818,0.078 3.278495,0.40433 0.232802,0.22239 0.695503,0.40434 1.028224,0.40434 0.332721,0 0.795422,-0.18195 1.028225,-0.40434 0.336254,-0.3212 0.951847,-0.40433 2.994207,-0.40433 h 2.57093 l -2.939549,3.11025 c -2.536378,2.68366 -3.042764,3.11024 -3.692099,3.11024 -0.910005,0 -1.826791,1.05067 -1.631915,1.87024 0.09438,0.39693 -0.202922,0.86518 -1.231367,1.93941 l -1.35579,1.41614 z"
         id="path7" /></g></g></svg>
