<?xml version="1.0" encoding="UTF-8" standalone="no"?>
<!-- Created with Inkscape (http://www.inkscape.org/) -->

<svg
   width="210mm"
   height="297mm"
   viewBox="0 0 210 297"
   version="1.1"
   id="svg1"
   xml:space="preserve"
   sodipodi:docname="kaa.svg"
   inkscape:version="1.3.1 (9b9bdc1480, 2023-11-25, custom)"
   xmlns:inkscape="http://www.inkscape.org/namespaces/inkscape"
   xmlns:sodipodi="http://sodipodi.sourceforge.net/DTD/sodipodi-0.dtd"
   xmlns="http://www.w3.org/2000/svg"
   xmlns:svg="http://www.w3.org/2000/svg"><sodipodi:namedview
     id="namedview1"
     pagecolor="#ffffff"
     bordercolor="#000000"
     borderopacity="0.25"
     inkscape:showpageshadow="2"
     inkscape:pageopacity="0.0"
     inkscape:pagecheckerboard="0"
     inkscape:deskcolor="#d1d1d1"
     inkscape:document-units="mm"
     inkscape:zoom="0.72693603"
     inkscape:cx="396.87124"
     inkscape:cy="561.25984"
     inkscape:window-width="1845"
     inkscape:window-height="1016"
     inkscape:window-x="75"
     inkscape:window-y="27"
     inkscape:window-maximized="1"
     inkscape:current-layer="layer1" /><defs
     id="defs1" /><g
     inkscape:label="Layer 1"
     inkscape:groupmode="layer"
     id="layer1"><g
       id="g13"
       transform="matrix(2.2311205,0,0,2.374732,-502.3744,-63.212917)"><g
         id="g12"><g
           id="g11"><g
             id="g10"><g
               id="g9"><g
                 id="g8"><g
                   id="g7"><g
                     id="g1"
                     transform="translate(188.90067,-18.163963)"><path
                       style="fill:#fbe49d"
                       d="m 56.41454,128.54881 c -0.218282,-0.14106 -0.277813,-0.25648 -0.132292,-0.25648 0.145521,0 0.443177,0.11542 0.661458,0.25648 0.218282,0.14107 0.277813,0.25648 0.132292,0.25648 -0.145521,0 -0.443177,-0.11541 -0.661458,-0.25648 z m -2.264535,-1.20522 c -0.49319,-0.39513 -0.489943,-0.40001 0.08172,-0.12298 0.327422,0.15867 0.595313,0.34383 0.595313,0.41147 0,0.20246 -0.137215,0.14399 -0.677035,-0.28849 z m -2.002548,-1.37447 c -0.329107,-0.41964 -0.319749,-0.429 0.09989,-0.0999 0.254662,0.19972 0.463021,0.40808 0.463021,0.46302 0,0.21776 -0.217272,0.0776 -0.562916,-0.36313 z m -2.091956,-1.85208 -1.44617,-1.52135 1.521354,1.44617 c 0.836745,0.79539 1.521355,1.48 1.521355,1.52135 0,0.19639 -0.253001,-0.0328 -1.596539,-1.44617 z m 25.610561,0.54047 c 0.329118,-0.0633 0.805368,-0.0609 1.058333,0.005 0.252965,0.0662 -0.01631,0.11801 -0.598397,0.11507 -0.582083,-0.003 -0.789055,-0.0571 -0.459936,-0.12041 z m 8.860457,-0.006 c 0.545703,-0.0571 1.438672,-0.0571 1.984375,0 0.545703,0.0571 0.09922,0.10379 -0.992188,0.10379 -1.091406,0 -1.53789,-0.0467 -0.992187,-0.10379 z m -11.641667,-0.25422 c 0.254662,-0.0665 0.67138,-0.0665 0.926042,0 0.254661,0.0666 0.0463,0.121 -0.463021,0.121 -0.509323,0 -0.717682,-0.0545 -0.463021,-0.121 z m 16.139583,0 c 0.254662,-0.0665 0.671381,-0.0665 0.926042,0 0.254662,0.0666 0.0463,0.121 -0.463021,0.121 -0.509323,0 -0.717682,-0.0545 -0.463021,-0.121 z m -18.123958,-0.25743 c 0.181901,-0.0734 0.479557,-0.0734 0.661458,0 0.181901,0.0734 0.03307,0.13345 -0.330729,0.13345 -0.363802,0 -0.51263,-0.0601 -0.330729,-0.13345 z m -1.835547,-0.2701 c 0.190996,-0.0764 0.419199,-0.067 0.507118,0.0209 0.08792,0.0879 -0.06835,0.15045 -0.347265,0.13897 -0.308225,-0.0127 -0.37092,-0.0754 -0.159853,-0.15986 z m -1.5875,-0.26458 c 0.190996,-0.0764 0.419199,-0.067 0.507118,0.0209 0.08792,0.0879 -0.06835,0.15045 -0.347265,0.13896 -0.308225,-0.0127 -0.37092,-0.0754 -0.159853,-0.15985 z m 42.38294,-0.19752 c 0,-0.0728 0.23813,-0.25973 0.52917,-0.41549 0.29104,-0.15576 0.52917,-0.22367 0.52917,-0.15091 0,0.0728 -0.23813,0.25973 -0.52917,0.41549 -0.29104,0.15577 -0.52917,0.22367 -0.52917,0.15091 z m -62.322087,-2.55674 c -0.232748,-0.45009 -0.376207,-0.86531 -0.318798,-0.92272 0.05741,-0.0574 0.302388,0.31084 0.544396,0.81834 0.544137,1.14106 0.355603,1.2283 -0.225598,0.10438 z m 65.497087,0.71844 c 0,-0.0549 0.20836,-0.2633 0.46302,-0.46302 0.41965,-0.32911 0.42901,-0.31975 0.0999,0.0999 -0.34565,0.44073 -0.56292,0.58089 -0.56292,0.36313 z m 1.05834,-0.79375 c 0,-0.0549 0.20836,-0.2633 0.46302,-0.46302 0.41964,-0.32911 0.429,-0.31975 0.0999,0.0999 -0.34564,0.44073 -0.56291,0.58089 -0.56291,0.36313 z m 1.5875,-1.35531 c 0.34177,-0.36381 0.68094,-0.66146 0.7537,-0.66146 0.0728,0 -0.14735,0.29765 -0.48912,0.66146 -0.34177,0.3638 -0.68094,0.66145 -0.7537,0.66145 -0.0728,0 0.14734,-0.29765 0.48912,-0.66145 z m -59.159517,-0.19844 -0.504028,-0.59531 0.595312,0.50402 c 0.559447,0.47367 0.715762,0.6866 0.504028,0.6866 -0.05021,0 -0.318097,-0.26789 -0.595312,-0.59531 z m -9.85496,-0.99219 c 0,-0.3638 0.06005,-0.51263 0.133452,-0.33073 0.0734,0.1819 0.0734,0.47956 0,0.66146 -0.0734,0.1819 -0.133452,0.0331 -0.133452,-0.33073 z m 70.072807,0.4564 c 0,-0.04 0.92273,-0.96276 2.05052,-2.05052 l 2.05052,-1.97775 -1.97775,2.05052 c -1.8369,1.90448 -2.12329,2.17124 -2.12329,1.97775 z m -62.739999,-1.97775 c -0.329108,-0.41965 -0.319749,-0.42901 0.09989,-0.0999 0.254662,0.19972 0.463021,0.40808 0.463021,0.46302 0,0.21776 -0.217272,0.0776 -0.562915,-0.36312 z m -7.323005,-2.84427 c 0.0054,-0.43657 0.06469,-0.58313 0.131774,-0.3257 0.06708,0.25743 0.06267,0.61462 -0.0098,0.79375 -0.07248,0.17913 -0.127362,-0.0315 -0.12197,-0.46805 z m 74.431614,0.0326 c 0.25011,-0.38172 0.50478,-0.69403 0.56592,-0.69403 0.19139,0 -0.42463,1.0197 -0.73006,1.20846 -0.15984,0.0988 -0.086,-0.13271 0.16414,-0.51443 z M 52.752149,113.4672 c 0,-0.3638 0.06005,-0.51263 0.133452,-0.33073 0.0734,0.1819 0.0734,0.47956 0,0.66146 -0.0734,0.1819 -0.133452,0.0331 -0.133452,-0.33073 z m 67.956141,-0.0999 c 0,-0.055 0.20836,-0.26331 0.46302,-0.46302 0.41964,-0.32911 0.429,-0.31975 0.0999,0.0999 -0.34565,0.44073 -0.56292,0.58089 -0.56292,0.36313 z m -73.281481,-2.41365 c 0,-0.14552 0.115416,-0.44318 0.256481,-0.66146 0.141064,-0.21828 0.25648,-0.27781 0.25648,-0.13229 0,0.14552 -0.115416,0.44318 -0.25648,0.66146 -0.141065,0.21828 -0.256481,0.27781 -0.256481,0.13229 z m 5.304452,-0.28663 c 0.0127,-0.30823 0.07539,-0.37092 0.159853,-0.15985 0.07643,0.19099 0.06703,0.41919 -0.02089,0.50711 -0.08792,0.0879 -0.150452,-0.0684 -0.138964,-0.34726 z m -4.254221,-1.96233 c 0.15576,-0.29104 0.342732,-0.52917 0.415493,-0.52917 0.07276,0 0.0049,0.23813 -0.15091,0.52917 -0.155761,0.29104 -0.342733,0.52917 -0.415493,0.52917 -0.07276,0 -0.0049,-0.23813 0.15091,-0.52917 z m 5.820833,-1.85208 c 0.155761,-0.29104 0.342733,-0.52917 0.415493,-0.52917 0.07276,0 0.0049,0.23813 -0.15091,0.52917 -0.155761,0.29104 -0.342732,0.52916 -0.415493,0.52916 -0.07276,0 -0.0049,-0.23812 0.15091,-0.52916 z m -4.7625,0.16469 c 0,-0.0549 0.208359,-0.26331 0.463021,-0.46302 0.419644,-0.32911 0.429002,-0.31975 0.0999,0.0999 -0.345644,0.44073 -0.562916,0.58089 -0.562916,0.36313 z m 1.058333,-1.30582 c 0,-0.0455 0.386953,-0.43248 0.859896,-0.85989 l 0.859896,-0.77711 -0.777105,0.8599 c -0.724372,0.80154 -0.942687,0.98151 -0.942687,0.7771 z m 5.159375,-0.97554 c 0.263389,-0.29104 0.538421,-0.52917 0.611181,-0.52917 0.07276,0 -0.08321,0.23813 -0.346597,0.52917 -0.263389,0.29104 -0.538421,0.52917 -0.611181,0.52917 -0.07276,0 0.08321,-0.23813 0.346597,-0.52917 z m 1.455209,-1.71979 c 0.341774,-0.3638 0.680939,-0.66146 0.753699,-0.66146 0.07276,0 -0.147342,0.29766 -0.489116,0.66146 -0.341774,0.3638 -0.680939,0.66146 -0.7537,0.66146 -0.07276,0 0.147342,-0.29766 0.489117,-0.66146 z m 2.116666,-1.85208 c 0.341775,-0.36381 0.680939,-0.66146 0.7537,-0.66146 0.07276,0 -0.147342,0.29765 -0.489116,0.66146 -0.341775,0.3638 -0.680939,0.66145 -0.7537,0.66145 -0.07276,0 0.147342,-0.29765 0.489116,-0.66145 z m 1.455209,-1.190629 c 0.263389,-0.291042 0.53842,-0.529167 0.611181,-0.529167 0.07276,0 -0.08321,0.238125 -0.346598,0.529167 -0.263389,0.291039 -0.538421,0.529169 -0.611181,0.529169 -0.07276,0 0.08321,-0.23813 0.346598,-0.529169 z m 0.926041,-0.629061 c 0,-0.05494 0.20836,-0.263302 0.463021,-0.463021 0.419644,-0.329108 0.429002,-0.319749 0.0999,0.09989 -0.345644,0.440729 -0.562916,0.580887 -0.562916,0.363126 z M 62.76454,98.551 c 0,-0.05494 0.208359,-0.263302 0.46302,-0.463021 0.419644,-0.329108 0.429003,-0.319749 0.0999,0.09989 -0.345643,0.440729 -0.562915,0.580887 -0.562915,0.363126 z m 1.058333,-0.807529 c 0,-0.07276 0.238125,-0.259732 0.529167,-0.415493 0.291041,-0.155761 0.529166,-0.22367 0.529166,-0.15091 0,0.07276 -0.238125,0.259732 -0.529166,0.415493 -0.291042,0.155761 -0.529167,0.22367 -0.529167,0.15091 z m 1.322917,-0.79375 c 0,-0.07276 0.238125,-0.259732 0.529166,-0.415493 0.291042,-0.155761 0.529167,-0.22367 0.529167,-0.15091 0,0.07276 -0.238125,0.259732 -0.529167,0.415493 -0.291041,0.155761 -0.529166,0.22367 -0.529166,0.15091 z m 19.322686,-1.076952 c 0,-0.14552 0.115416,-0.443177 0.25648,-0.661458 0.141064,-0.218281 0.256481,-0.277812 0.256481,-0.132291 0,0.14552 -0.115417,0.443177 -0.256481,0.661458 -0.141064,0.218281 -0.25648,0.277812 -0.25648,0.132291 z m -14.03102,-1.719791 c 0.218282,-0.141064 0.515938,-0.25648 0.661459,-0.25648 0.14552,0 0.08599,0.115416 -0.132292,0.25648 -0.218281,0.141064 -0.515938,0.25648 -0.661458,0.25648 -0.145521,0 -0.08599,-0.115416 0.132291,-0.25648 z M 85.526809,93.49152 c 0,-0.145521 0.115416,-0.443178 0.256481,-0.661459 0.141064,-0.218281 0.25648,-0.277812 0.25648,-0.132291 0,0.14552 -0.115416,0.443177 -0.25648,0.661458 -0.141065,0.218281 -0.256481,0.277812 -0.256481,0.132292 z m -1.045548,-1.344966 c 0.0127,-0.308224 0.07539,-0.370919 0.159853,-0.159852 0.07643,0.190996 0.06703,0.419199 -0.02089,0.507118 -0.08792,0.08792 -0.150452,-0.06835 -0.138963,-0.347266 z m 1.839298,-0.507118 c 0,-0.145521 0.115416,-0.443177 0.256481,-0.661458 0.141064,-0.218281 0.25648,-0.277813 0.25648,-0.132292 0,0.145521 -0.115416,0.443177 -0.25648,0.661459 -0.141065,0.218281 -0.256481,0.277812 -0.256481,0.132291 z m -1.574715,-0.551215 c 0.0127,-0.308225 0.07539,-0.370919 0.159853,-0.159853 0.07643,0.190997 0.06703,0.4192 -0.02089,0.507119 -0.08792,0.08792 -0.150453,-0.06835 -0.138965,-0.347266 z M 79.285422,90.03734 c -0.49319,-0.395127 -0.489944,-0.400012 0.08172,-0.122982 0.327422,0.158668 0.595312,0.34383 0.595312,0.411471 0,0.202464 -0.137215,0.143996 -0.677034,-0.288489 z m 0.963666,0.311009 c 0.269901,-0.245955 2.888368,-1.482189 2.888368,-1.36366 0,0.149181 -2.526762,1.464122 -2.813426,1.464122 -0.101852,0 -0.135575,-0.04521 -0.07494,-0.100462 z m 4.644771,-0.296413 c -0.08376,-0.218281 -0.03697,-0.396875 0.103984,-0.396875 0.140954,0 0.25628,0.178594 0.25628,0.396875 0,0.218281 -0.04679,0.396875 -0.103984,0.396875 -0.05719,0 -0.172517,-0.178594 -0.25628,-0.396875 z m -1.155525,-1.479515 c 0.257722,-0.15004 0.389083,-0.41431 0.291913,-0.587267 -0.112385,-0.200041 -0.04301,-0.190115 0.190661,0.02728 0.312844,0.291053 0.30879,0.378759 -0.02733,0.591261 -0.217065,0.137233 -0.513726,0.247717 -0.659247,0.24552 -0.145521,-0.0022 -0.05372,-0.126754 0.204003,-0.276793 z m 4.161622,-0.240276 c 0.218282,-0.141065 0.515938,-0.256481 0.661459,-0.256481 0.14552,0 0.08599,0.115416 -0.132292,0.256481 -0.218281,0.141064 -0.515938,0.25648 -0.661458,0.25648 -0.145521,0 -0.08599,-0.115416 0.132291,-0.25648 z m -5.060832,-1.256771 c -0.329108,-0.419644 -0.319749,-0.429003 0.0999,-0.09989 0.440729,0.345644 0.580887,0.562916 0.363126,0.562916 -0.05494,0 -0.263302,-0.20836 -0.463021,-0.463021 z m 8.257881,-0.146225 c 0.06063,-0.04404 0.46743,-0.289235 0.903993,-0.54487 l 0.79375,-0.464791 -0.624624,0.54487 c -0.343543,0.299678 -0.75034,0.54487 -0.903993,0.54487 -0.153653,0 -0.22976,-0.03604 -0.169126,-0.08008 z m -9.316214,-0.647525 c -0.329108,-0.419644 -0.319749,-0.429003 0.09989,-0.09989 0.254662,0.199719 0.463021,0.408079 0.463021,0.463021 0,0.217761 -0.217272,0.0776 -0.562915,-0.363126 z m 2.944165,-0.06615 c -0.218281,-0.141064 -0.277812,-0.25648 -0.132291,-0.25648 0.14552,0 0.443177,0.115416 0.661458,0.25648 0.218281,0.141064 0.277812,0.25648 0.132292,0.25648 -0.145521,0 -0.443177,-0.115416 -0.661459,-0.25648 z M 80.457874,85.22329 c -0.329108,-0.419643 -0.319749,-0.429002 0.09989,-0.09989 0.440729,0.345643 0.580887,0.562915 0.363126,0.562915 -0.05494,0 -0.263302,-0.208359 -0.463021,-0.463021 z m 11.344686,0.287793 c 0.181901,-0.0734 0.479558,-0.0734 0.661459,0 0.181901,0.0734 0.03307,0.133452 -0.330729,0.133452 -0.363802,0 -0.512631,-0.06005 -0.33073,-0.133452 z M 79.399541,84.42954 c -0.329108,-0.419643 -0.319749,-0.429002 0.09989,-0.09989 0.44073,0.345643 0.580888,0.562915 0.363126,0.562915 -0.05494,0 -0.263301,-0.208359 -0.46302,-0.463021 z"
                       id="path7" /><path
                       style="fill:#b1cadf"
                       d="m 84.791102,140.26555 c 0.400182,-0.0606 1.055026,-0.0606 1.455208,0 0.400183,0.0606 0.07276,0.11022 -0.727604,0.11022 -0.800364,0 -1.127786,-0.0496 -0.727604,-0.11022 z m 24.275518,-9.73236 c 0.79043,-0.80037 1.49667,-1.45521 1.56943,-1.45521 0.0728,0 -0.51442,0.65484 -1.30484,1.45521 -0.79043,0.80036 -1.49667,1.4552 -1.56943,1.4552 -0.0728,0 0.51442,-0.65484 1.30484,-1.4552 z m -46.851272,0.46302 -0.641433,-0.72761 0.727604,0.64144 c 0.680055,0.59951 0.848939,0.81377 0.641433,0.81377 -0.04739,0 -0.374816,-0.32742 -0.727604,-0.7276 z m 15.564296,-6.59138 c 0.181901,-0.0734 0.479557,-0.0734 0.661458,0 0.181901,0.0734 0.03307,0.13345 -0.330729,0.13345 -0.363802,0 -0.51263,-0.0601 -0.330729,-0.13345 z m 10.054166,0 c 0.181901,-0.0734 0.479558,-0.0734 0.661459,0 0.181901,0.0734 0.03307,0.13345 -0.330729,0.13345 -0.363802,0 -0.512631,-0.0601 -0.33073,-0.13345 z m -5.948089,-11.38521 c 0.257431,-0.0671 0.614618,-0.0627 0.79375,0.01 0.179131,0.0725 -0.03149,0.12736 -0.468056,0.12197 -0.436563,-0.005 -0.583125,-0.0647 -0.325694,-0.13178 z m 6.978148,-0.02 c -0.06911,-0.11182 0.340584,-0.15884 0.910427,-0.1045 0.569842,0.0543 1.036077,0.14583 1.036077,0.20331 0,0.19707 -1.820761,0.10465 -1.946504,-0.0988 z m 3.869769,0.02 c 0.257431,-0.0671 0.614618,-0.0627 0.79375,0.01 0.179131,0.0725 -0.03149,0.12736 -0.468057,0.12197 -0.436562,-0.005 -0.583124,-0.0647 -0.325693,-0.13178 z m 8.461632,9.7e-4 c 0.25466,-0.0665 0.67138,-0.0665 0.92604,0 0.25466,0.0666 0.0463,0.121 -0.46302,0.121 -0.50932,0 -0.71768,-0.0544 -0.46302,-0.121 z m 2.84427,-0.0364 c 0,-0.12032 0.35719,-0.16634 0.79375,-0.10226 0.43656,0.0641 0.79375,0.16251 0.79375,0.21876 0,0.0562 -0.35719,0.10226 -0.79375,0.10226 -0.43656,0 -0.79375,-0.0984 -0.79375,-0.21876 z m 9.06701,0.0354 c 0.25744,-0.0671 0.61462,-0.0627 0.79375,0.01 0.17914,0.0725 -0.0315,0.12736 -0.46805,0.12197 -0.43656,-0.005 -0.58313,-0.0647 -0.3257,-0.13178 z m 5.77054,-2.8814 c 0.0127,-0.30822 0.0754,-0.37092 0.15986,-0.15985 0.0764,0.19099 0.067,0.4192 -0.0209,0.50712 -0.0879,0.0879 -0.15045,-0.0683 -0.13897,-0.34727 z m -22.700921,-0.56963 c 0.695615,-0.0547 1.767177,-0.054 2.38125,10e-4 0.614072,0.0555 0.04493,0.10023 -1.264754,0.0994 -1.309688,-8.1e-4 -1.812111,-0.0462 -1.116496,-0.10089 z m 11.906251,0 c 0.69561,-0.0547 1.76718,-0.054 2.38125,10e-4 0.61407,0.0555 0.0449,0.10023 -1.26476,0.0994 -1.30968,-8.1e-4 -1.81211,-0.0462 -1.11649,-0.10089 z m -24.415797,-1.2604 c 0.493655,-0.50933 0.957086,-0.92605 1.029847,-0.92605 0.07276,0 -0.271609,0.41672 -0.765264,0.92605 -0.493655,0.50932 -0.957086,0.92604 -1.029846,0.92604 -0.07276,0 0.271608,-0.41672 0.765263,-0.92604 z m 4.497917,-4.18384 c 0,-0.0455 0.386953,-0.43248 0.859895,-0.85989 l 0.859896,-0.77711 -0.777105,0.8599 c -0.724371,0.80154 -0.942686,0.98151 -0.942686,0.7771 z m -36.227029,-0.8653 c 0.0127,-0.30822 0.07539,-0.37092 0.159853,-0.15985 0.07643,0.191 0.06703,0.4192 -0.02089,0.50712 -0.08792,0.0879 -0.150452,-0.0683 -0.138964,-0.34727 z m 66.939579,0 c 0.0127,-0.30822 0.0754,-0.37092 0.15986,-0.15985 0.0764,0.191 0.067,0.4192 -0.0209,0.50712 -0.0879,0.0879 -0.15045,-0.0683 -0.13897,-0.34727 z m -59.28755,-1.03628 c 0.341774,-0.3638 0.680939,-0.66146 0.753699,-0.66146 0.07276,0 -0.147342,0.29766 -0.489116,0.66146 -0.341774,0.3638 -0.680939,0.66146 -0.7537,0.66146 -0.07276,0 0.147342,-0.29766 0.489117,-0.66146 z m 19.070888,-9.017882 c 0.0127,-0.308225 0.07539,-0.37092 0.159852,-0.159853 0.07643,0.190996 0.06703,0.419199 -0.02089,0.507118 -0.08792,0.08792 -0.150453,-0.06835 -0.138964,-0.347265 z m -4.254222,-0.357746 c 0,-0.209618 1.368219,-0.585073 1.534861,-0.421183 0.04381,0.04308 -0.283614,0.204972 -0.727605,0.359748 -0.443991,0.154776 -0.807256,0.182422 -0.807256,0.06144 z M 77.5759,89.780959 c -0.184076,-0.221798 -0.283444,-0.454508 -0.220819,-0.517134 0.06263,-0.06263 0.259195,0.118845 0.436821,0.403269 0.384125,0.615083 0.256018,0.682614 -0.216002,0.113865 z m 34.10281,-4.028502 c -0.32911,-0.419644 -0.31975,-0.429002 0.0999,-0.0999 0.44073,0.345644 0.58089,0.562916 0.36313,0.562916 -0.0549,0 -0.2633,-0.208359 -0.46302,-0.463021 z M 61.441623,83.17277 c 0.790422,-0.800365 1.496663,-1.455209 1.569424,-1.455209 0.07276,0 -0.514418,0.654844 -1.304841,1.455209 -0.790422,0.800364 -1.496663,1.455208 -1.569423,1.455208 -0.07276,0 0.514417,-0.654844 1.30484,-1.455208 z m 47.615957,-0.33073 -1.44617,-1.521354 1.52136,1.44617 c 1.41339,1.343538 1.64256,1.596539 1.44617,1.596539 -0.0414,0 -0.72596,-0.68461 -1.52136,-1.521355 z M 81.235764,73.334737 c 0.190996,-0.07643 0.419199,-0.06703 0.507118,0.02089 0.08792,0.08792 -0.06835,0.150452 -0.347266,0.138964 -0.308225,-0.0127 -0.370919,-0.07539 -0.159852,-0.159854 z m 8.202083,0 c 0.190996,-0.07643 0.419199,-0.06703 0.507118,0.02089 0.08792,0.08792 -0.06835,0.150452 -0.347266,0.138964 -0.308224,-0.0127 -0.370919,-0.07539 -0.159852,-0.159854 z M 84.65881,73.059496 c 0.472943,-0.05869 1.246849,-0.05869 1.719792,0 0.472943,0.05869 0.08599,0.106712 -0.859896,0.106712 -0.945885,0 -1.332838,-0.04802 -0.859896,-0.106712 z"
                       id="path6" /><path
                       style="fill:#fcd561"
                       d="m 69.379123,131.56288 c -0.363802,-0.064 -1.792552,-0.29585 -3.175,-0.51522 -9.598728,-1.52321 -16.023918,-5.1942 -18.596224,-10.62484 -0.798438,-1.68565 -0.848983,-1.96641 -0.823474,-4.57401 0.02277,-2.32789 0.140559,-3.07232 0.72679,-4.5934 2.38838,-6.19709 8.93241,-11.638299 19.222075,-15.982704 3.766493,-1.590253 7.68614,-3.011501 8.008786,-2.903952 0.15719,0.0524 -0.657747,0.428393 -1.810972,0.835546 -7.020195,2.478526 -15.087127,8.21923 -18.099822,12.88046 -1.671821,2.58663 -2.192867,4.25457 -2.058342,6.58905 0.142026,2.46466 0.698722,3.60619 2.757137,5.65362 2.727815,2.71325 7.533971,4.63225 14.510504,5.79374 4.724829,0.78661 17.376212,0.847 22.092709,0.10546 10.31,-1.62097 20.56449,-5.33554 27.18594,-9.84778 1.34606,-0.91729 2.44739,-1.60834 2.44739,-1.53566 0,0.44209 -1.8193,2.62756 -3.60535,4.33102 -3.69846,3.52743 -6.07995,5.12615 -12.2064,8.19431 -5.24217,2.6253 -12.472438,4.81928 -18.848664,5.71951 -2.895879,0.40886 -16.092691,0.76236 -17.727083,0.47485 z M 85.588817,96.724785 c -0.470762,-0.177567 -0.878046,-0.420876 -0.905074,-0.540686 -0.02703,-0.119811 0.655796,-1.867717 1.517389,-3.884236 l 1.566533,-3.666398 2.38125,-1.142848 c 1.47255,-0.706729 2.413895,-1.319539 2.466796,-1.605868 0.123737,-0.669733 -0.448021,-0.586669 -2.974657,0.432153 l -2.219994,0.895174 -3.861593,-1.722475 c -2.123877,-0.947362 -3.861594,-1.862661 -3.861594,-2.033999 0,-0.60338 1.519405,-2.697918 2.539651,-3.500973 2.239739,-1.762942 3.159512,-2.070772 6.191599,-2.072209 2.459445,-0.0012 2.951016,0.07972 4.285323,0.705169 1.837993,0.861542 3.633812,2.60673 4.626319,4.495883 0.675572,1.285894 0.742103,1.660713 0.743793,4.190339 0.0016,2.462876 -0.07864,2.949871 -0.707517,4.291631 -0.876306,1.86967 -2.663744,3.643973 -4.657017,4.622794 -1.271655,0.624461 -1.892323,0.752154 -3.894026,0.801132 -1.378355,0.03373 -2.741737,-0.07771 -3.237181,-0.264583 z m -3.312164,-1.848139 c -0.546202,-0.470778 -1.282088,-1.254856 -1.635302,-1.742395 -1.00725,-1.390302 -0.655895,-1.859968 1.953439,-2.611218 1.205025,-0.346937 2.239154,-0.582596 2.298063,-0.523686 0.05891,0.05891 -0.08032,0.928279 -0.309403,1.931932 -0.677461,2.968099 -0.926296,3.809427 -1.125463,3.805263 -0.103531,-0.0022 -0.635132,-0.389118 -1.181334,-0.859896 z M 79.471,89.948089 c -0.538457,-0.406158 -0.599094,-0.673701 -0.594807,-2.624408 0.0071,-3.210898 0.05217,-3.231291 2.678031,-1.210454 1.23458,0.950122 2.348949,1.829213 2.476375,1.953537 0.12994,0.126775 -0.688714,0.68881 -1.864167,1.279816 -2.022912,1.0171 -2.116719,1.038034 -2.695432,0.601509 z"
                       id="path5" /><path
                       style="fill:#90b3d2"
                       d="m 86.775477,124.40483 c 0.181901,-0.0734 0.479557,-0.0734 0.661458,0 0.181901,0.0734 0.03307,0.13345 -0.330729,0.13345 -0.363802,0 -0.51263,-0.0601 -0.330729,-0.13345 z m 3.985287,-0.27009 c 0.190996,-0.0764 0.419199,-0.067 0.507118,0.0209 0.08792,0.0879 -0.06835,0.15045 -0.347266,0.13896 -0.308225,-0.0127 -0.370919,-0.0754 -0.159852,-0.15985 z m -7.798937,-13.04843 c 0,-1.09141 0.0467,-1.53789 0.103787,-0.99219 0.05708,0.54571 0.05708,1.43868 0,1.98438 -0.05708,0.5457 -0.103787,0.0992 -0.103787,-0.99219 z m 35.915263,-1.74184 c 0.0127,-0.30822 0.0754,-0.37092 0.15986,-0.15985 0.0764,0.19099 0.067,0.4192 -0.0209,0.50712 -0.0879,0.0879 -0.15045,-0.0683 -0.13897,-0.34727 z m -35.948842,-4.93889 0.05537,-2.71198 0.08679,2.60389 c 0.08046,2.41389 0.119856,2.57799 0.539938,2.24896 0.408538,-0.31999 0.4174,-0.30935 0.09002,0.10809 -0.684994,0.87343 -0.827409,0.45862 -0.772124,-2.24896 z m 3.648792,1.30627 c 0,-0.0455 0.386953,-0.43248 0.859895,-0.85989 l 0.859896,-0.77711 -0.777105,0.8599 c -0.724371,0.80154 -0.942686,0.98151 -0.942686,0.7771 z"
                       id="path4" /><path
                       style="fill:#9ea475"
                       d="m 74.989943,131.79246 c 0.975899,-0.0508 2.642774,-0.0511 3.704167,-7.5e-4 1.061392,0.0504 0.26293,0.0919 -1.774362,0.0923 -2.037292,4.1e-4 -2.905704,-0.0408 -1.929805,-0.0915 z m -5.941549,-0.24388 c 0.181901,-0.0734 0.479557,-0.0734 0.661458,0 0.181901,0.0734 0.03307,0.13345 -0.330729,0.13345 -0.363802,0 -0.51263,-0.06 -0.330729,-0.13345 z m 13.631077,-0.008 c 0.257431,-0.0671 0.614618,-0.0627 0.79375,0.01 0.179131,0.0725 -0.03149,0.12736 -0.468056,0.12197 -0.436563,-0.005 -0.583125,-0.0647 -0.325694,-0.13177 z m -15.466624,-0.26197 c 0.190996,-0.0764 0.419199,-0.067 0.507118,0.0209 0.08792,0.0879 -0.06835,0.15045 -0.347266,0.13896 -0.308224,-0.0127 -0.370919,-0.0754 -0.159852,-0.15985 z m 17.710547,0.006 c 0.181901,-0.0734 0.479557,-0.0734 0.661458,0 0.181901,0.0734 0.03307,0.13345 -0.330729,0.13345 -0.363802,0 -0.51263,-0.06 -0.330729,-0.13345 z m -19.298047,-0.2701 c 0.190996,-0.0764 0.419199,-0.067 0.507118,0.0209 0.08792,0.0879 -0.06835,0.15045 -0.347266,0.13897 -0.308224,-0.0127 -0.370919,-0.0754 -0.159852,-0.15986 z m 21.695833,0 c 0.190996,-0.0764 0.419199,-0.067 0.507118,0.0209 0.08792,0.0879 -0.06835,0.15045 -0.347265,0.13897 -0.308225,-0.0127 -0.37092,-0.0754 -0.159853,-0.15986 z m 1.852084,-0.26458 c 0.190996,-0.0764 0.419199,-0.067 0.507118,0.0209 0.08792,0.0879 -0.06835,0.15045 -0.347266,0.13896 -0.308225,-0.0127 -0.370919,-0.0754 -0.159852,-0.15985 z m 15.395446,-4.68574 c 0,-0.0572 0.18477,-0.17489 0.41061,-0.26156 0.23546,-0.0904 0.34167,-0.046 0.24897,0.10399 -0.15538,0.25141 -0.65958,0.37186 -0.65958,0.15757 z m 1.32291,-0.53886 c 0,-0.0728 0.23813,-0.25973 0.52917,-0.41549 0.29104,-0.15576 0.52917,-0.22367 0.52917,-0.15091 0,0.0728 -0.23813,0.25973 -0.52917,0.41549 -0.29104,0.15576 -0.52917,0.22367 -0.52917,0.15091 z m -10.897523,-1.91915 c 0.190996,-0.0764 0.419199,-0.067 0.507118,0.0209 0.08792,0.0879 -0.06835,0.15045 -0.347266,0.13896 -0.308224,-0.0127 -0.370919,-0.0754 -0.159852,-0.15985 z m -42.416016,-19.9282 c 0.263389,-0.29104 0.538421,-0.52917 0.611181,-0.52917 0.07276,0 -0.08321,0.23813 -0.346597,0.52917 -0.263389,0.29104 -0.538421,0.52916 -0.611181,0.52916 -0.07276,0 0.08321,-0.23812 0.346597,-0.52916 z m 1.455209,-1.15823 c 0,-0.0549 0.208359,-0.2633 0.46302,-0.46302 0.419644,-0.32911 0.429003,-0.31975 0.09989,0.0999 -0.345643,0.44073 -0.562915,0.58089 -0.562915,0.36313 z m 33.93645,-5.381632 c 0.402183,-0.06082 0.997496,-0.05919 1.322917,0.0036 0.325421,0.0628 -0.0036,0.112561 -0.731242,0.110574 -0.727605,-0.002 -0.993858,-0.05337 -0.591675,-0.114185 z M 94.249956,95.376 c 0,-0.05494 0.20836,-0.263302 0.463021,-0.463021 0.419644,-0.329108 0.429002,-0.319749 0.0999,0.09989 -0.345644,0.440729 -0.562916,0.580887 -0.562916,0.363126 z M 74.803081,92.300895 c -0.08994,-0.145521 -0.03743,-0.264584 0.116677,-0.264584 0.154109,0 0.280198,0.119063 0.280198,0.264584 0,0.14552 -0.0525,0.264583 -0.116676,0.264583 -0.06417,0 -0.190262,-0.119063 -0.280199,-0.264583 z m 0.864778,-0.309153 c 0.15375,-0.15375 0.435721,-0.227487 0.626602,-0.16386 0.198158,0.06605 0.07823,0.185987 -0.279546,0.279546 -0.440093,0.115087 -0.543395,0.08065 -0.347056,-0.115686 z m 3.023261,-3.791889 c 0.0054,-0.436563 0.06469,-0.583125 0.131773,-0.325694 0.06708,0.257431 0.06267,0.614619 -0.0098,0.79375 -0.07248,0.179132 -0.127362,-0.03149 -0.12197,-0.468056 z m 19.609572,-0.79375 c 0.0015,-0.873125 0.05088,-1.198415 0.109766,-0.722866 0.05889,0.475549 0.05767,1.189924 -0.0027,1.5875 -0.06037,0.397576 -0.108551,0.0085 -0.107066,-0.864634 z M 78.700924,86.480061 c 0,-0.509323 0.05445,-0.717682 0.121,-0.463021 0.06655,0.254662 0.06655,0.671381 0,0.926042 -0.06655,0.254662 -0.121,0.0463 -0.121,-0.463021 z m 3.642782,-6.714478 c 0,-0.05494 0.20836,-0.263301 0.463021,-0.463021 0.419644,-0.329107 0.429002,-0.319749 0.0999,0.0999 -0.345644,0.440729 -0.562916,0.580887 -0.562916,0.363126 z m 5.494843,-2.208524 c 0.475549,-0.05889 1.189924,-0.05767 1.5875,0.0027 0.397576,0.06037 0.0085,0.10855 -0.864634,0.107065 -0.873125,-0.0015 -1.198415,-0.05088 -0.722866,-0.109765 z"
                       id="path3" /><path
                       style="fill:#5f90b6"
                       d="m 82.679471,140.00712 c 0.257431,-0.0671 0.614618,-0.0627 0.79375,0.01 0.179131,0.0725 -0.03149,0.12736 -0.468056,0.12197 -0.436563,-0.005 -0.583125,-0.0647 -0.325694,-0.13178 z m 5.027083,0 c 0.257431,-0.0671 0.614619,-0.0627 0.79375,0.01 0.179132,0.0725 -0.03149,0.12736 -0.468056,0.12197 -0.436563,-0.005 -0.583125,-0.0647 -0.325694,-0.13178 z M 105.62704,133.476 c 0,-0.0549 0.20836,-0.2633 0.46302,-0.46302 0.41964,-0.32911 0.429,-0.31975 0.0999,0.0999 -0.34565,0.44073 -0.56292,0.58089 -0.56292,0.36313 z m -42.490764,-1.81833 -0.504028,-0.59532 0.595312,0.50403 c 0.559447,0.47366 0.715762,0.6866 0.504028,0.6866 -0.05021,0 -0.318097,-0.26789 -0.595312,-0.59531 z m 44.078264,0.49541 c 0,-0.0549 0.20836,-0.2633 0.46302,-0.46302 0.41964,-0.32911 0.429,-0.31975 0.0999,0.0999 -0.34565,0.44073 -0.56292,0.58088 -0.56292,0.36312 z m -35.252645,-0.35182 c 0.329119,-0.0633 0.805369,-0.0609 1.058334,0.005 0.252964,0.0662 -0.01631,0.11801 -0.598398,0.11507 -0.582083,-0.003 -0.789054,-0.0571 -0.459936,-0.12041 z m 8.728165,0.0119 c 0.181901,-0.0734 0.479558,-0.0734 0.661459,0 0.181901,0.0734 0.03307,0.13345 -0.330729,0.13345 -0.363802,0 -0.512631,-0.0601 -0.33073,-0.13345 z m 29.83177,-2.99978 c 0.26339,-0.29104 0.53842,-0.52916 0.61118,-0.52916 0.0728,0 -0.0832,0.23812 -0.3466,0.52916 -0.26338,0.29105 -0.53842,0.52917 -0.61118,0.52917 -0.0728,0 0.0832,-0.23812 0.3466,-0.52917 z m -31.022395,-4.41571 c 0.254662,-0.0665 0.671381,-0.0665 0.926042,0 0.254662,0.0666 0.0463,0.121 -0.463021,0.121 -0.509323,0 -0.717682,-0.0545 -0.463021,-0.121 z m 5.027084,-0.007 c 0.400182,-0.0606 1.055026,-0.0606 1.455208,0 0.400182,0.0606 0.07276,0.11022 -0.727604,0.11022 -0.800365,0 -1.127787,-0.0496 -0.727604,-0.11022 z m -7.788672,-0.25581 c 0.190996,-0.0764 0.419199,-0.067 0.507118,0.0209 0.08792,0.0879 -0.06835,0.15045 -0.347266,0.13896 -0.308224,-0.0127 -0.370919,-0.0754 -0.159852,-0.15985 z m 12.820791,-0.003 c 0.257431,-0.0671 0.614618,-0.0627 0.79375,0.01 0.179131,0.0725 -0.03149,0.12736 -0.468057,0.12197 -0.436562,-0.005 -0.583124,-0.0647 -0.325693,-0.13178 z m -15.202041,-0.26197 c 0.190996,-0.0764 0.419199,-0.067 0.507118,0.0209 0.08792,0.0879 -0.06835,0.15045 -0.347266,0.13897 -0.308224,-0.0127 -0.370919,-0.0754 -0.159852,-0.15986 z m -16.511988,-6.49998 -0.504028,-0.59532 0.595313,0.50403 c 0.559447,0.47366 0.715761,0.6866 0.504028,0.6866 -0.05021,0 -0.318097,-0.26789 -0.595313,-0.59531 z m 23.553876,-9.98803 c 0,-3.27421 0.03798,-4.61367 0.0844,-2.97656 0.04642,1.63711 0.04642,4.31602 0,5.95313 -0.04642,1.63711 -0.0844,0.29765 -0.0844,-2.97657 z m -26.231187,3.57188 c 0.002,-0.7276 0.05337,-0.99386 0.114185,-0.59168 0.06082,0.40219 0.05919,0.9975 -0.0036,1.32292 -0.0628,0.32542 -0.11256,-0.004 -0.110573,-0.73124 z m 63.445212,0.24253 c 0.0127,-0.30822 0.0754,-0.37092 0.15985,-0.15985 0.0764,0.191 0.067,0.4192 -0.0209,0.50712 -0.0879,0.0879 -0.15046,-0.0683 -0.13897,-0.34727 z m 0.33908,-4.60816 c 0,-1.38244 0.0446,-1.94799 0.0991,-1.25677 0.0545,0.69123 0.0545,1.82232 0,2.51355 -0.0545,0.69122 -0.0991,0.12567 -0.0991,-1.25678 z m -22.657014,1.66113 c 0.469697,-0.0585 1.303134,-0.0594 1.852083,-0.002 0.548949,0.0573 0.164651,0.10509 -0.853994,0.10627 -1.018646,10e-4 -1.467786,-0.0457 -0.998089,-0.10414 z m 11.581424,0.0338 c 1.25689,-0.20205 3.04271,-0.22741 3.04271,-0.0432 0,0.11019 -0.80368,0.18413 -1.78594,0.16432 -0.98227,-0.0198 -1.54781,-0.0743 -1.25677,-0.1211 z m -23.253414,-0.68504 c 0.07641,-0.12364 0.24977,-0.1563 0.385236,-0.0726 0.346176,0.21394 0.307196,0.29738 -0.138935,0.29738 -0.21188,0 -0.322716,-0.10116 -0.246301,-0.22481 z m 0.10237,-2.14102 c 0,-0.04 0.922735,-0.96275 2.050521,-2.05052 l 2.050521,-1.97775 -1.977753,2.05052 c -1.836894,1.90448 -2.123289,2.17124 -2.123289,1.97775 z m -25.003125,-3.10223 c 0.716664,-0.7276 1.362556,-1.32292 1.435316,-1.32292 0.07276,0 -0.454069,0.59532 -1.170732,1.32292 -0.716664,0.72761 -1.362556,1.32292 -1.435316,1.32292 -0.07276,0 0.454069,-0.59531 1.170732,-1.32292 z m 29.765625,0.71096 c 0,-0.0455 0.386953,-0.43249 0.859896,-0.8599 l 0.859896,-0.7771 -0.777105,0.8599 c -0.724372,0.80154 -0.942687,0.98151 -0.942687,0.7771 z m -37.285362,-0.8653 c 0.0127,-0.30822 0.07539,-0.37092 0.159853,-0.15985 0.07643,0.19099 0.06703,0.4192 -0.02089,0.50712 -0.08792,0.0879 -0.150453,-0.0683 -0.138965,-0.34727 z m 66.410416,0 c 0.0127,-0.30822 0.0754,-0.37092 0.15985,-0.15985 0.0764,0.19099 0.067,0.4192 -0.0209,0.50712 -0.0879,0.0879 -0.15046,-0.0683 -0.13897,-0.34727 z M 81.40102,94.351415 80.623915,93.49152 81.48381,94.268625 c 0.801544,0.724371 0.981512,0.942686 0.777106,0.942686 -0.04554,0 -0.432488,-0.386953 -0.859896,-0.859896 z m 14.039561,0.06615 c 0.263389,-0.291041 0.538421,-0.529166 0.611181,-0.529166 0.07276,0 -0.08321,0.238125 -0.346597,0.529166 -0.263389,0.291042 -0.538421,0.529167 -0.611181,0.529167 -0.07276,0 0.08321,-0.238125 0.346597,-0.529167 z M 75.724096,92.162546 c -0.279607,-0.336906 -0.263238,-0.375623 0.0999,-0.236276 0.238864,0.09166 0.434299,0.27298 0.434299,0.402932 0,0.340243 -0.153161,0.292461 -0.534194,-0.166656 z m 0.913048,-0.155393 c -0.25458,-0.411919 0.05616,-0.578991 0.556304,-0.299099 0.398065,0.222769 0.401091,0.266526 0.02832,0.409573 -0.229549,0.08809 -0.492629,0.03837 -0.584621,-0.110474 z m 1.453204,-1.492196 -0.641433,-0.727604 0.727604,0.641433 c 0.680055,0.599516 0.848939,0.813775 0.641433,0.813775 -0.04739,0 -0.374816,-0.327422 -0.727604,-0.727604 z m 0.57008,-1.278819 c 0.0127,-0.308225 0.07539,-0.37092 0.159852,-0.159853 0.07643,0.190996 0.06703,0.419199 -0.02089,0.507118 -0.08792,0.08792 -0.150453,-0.06835 -0.138964,-0.347265 z m 32.100852,-4.409723 -0.50403,-0.595312 0.59531,0.504028 c 0.55945,0.473662 0.71576,0.686597 0.50403,0.686597 -0.0502,0 -0.3181,-0.267891 -0.59531,-0.595313 z M 59.854123,85.05725 c 0,-0.05494 0.208359,-0.263302 0.463021,-0.463021 0.419644,-0.329108 0.429002,-0.319749 0.0999,0.0999 -0.345644,0.440729 -0.562916,0.580887 -0.562916,0.363126 z m 47.467567,-3.670418 -0.50403,-0.595312 0.59532,0.504028 c 0.55944,0.473661 0.71576,0.686597 0.50403,0.686597 -0.0502,0 -0.3181,-0.267891 -0.59532,-0.595313 z m -44.027984,0.230834 c 0,-0.05494 0.20836,-0.263301 0.463021,-0.46302 0.419644,-0.329108 0.429002,-0.319749 0.0999,0.09989 -0.345644,0.44073 -0.562916,0.580888 -0.562916,0.363126 z m 32.259142,-1.156876 -0.641433,-0.727604 0.727604,0.641433 c 0.680055,0.599516 0.848939,0.813776 0.641433,0.813776 -0.04739,0 -0.374816,-0.327422 -0.727604,-0.727605 z m 10.305022,-0.264583 c -0.3291,-0.419644 -0.31975,-0.429002 0.0999,-0.0999 0.44073,0.345644 0.58089,0.562916 0.36312,0.562916 -0.0549,0 -0.2633,-0.208359 -0.46302,-0.463021 z M 82.414888,73.332124 c 0.257431,-0.06708 0.614618,-0.06267 0.79375,0.0098 0.179131,0.07248 -0.03149,0.127362 -0.468057,0.12197 -0.436562,-0.0054 -0.583124,-0.06469 -0.325693,-0.131774 z m 5.55625,0 c 0.257431,-0.06708 0.614618,-0.06267 0.79375,0.0098 0.179131,0.07248 -0.03149,0.127362 -0.468057,0.12197 -0.436562,-0.0054 -0.583124,-0.06469 -0.325693,-0.131774 z"
                       id="path2" /><g
                       id="g14"><path
                         style="fill:#01529a"
                         d="m 81.922431,139.92067 c -6.863775,-0.72408 -13.661473,-3.81993 -19.157891,-8.72502 -0.727404,-0.64915 -0.802642,-0.79218 -0.350757,-0.66682 2.517495,0.6984 7.166275,1.2382 11.867045,1.37797 11.221077,0.33363 21.544749,-1.62918 30.817042,-5.85915 1.67349,-0.76343 4.08506,-1.83832 5.35905,-2.38862 1.27398,-0.55031 2.93925,-1.39332 3.7006,-1.87336 0.76135,-0.48004 1.42972,-0.82735 1.48529,-0.77179 0.0556,0.0556 -0.34121,0.91045 -0.8817,1.89975 -5.12359,9.37799 -14.975369,15.86249 -25.837826,17.00662 -2.765023,0.29123 -4.243314,0.29132 -7.000853,4.2e-4 z m -2.224558,-15.51996 c -10.646179,-0.77708 -18.427323,-3.41471 -21.987952,-7.4534 -1.692223,-1.91943 -2.164107,-3.04897 -2.298837,-5.50268 -0.113267,-2.06283 -0.07554,-2.24432 0.879933,-4.23333 0.821527,-1.71018 1.471261,-2.54781 3.669752,-4.73102 3.991838,-3.964082 8.794643,-6.970145 15.441323,-9.664683 1.498035,-0.607298 2.068433,-0.952482 1.811513,-1.096262 -0.868921,-0.486273 -8.866022,2.43097 -14.838018,5.412724 -3.444528,1.719815 -6.077736,3.403891 -8.585482,5.490851 -0.884894,0.73642 -1.608518,1.18577 -1.608053,0.99857 4.64e-4,-0.18721 0.183667,-1.38554 0.407116,-2.66296 2.378561,-13.597842 13.063729,-24.407353 26.771392,-27.082929 2.847886,-0.555874 8.89549,-0.619242 11.714396,-0.122745 13.105664,2.308316 23.515844,11.931742 26.912434,24.87853 1.35967,5.182654 1.03287,15.530584 -0.52895,16.749034 -0.96622,0.75379 -6.75181,3.51514 -9.53663,4.55165 -7.19846,2.67925 -13.35569,3.97455 -20.749361,4.36504 -2.946744,0.15563 -5.566119,0.26216 -5.820834,0.23674 -0.254714,-0.0254 -0.998898,-0.0853 -1.653742,-0.13313 z m 3.439583,-13.29088 c 0,-2.02217 0.02821,-2.11688 0.831763,-2.79303 0.495698,-0.4171 0.928414,-0.60323 1.070975,-0.46067 0.131568,0.13157 1.04393,1.35867 2.027472,2.72689 1.724826,2.39943 1.827614,2.49055 2.897774,2.56902 0.610234,0.0447 1.109516,0.0142 1.109516,-0.068 0,-0.0821 -1.096888,-1.65794 -2.437529,-3.50181 l -2.437529,-3.3525 2.499735,-2.33423 2.499734,-2.33423 h -1.314459 c -1.313588,0 -1.316256,0.002 -4.030955,2.70725 l -2.716497,2.70725 v -2.70725 -2.70725 h -0.926041 -0.926042 v 5.82083 5.82084 h 0.926042 0.926041 z m 11.358074,0.62801 c 0.301497,-0.80582 0.548176,-1.58436 0.548176,-1.73009 0,-0.16244 0.890254,-0.23538 2.300799,-0.18851 l 2.300799,0.0765 0.528266,1.65364 c 0.52506,1.64359 0.53436,1.65365 1.52822,1.65365 h 0.99995 l -0.77668,-2.18281 c -0.42717,-1.20055 -1.35962,-3.79016 -2.072108,-5.75469 l -1.295436,-3.57188 -1.029301,-0.0777 -1.0293,-0.0777 -1.560382,4.17876 c -0.858209,2.29832 -1.839452,4.92291 -2.180539,5.83241 l -0.620157,1.65365 h 0.904758 c 0.855035,0 0.934884,-0.0805 1.452935,-1.46514 z m 1.40523,-3.89267 c 0.06595,-0.18191 0.405051,-1.13441 0.753546,-2.11667 0.348494,-0.98227 0.69872,-1.78594 0.77828,-1.78594 0.07956,0 0.456914,0.9525 0.838566,2.11667 l 0.693913,2.11666 h -1.592112 c -1.161257,0 -1.559659,-0.0895 -1.472193,-0.33072 z m 10.39945,3.63802 0.5899,-1.5875 2.2249,-0.0757 2.22489,-0.0757 0.53045,1.66316 c 0.51806,1.62433 0.55382,1.6651 1.53193,1.74663 0.73277,0.0611 0.97764,-0.0114 0.9126,-0.27018 -0.0489,-0.19452 -0.98185,-2.82675 -2.07326,-5.84942 l -1.98437,-5.49576 -1.02937,0.0774 -1.02937,0.0774 -2.06584,5.42396 c -1.13622,2.98318 -2.07199,5.58033 -2.07949,5.77145 -0.009,0.23305 0.26148,0.32019 0.82174,0.26459 0.7567,-0.0751 0.89094,-0.23243 1.42529,-1.67041 z m 1.67567,-4.56407 c 0.26897,-0.69122 0.64111,-1.72584 0.82698,-2.29915 l 0.33793,-1.04238 0.74952,2.10071 c 0.41224,1.1554 0.75274,2.19002 0.75667,2.29916 0.004,0.10914 -0.70549,0.19843 -1.5765,0.19843 h -1.58364 z M 92.46541,96.465615 c 2.079919,-0.952218 3.194532,-1.858118 4.25836,-3.460975 3.57513,-5.386604 1.3971,-12.449665 -4.595563,-14.902809 -0.8634,-0.35344 -1.868536,-0.485311 -3.699084,-0.485311 -2.24351,0 -2.684088,0.08343 -4.101042,0.776582 -1.747106,0.854659 -4.07809,3.049863 -4.615066,4.346237 -0.189158,0.456668 -0.441142,0.830306 -0.559965,0.830306 -0.118822,0 -0.22265,0.208359 -0.230728,0.46302 -0.0081,0.254662 -0.0894,1.560834 -0.180725,2.902605 -0.148221,2.177797 -0.213821,2.414012 -0.611325,2.201274 -0.244908,-0.13107 -0.588432,-0.149842 -0.763386,-0.04171 -0.223231,0.137964 -0.04709,0.513207 0.590595,1.258202 0.807545,0.943435 0.892204,1.184563 0.76054,2.166193 -0.124313,0.926819 -0.07469,1.104585 0.308326,1.104585 0.251066,0 0.518754,-0.238125 0.594863,-0.529166 0.192114,-0.734644 0.382203,-0.663615 1.071411,0.400345 0.32883,0.507629 1.102736,1.289933 1.719791,1.738454 0.648589,0.471442 1.085871,0.987822 1.036476,1.223957 -0.06448,0.308254 0.06677,0.370261 0.534983,0.252746 0.341235,-0.08564 1.153591,0.01741 1.805235,0.229014 1.81433,0.58915 4.820874,0.375898 6.676304,-0.473546 z"
                         id="path1" /></g></g></g></g></g></g></g></g></g></g></svg>
