<?xml version="1.0" encoding="UTF-8" standalone="no"?>
<!-- Created with Inkscape (http://www.inkscape.org/) -->

<svg
   width="210mm"
   height="297mm"
   viewBox="0 0 210 297"
   version="1.1"
   id="svg1"
   xml:space="preserve"
   xmlns="http://www.w3.org/2000/svg"
   xmlns:svg="http://www.w3.org/2000/svg"><defs
     id="defs1" /><g
     id="layer1"><g
       id="g1"
       transform="translate(-1.1526731,-5.1046075)"><path
         style="fill:#e4a1a1"
         d="m 135.32722,222.65979 c 0.59783,-0.6606 1.22208,-1.20108 1.38723,-1.20108 0.16515,0 -0.18886,0.54048 -0.78669,1.20108 -0.59783,0.66059 -1.22209,1.20108 -1.38724,1.20108 -0.16514,0 0.18887,-0.54049 0.7867,-1.20108 z m -2.00123,-1.80162 c 0.11643,-0.52547 -0.15554,-0.82414 -0.65272,-0.71679 -0.71007,0.1533 -0.72085,0.0256 -0.0646,-0.76519 0.43327,-0.52207 0.92708,-0.8099 1.09734,-0.63964 0.17027,0.17027 0.64819,0.0286 1.06204,-0.31492 1.49433,-1.24018 1.39484,0.48669 -0.1094,1.89884 -0.99344,0.93263 -1.46212,1.12172 -1.3327,0.5377 z m 1.77756,-1.65149 c 0.72925,-0.92986 0.71405,-0.96506 -0.13186,-0.30548 -0.52583,0.41001 -1.17721,0.54513 -1.4475,0.30027 -0.27028,-0.24486 -0.29703,-0.10739 -0.0594,0.30548 0.55837,0.97029 0.65644,0.95232 1.63879,-0.30027 z m -5.23826,-0.90081 -1.14402,-1.35121 1.35122,1.14402 c 1.26981,1.0751 1.6246,1.55841 1.14402,1.55841 -0.11396,0 -0.722,-0.60805 -1.35122,-1.35122 z m -47.161963,-0.90081 c -0.746995,-0.95249 -0.725754,-0.97373 0.226737,-0.22674 0.57802,0.45332 1.050946,0.92624 1.050946,1.05095 0,0.49426 -0.493155,0.17614 -1.277683,-0.82421 z m 20.382373,-1.16091 c 0.43352,-0.17348 0.95148,-0.15215 1.15104,0.0474 0.19955,0.19955 -0.15514,0.34149 -0.78821,0.31541 -0.6996,-0.0288 -0.8419,-0.17111 -0.36283,-0.36282 z m -4.203781,-0.60054 c 0.433515,-0.17348 0.951482,-0.15215 1.151041,0.0474 0.19955,0.19955 -0.155144,0.34149 -0.788214,0.31541 -0.699596,-0.0288 -0.841897,-0.17111 -0.362827,-0.36282 z m 1.932611,0.10996 c 0,-0.33029 0.26197,-1.0059 0.58215,-1.50135 0.32018,-0.49544 0.58215,-0.63056 0.58215,-0.30027 0,0.3303 -0.26197,1.00591 -0.58215,1.50135 -0.32018,0.49545 -0.58215,0.63057 -0.58215,0.30027 z m -16.345581,-1.31104 c 0.433515,-0.17348 0.951481,-0.15215 1.151036,0.0474 0.199554,0.19955 -0.15514,0.34149 -0.78821,0.31541 -0.699595,-0.0288 -0.841897,-0.17112 -0.362826,-0.36282 z m 40.903901,-1.24125 -1.4559,-1.65149 1.65149,1.4559 c 1.54356,1.36076 1.92688,1.84707 1.45589,1.84707 -0.10757,0 -0.85074,-0.74317 -1.65148,-1.65148 z m -9.26293,-0.15014 c 0.59783,-0.66059 1.22209,-1.20108 1.38724,-1.20108 0.16515,0 -0.18887,0.54049 -0.7867,1.20108 -0.59783,0.6606 -1.22208,1.20108 -1.38723,1.20108 -0.16515,0 0.18886,-0.54048 0.78669,-1.20108 z m 14.1127,0.97085 c 0,-0.12662 0.54049,-0.37156 1.20108,-0.54431 0.6606,-0.17275 1.20109,-0.0691 1.20109,0.23022 0,0.29938 -0.54049,0.54432 -1.20109,0.54432 -0.66059,0 -1.20108,-0.1036 -1.20108,-0.23023 z m -4.95446,-4.97182 c 0.41288,-0.16659 1.08848,-0.16659 1.50136,0 0.41287,0.1666 0.0751,0.30291 -0.75068,0.30291 -0.82574,0 -1.16355,-0.13631 -0.75068,-0.30291 z m -31.030552,-3.55583 c 0.02882,-0.69959 0.171118,-0.8419 0.362827,-0.36283 0.173478,0.43352 0.152143,0.95149 -0.04741,1.15104 -0.199555,0.19956 -0.341492,-0.15514 -0.315417,-0.78821 z m 19.770422,-3.47966 c 0,-0.12471 0.47293,-0.59763 1.05095,-1.05095 0.95249,-0.74699 0.97373,-0.72575 0.22673,0.22674 -0.78452,1.00035 -1.27768,1.31847 -1.27768,0.82421 z m 1.80162,0 c 0,-0.12471 0.47293,-0.59763 1.05095,-1.05095 0.95249,-0.74699 0.97373,-0.72575 0.22674,0.22674 -0.78453,1.00035 -1.27769,1.31847 -1.27769,0.82421 z m 6.65336,-1.32466 c 0.0288,-0.6996 0.17112,-0.8419 0.36283,-0.36283 0.17347,0.43352 0.15214,0.95148 -0.0474,1.15104 -0.19955,0.19955 -0.34149,-0.15514 -0.31541,-0.78821 z m -25.270111,-1.07751 c 0,-0.1247 0.472926,-0.59763 1.050946,-1.05094 0.952491,-0.747 0.973732,-0.72575 0.226737,0.22674 -0.784528,1.00035 -1.277683,1.31847 -1.277683,0.8242 z m 19.460501,-1.72501 -1.14402,-1.35122 1.35122,1.14402 c 1.26981,1.0751 1.62461,1.55841 1.14402,1.55841 -0.11396,0 -0.722,-0.60805 -1.35122,-1.35121 z m 15.46567,-1.05095 c 0,-0.82574 0.1363,-1.16355 0.3029,-0.75068 0.1666,0.41288 0.1666,1.08848 0,1.50136 -0.1666,0.41287 -0.3029,0.0751 -0.3029,-0.75068 z m -42.132656,0.3738 c 0,-0.1247 0.472926,-0.59763 1.050946,-1.05094 0.95249,-0.747 0.973732,-0.72576 0.226737,0.22673 -0.784528,1.00035 -1.277683,1.31848 -1.277683,0.82421 z m 31.716046,-0.1835 c 0.43351,-0.17348 0.95148,-0.15214 1.15103,0.0474 0.19956,0.19956 -0.15514,0.3415 -0.78821,0.31542 -0.69959,-0.0288 -0.84189,-0.17112 -0.36282,-0.36283 z m 5.2558,-2.41643 c -0.3259,-0.85589 -0.25692,-0.92487 0.33618,-0.33618 0.41042,0.40737 0.59494,0.89195 0.41004,1.07685 -0.1849,0.1849 -0.5207,-0.1484 -0.74622,-0.74067 z m -44.478601,-0.77657 c 0.597829,-0.6606 1.222084,-1.20108 1.387233,-1.20108 0.165149,0 -0.188863,0.54048 -0.786693,1.20108 -0.59783,0.66059 -1.222085,1.20108 -1.387233,1.20108 -0.165149,0 0.188863,-0.54049 0.786693,-1.20108 z m 19.440961,0.4504 c 0.45431,-0.57929 1.53237,-1.01424 2.40216,-0.96916 l 1.57796,0.0818 -1.50136,0.27603 c -0.82574,0.15182 -1.90671,0.58794 -2.40216,0.96917 -0.78375,0.60306 -0.79371,0.55656 -0.0766,-0.35782 z m 20.34484,-1.44867 c 0.41287,-0.1666 1.08848,-0.1666 1.50135,0 0.41288,0.1666 0.0751,0.3029 -0.75067,0.3029 -0.82574,0 -1.16355,-0.1363 -0.75068,-0.3029 z m -46.692016,-1.03009 c 0,-0.12471 0.472925,-0.59763 1.050945,-1.05095 0.952491,-0.74699 0.973732,-0.72575 0.226738,0.22674 -0.784528,1.00035 -1.277683,1.31847 -1.277683,0.82421 z m 29.669696,-4.72772 -1.14403,-1.35122 1.35122,1.14402 c 1.26981,1.0751 1.62461,1.55841 1.14402,1.55841 -0.11395,0 -0.722,-0.60804 -1.35121,-1.35121 z m 50.20218,-1.23886 c 0,-0.10336 0.87829,-0.98165 1.95176,-1.95176 l 1.95175,-1.76384 -1.76384,1.95175 c -1.64415,1.81932 -2.13967,2.2278 -2.13967,1.76385 z m -3.55583,-1.49902 c -0.0271,-0.44966 -0.3687,-0.60472 -0.79809,-0.3623 -0.59595,0.33646 -0.59802,0.25919 -0.01,-0.37493 0.85421,-0.92118 1.63705,-0.42969 1.17093,0.73514 -0.25905,0.64735 -0.32389,0.64772 -0.36283,0.002 z m -84.461122,-2.66699 -1.763842,-1.95175 1.951757,1.76384 c 1.073466,0.97011 1.951756,1.8484 1.951756,1.95176 0,0.46395 -0.495523,0.0555 -2.139671,-1.76385 z m 42.470702,-2.25202 c 0,-0.82575 0.13631,-1.16355 0.3029,-0.75068 0.1666,0.41287 0.1666,1.08848 0,1.50135 -0.16659,0.41287 -0.3029,0.0751 -0.3029,-0.75067 z m -2.93596,-3.41888 c 0.58431,-0.15226 1.39504,-0.14224 1.80162,0.0223 0.40659,0.1645 -0.0715,0.28908 -1.06237,0.27684 -0.99089,-0.0122 -1.32356,-0.14683 -0.73925,-0.2991 z m 5.69371,0.0185 c 0.41287,-0.1666 1.08848,-0.1666 1.50135,0 0.41287,0.16659 0.0751,0.3029 -0.75068,0.3029 -0.82574,0 -1.16355,-0.13631 -0.75067,-0.3029 z m -6.29425,-1.21953 c 0.58431,-0.15226 1.39504,-0.14225 1.80162,0.0223 0.40659,0.1645 -0.0715,0.28908 -1.06237,0.27684 -0.9909,-0.0122 -1.32356,-0.14683 -0.73925,-0.2991 z m 6.60595,0 c 0.5843,-0.15226 1.39503,-0.14225 1.80162,0.0223 0.40658,0.1645 -0.0715,0.28908 -1.06238,0.27684 -0.99089,-0.0122 -1.32355,-0.14683 -0.73924,-0.2991 z m -53.72227,-1.19515 c 0.433515,-0.17347 0.951482,-0.15214 1.151036,0.0474 0.199555,0.19955 -0.155139,0.34149 -0.788209,0.31541 -0.699595,-0.0288 -0.841897,-0.17112 -0.362827,-0.36283 z m 46.24161,0 c 0.43352,-0.17347 0.95149,-0.15214 1.15104,0.0474 0.19955,0.19955 -0.15514,0.34149 -0.78821,0.31541 -0.69959,-0.0288 -0.8419,-0.17112 -0.36283,-0.36283 z m 9.00811,0 c 0.43352,-0.17347 0.95148,-0.15214 1.15104,0.0474 0.19955,0.19955 -0.15514,0.34149 -0.78821,0.31541 -0.6996,-0.0288 -0.8419,-0.17112 -0.36283,-0.36283 z m -22.613112,-3.79354 c 0,-0.82574 0.136306,-1.16355 0.302904,-0.75068 0.166597,0.41287 0.166597,1.08848 0,1.50135 -0.166598,0.41288 -0.302904,0.0751 -0.302904,-0.75067 z m 23.298732,-0.65198 c -0.36868,-0.68888 -0.51331,-1.40953 -0.3214,-1.60144 0.19191,-0.19191 0.34892,-0.0529 0.34892,0.30881 0,0.36176 0.42467,1.0824 0.94371,1.60144 0.51904,0.51904 0.66367,0.94371 0.3214,0.94371 -0.34227,0 -0.92396,-0.56363 -1.29263,-1.25252 z m -29.475561,-0.39897 c -0.746995,-0.95249 -0.725753,-0.97373 0.226737,-0.22673 0.57802,0.45331 1.050946,0.92624 1.050946,1.05094 0,0.49427 -0.493155,0.17614 -1.277683,-0.82421 z m -33.703798,-1.74894 c 0.412872,-0.1666 1.08848,-0.1666 1.501351,0 0.412872,0.1666 0.07507,0.3029 -0.750675,0.3029 -0.825743,0 -1.163547,-0.1363 -0.750676,-0.3029 z m -4.053648,-7.4093 c 0,-0.3303 0.286192,-0.60054 0.635983,-0.60054 0.34979,0 0.468963,0.27024 0.264828,0.60054 -0.204135,0.3303 -0.490327,0.60054 -0.635983,0.60054 -0.145655,0 -0.264828,-0.27024 -0.264828,-0.60054 z m 2.252027,-0.39773 c 0.412872,-0.16659 1.08848,-0.16659 1.501351,0 0.412872,0.1666 0.07507,0.30291 -0.750675,0.30291 -0.825744,0 -1.163548,-0.13631 -0.750676,-0.30291 z m 69.81283,-1.63063 c 0,-0.1247 0.47292,-0.59763 1.05094,-1.05094 0.95249,-0.747 0.97373,-0.72576 0.22674,0.22673 -0.78453,1.00035 -1.27768,1.31848 -1.27768,0.82421 z m 49.76825,-0.82421 c -0.74699,-0.95249 -0.72575,-0.97373 0.22674,-0.22673 1.00035,0.78452 1.31847,1.27768 0.82421,1.27768 -0.12471,0 -0.59764,-0.47293 -1.05095,-1.05095 z m -59.83811,-1.95175 c 0,-1.15604 0.12358,-1.62897 0.27464,-1.05095 0.15105,0.57802 0.15105,1.52387 0,2.10189 -0.15106,0.57802 -0.27464,0.1051 -0.27464,-1.05094 z m -9.65316,-3.60325 c 0,-0.82574 0.13631,-1.16354 0.30291,-0.75067 0.1666,0.41287 0.1666,1.08848 0,1.50135 -0.1666,0.41287 -0.30291,0.0751 -0.30291,-0.75068 z m 10.20919,-0.60054 c 0,-0.82574 0.13631,-1.16354 0.30291,-0.75067 0.16659,0.41287 0.16659,1.08848 0,1.50135 -0.1666,0.41287 -0.30291,0.0751 -0.30291,-0.75068 z m -63.301702,-0.99826 c 0.412871,-0.1666 1.088479,-0.1666 1.501351,0 0.412871,0.16659 0.07507,0.3029 -0.750676,0.3029 -0.825743,0 -1.163547,-0.13631 -0.750675,-0.3029 z m 33.331305,-1.70417 c 0.0067,-1.32119 0.129648,-1.79096 0.273293,-1.04394 0.143645,0.74702 0.138191,1.82799 -0.01212,2.40216 -0.15031,0.57417 -0.267838,-0.037 -0.261173,-1.35822 z m 91.054097,1.05095 c -0.74699,-0.95249 -0.72575,-0.97373 0.22674,-0.22674 0.57802,0.45332 1.05094,0.92624 1.05094,1.05095 0,0.49426 -0.49315,0.17614 -1.27768,-0.82421 z m 4.3278,-2.90261 c 0.0288,-0.6996 0.17112,-0.8419 0.36282,-0.36283 0.17348,0.43351 0.15215,0.95148 -0.0474,1.15103 -0.19955,0.19956 -0.34149,-0.15513 -0.31541,-0.7882 z M 44.392752,144.23921 c 0.02882,-0.69959 0.171118,-0.84189 0.362826,-0.36282 0.173479,0.43351 0.152144,0.95148 -0.04741,1.15103 -0.199554,0.19956 -0.341491,-0.15514 -0.315416,-0.78821 z m 99.191898,-0.0637 c 0.57802,-0.15105 1.52387,-0.15105 2.10189,0 0.57802,0.15105 0.10509,0.27464 -1.05095,0.27464 -1.15604,0 -1.62896,-0.12359 -1.05094,-0.27464 z m 28.17009,-1.38765 c 0,-0.82575 0.1363,-1.16355 0.3029,-0.75068 0.1666,0.41287 0.1666,1.08848 0,1.50135 -0.1666,0.41288 -0.3029,0.0751 -0.3029,-0.75067 z m -55.42115,-0.45041 c -0.74699,-0.95249 -0.72575,-0.97373 0.22674,-0.22673 0.57802,0.45331 1.05094,0.92624 1.05094,1.05094 0,0.49427 -0.49315,0.17614 -1.27768,-0.82421 z m -65.888023,-0.75067 c 0,-0.82575 0.136307,-1.16355 0.302904,-0.75068 0.166598,0.41287 0.166598,1.08848 0,1.50135 -0.166597,0.41287 -0.302904,0.0751 -0.302904,-0.75067 z m 94.077423,0.79084 c 0.43352,-0.17348 0.95148,-0.15214 1.15104,0.0474 0.19955,0.19956 -0.15514,0.34149 -0.78821,0.31542 -0.6996,-0.0288 -0.8419,-0.17112 -0.36283,-0.36283 z m -96.11893,-2.44233 c 0.367514,-3.86215 0.603558,-4.17672 0.675941,-0.90081 0.03831,1.73406 -0.146315,3.15284 -0.410288,3.15284 -0.263974,0 -0.383517,-1.01341 -0.265653,-2.25203 z m 31.260565,-2.36199 c 0.433515,-0.17348 0.951482,-0.15215 1.151036,0.0474 0.199555,0.19955 -0.15514,0.34149 -0.788209,0.31541 -0.699596,-0.0288 -0.841897,-0.17111 -0.362827,-0.36282 z m 7.206486,-0.60054 c 0.433515,-0.17348 0.951481,-0.15215 1.151035,0.0474 0.199555,0.19955 -0.155139,0.34149 -0.788209,0.31541 -0.699595,-0.0288 -0.841897,-0.17112 -0.362826,-0.36282 z m -30.46755,-2.94278 c 0.02882,-0.6996 0.171118,-0.8419 0.362826,-0.36283 0.173479,0.43351 0.152144,0.95148 -0.04741,1.15104 -0.199555,0.19955 -0.341492,-0.15514 -0.315416,-0.78821 z m -6.005405,-1.20108 c 0.02882,-0.6996 0.171118,-0.8419 0.362827,-0.36283 0.173478,0.43351 0.152143,0.95148 -0.04741,1.15103 -0.199555,0.19956 -0.341492,-0.15513 -0.315416,-0.7882 z m -5.828042,-1.13123 c -0.185939,-0.48455 -0.222176,-1.22772 -0.08053,-1.65149 0.141649,-0.42376 0.399909,-0.0273 0.573912,0.881 0.339747,1.77353 0.05947,2.21122 -0.493384,0.77049 z m 62.531706,-0.32008 c 0.59783,-0.6606 1.22208,-1.20108 1.38723,-1.20108 0.16515,0 -0.18886,0.54048 -0.78669,1.20108 -0.59783,0.66059 -1.22209,1.20108 -1.38724,1.20108 -0.16515,0 0.18887,-0.54049 0.7867,-1.20108 z m 18.31648,-1.50135 c 0.77575,-0.82574 1.54557,-1.50135 1.71072,-1.50135 0.16514,0 -0.33443,0.67561 -1.11018,1.50135 -0.77574,0.82574 -1.54557,1.50135 -1.71072,1.50135 -0.16514,0 0.33443,-0.67561 1.11018,-1.50135 z m 17.51049,-1.50135 c 0,-0.82575 0.13631,-1.16355 0.30291,-0.75068 0.1666,0.41287 0.1666,1.08848 0,1.50135 -0.1666,0.41287 -0.30291,0.0751 -0.30291,-0.75067 z m -2.05658,-3.67777 c 0.40736,-0.41042 0.89194,-0.59493 1.07684,-0.41004 0.1849,0.1849 -0.1484,0.5207 -0.74066,0.74622 -0.85589,0.32591 -0.92487,0.25693 -0.33618,-0.33618 z m 31.83865,0.27734 c 0.41287,-0.1666 1.08848,-0.1666 1.50135,0 0.41287,0.1666 0.0751,0.3029 -0.75067,0.3029 -0.82575,0 -1.16355,-0.1363 -0.75068,-0.3029 z m -67.11039,-1.4039 c -0.54127,-0.34979 -0.61534,-0.58582 -0.18558,-0.59134 0.39338,-0.005 0.88225,0.26105 1.08639,0.59134 0.46079,0.74559 0.2529,0.74559 -0.90081,0 z m 37.75744,-2.85256 c -0.74699,-0.95249 -0.72575,-0.97374 0.22674,-0.22674 1.00035,0.78453 1.31847,1.27768 0.82421,1.27768 -0.12471,0 -0.59763,-0.47292 -1.05095,-1.05094 z m -29.30247,-1.70154 c 0.0288,-0.69959 0.17112,-0.84189 0.36283,-0.36282 0.17348,0.43351 0.15214,0.95148 -0.0474,1.15103 -0.19956,0.19956 -0.34149,-0.15514 -0.31542,-0.78821 z m -30.999934,-0.29018 c -0.217717,-0.35227 -0.267051,-0.76929 -0.109632,-0.92671 0.157418,-0.15741 0.446241,0.13081 0.641828,0.6405 0.406076,1.05822 0.05997,1.24435 -0.532196,0.28621 z m 35.873924,-0.86085 c 0.0122,-0.99089 0.14683,-1.32355 0.29909,-0.73925 0.15227,0.58431 0.14225,1.39504 -0.0222,1.80162 -0.1645,0.40659 -0.28908,-0.0715 -0.27684,-1.06237 z m -26.493443,-1.85167 c 0.02882,-0.69959 0.171118,-0.84189 0.362826,-0.36282 0.173479,0.43351 0.152144,0.95148 -0.04741,1.15103 -0.199554,0.19956 -0.341491,-0.15514 -0.315416,-0.78821 z m -16.862543,-1.15103 c 0.775745,-0.82575 1.545567,-1.50135 1.710716,-1.50135 0.165148,0 -0.334431,0.6756 -1.110176,1.50135 -0.775745,0.82574 -1.545568,1.50135 -1.710716,1.50135 -0.165149,0 0.33443,-0.67561 1.110176,-1.50135 z m 40.236206,0.67407 c 0,-0.12471 0.47293,-0.59763 1.05095,-1.05095 0.95249,-0.74699 0.97373,-0.72575 0.22674,0.22674 -0.78453,1.00035 -1.27769,1.31848 -1.27769,0.82421 z m 1.20108,-3.03398 c 0,-0.16515 0.54049,-0.58953 1.20108,-0.94307 0.6606,-0.35354 1.20109,-0.50767 1.20109,-0.34252 0,0.16514 -0.54049,0.58953 -1.20109,0.94306 -0.66059,0.35354 -1.20108,0.50768 -1.20108,0.34253 z m -3.50842,-2.14415 c 0,-0.82574 0.13631,-1.16354 0.30291,-0.75067 0.16659,0.41287 0.16659,1.08848 0,1.50135 -0.1666,0.41287 -0.30291,0.0751 -0.30291,-0.75068 z m -60.194315,-1.05094 -1.455899,-1.65149 1.651486,1.4559 c 1.543563,1.36076 1.926888,1.84707 1.455899,1.84707 -0.107573,0 -0.850742,-0.74317 -1.651486,-1.65148 z m 40.732067,-1.74895 c 0.412872,-0.16659 1.08848,-0.16659 1.501351,0 0.412872,0.1666 0.07507,0.30291 -0.750675,0.30291 -0.825744,0 -1.163548,-0.13631 -0.750676,-0.30291 z m -37.760515,-4.25646 c -0.746994,-0.95249 -0.725753,-0.97373 0.226738,-0.22673 0.57802,0.45331 1.050945,0.92624 1.050945,1.05094 0,0.49427 -0.493155,0.17614 -1.277683,-0.82421 z m 0.600541,-1.80162 c -0.746995,-0.95249 -0.725753,-0.97373 0.226737,-0.22674 0.57802,0.45332 1.050946,0.92624 1.050946,1.05095 0,0.49427 -0.493155,0.17614 -1.277683,-0.82421 z m 105.058582,0.64071 c 0.43351,-0.17348 0.95148,-0.15214 1.15103,0.0474 0.19956,0.19956 -0.15514,0.34149 -0.78821,0.31542 -0.69959,-0.0288 -0.8419,-0.17112 -0.36282,-0.36283 z m 3.41557,-0.1903 c -0.97913,-0.42075 -1.01342,-0.52393 -0.18558,-0.55833 0.55853,-0.0232 1.18253,0.22803 1.38666,0.55833 0.42678,0.69055 0.40591,0.69055 -1.20108,0 z m -8.46463,-4.954462 -1.14402,-1.351216 1.35122,1.144022 c 1.26981,1.075098 1.6246,1.55841 1.14402,1.55841 -0.11396,0 -0.722,-0.608047 -1.35122,-1.351216 z m -52.18996,-0.450405 c 0.59783,-0.660595 1.22209,-1.201081 1.38724,-1.201081 0.16515,0 -0.18886,0.540486 -0.78669,1.201081 -0.59783,0.660594 -1.22209,1.20108 -1.38724,1.20108 -0.16515,0 0.18887,-0.540486 0.78669,-1.20108 z M 64.163175,96.358378 c 0,-0.103353 0.878291,-0.981643 1.951757,-1.951756 l 1.951756,-1.763842 -1.763842,1.951756 c -1.644148,1.819311 -2.139671,2.227796 -2.139671,1.763842 z m 9.008107,-0.03882 c 0,-0.124705 0.472925,-0.597631 1.050946,-1.050946 0.95249,-0.746994 0.973731,-0.725753 0.226737,0.226738 -0.784528,1.000349 -1.277683,1.318474 -1.277683,0.824208 z m -14.412971,-0.60054 c 0,-0.124706 0.472926,-0.597631 1.050946,-1.050946 0.952491,-0.746995 0.973732,-0.725753 0.226737,0.226737 -0.784528,1.000349 -1.277683,1.318474 -1.277683,0.824209 z m 98.456299,-5.027992 -2.06956,-2.252027 2.25203,2.069563 c 1.23861,1.138259 2.25202,2.151671 2.25202,2.252027 0,0.458585 -0.50818,0.02657 -2.43449,-2.069563 z m -6.29803,0.410451 c -0.21772,-0.352273 -0.26706,-0.769292 -0.10964,-0.926711 0.15742,-0.157419 0.44624,0.130804 0.64183,0.640495 0.40608,1.058217 0.06,1.244355 -0.53219,0.286216 z M 73.819233,86.58733 c 0.02882,-0.699596 0.171118,-0.841897 0.362827,-0.362827 0.173478,0.433515 0.152143,0.951482 -0.04741,1.151036 -0.199555,0.199555 -0.341492,-0.155139 -0.315417,-0.788209 z m 8.454978,-5.054549 c 0,-0.825743 0.136306,-1.163547 0.302904,-0.750676 0.166597,0.412872 0.166597,1.08848 0,1.501352 -0.166598,0.412871 -0.302904,0.07507 -0.302904,-0.750676 z m -1.849033,-2.151937 c 0.02882,-0.699595 0.171118,-0.841897 0.362827,-0.362826 0.173478,0.433515 0.152143,0.951481 -0.04741,1.151036 -0.199555,0.199554 -0.341492,-0.15514 -0.315417,-0.78821 z m 7.612632,-2.952657 c -0.157851,-0.825743 -0.05423,-1.501351 0.230261,-1.501351 0.284494,0 0.517262,0.675608 0.517262,1.501351 0,0.825743 -0.103617,1.501351 -0.230261,1.501351 -0.126643,0 -0.359411,-0.675608 -0.517262,-1.501351 z m 28.25978,1.091114 c 0.43352,-0.173479 0.95148,-0.152144 1.15104,0.04741 0.19955,0.199554 -0.15514,0.341491 -0.78821,0.315415 -0.6996,-0.02882 -0.8419,-0.171118 -0.36283,-0.362825 z m -18.456739,-2.34224 c 0.02882,-0.699595 0.171118,-0.841897 0.362826,-0.362826 0.173479,0.433515 0.152144,0.951481 -0.04741,1.151035 -0.199554,0.199555 -0.341491,-0.155139 -0.315416,-0.788209 z m 7.759619,0.470904 c 0,-0.263973 1.01341,-0.383517 2.25202,-0.265653 3.86215,0.367515 4.17672,0.603559 0.90081,0.675941 -1.73406,0.03832 -3.15283,-0.146314 -3.15283,-0.410288 z m 8.29496,0.06971 c 0.43352,-0.173478 0.95148,-0.152143 1.15104,0.04741 0.19955,0.199555 -0.15514,0.341492 -0.78821,0.315416 -0.6996,-0.02882 -0.8419,-0.171118 -0.36283,-0.362826 z m 15.72665,0.183501 c 0,-0.124706 0.47293,-0.597631 1.05095,-1.050946 0.95249,-0.746995 0.97373,-0.725754 0.22674,0.226737 -0.78453,1.000349 -1.27769,1.318474 -1.27769,0.824209 z m -13.92175,-4.107939 c 0.32026,-0.320257 1.08392,-0.475957 1.69702,-0.346001 0.82563,0.175005 0.67462,0.326019 -0.58229,0.582286 -1.09587,0.223436 -1.49075,0.139736 -1.11473,-0.236285 z M 103.0857,71.513896 c 0.43352,-0.173479 0.95148,-0.152144 1.15104,0.04741 0.19955,0.199555 -0.15514,0.341492 -0.78821,0.315416 -0.6996,-0.02882 -0.8419,-0.171119 -0.36283,-0.362826 z"
         id="path7" /><path
         style="fill:#d35d5d"
         d="m 80.301165,220.40776 c -0.746995,-0.95249 -0.725753,-0.97373 0.226737,-0.22673 0.57802,0.45331 1.050946,0.92624 1.050946,1.05094 0,0.49427 -0.493155,0.17614 -1.277683,-0.82421 z m 1.520894,-1.50135 -1.144022,-1.35121 1.351216,1.14402 c 0.743169,0.62921 1.351216,1.23726 1.351216,1.35121 0,0.48059 -0.483311,0.12579 -1.55841,-1.14402 z m 54.929911,0.30027 c -0.747,-0.95249 -0.72576,-0.97373 0.22673,-0.22674 0.57802,0.45332 1.05095,0.92624 1.05095,1.05095 0,0.49427 -0.49316,0.17614 -1.27768,-0.82421 z m -50.068528,-1.95175 c 0.597829,-0.6606 1.222085,-1.20109 1.387233,-1.20109 0.165149,0 -0.188863,0.54049 -0.786693,1.20109 -0.59783,0.66059 -1.222085,1.20108 -1.387233,1.20108 -0.165149,0 0.188863,-0.54049 0.786693,-1.20108 z m -3.379575,-1.05095 c -0.746995,-0.95249 -0.725753,-0.97373 0.226737,-0.22674 0.578021,0.45332 1.050946,0.92624 1.050946,1.05095 0,0.49426 -0.493155,0.17614 -1.277683,-0.82421 z m 1.584008,-3.76317 c 0.207464,-0.33569 0.628778,-0.45486 0.936252,-0.26483 0.832976,0.5148 0.677657,0.87516 -0.377208,0.87516 -0.514939,0 -0.766509,-0.27465 -0.559044,-0.61033 z m 9.463887,0.19416 c 0.584306,-0.15226 1.395036,-0.14225 1.801621,0.0223 0.406585,0.1645 -0.07148,0.28908 -1.062375,0.27684 -0.990892,-0.0122 -1.323553,-0.14683 -0.739246,-0.2991 z m 25.511538,-1.18264 c 0.41287,-0.16659 1.08848,-0.16659 1.50135,0 0.41287,0.1666 0.0751,0.30291 -0.75067,0.30291 -0.82575,0 -1.16355,-0.13631 -0.75068,-0.30291 z m -26.712619,-0.61898 c 0.584306,-0.15226 1.395036,-0.14225 1.801621,0.0223 0.406585,0.16451 -0.07148,0.28908 -1.062375,0.27685 -0.990892,-0.0122 -1.323553,-0.14684 -0.739246,-0.2991 z m 10.548969,-2.78122 c 0.7212,-0.76767 1.10611,-1.62173 0.85536,-1.8979 -0.25074,-0.27618 -0.0978,-0.29518 0.33994,-0.0422 0.61848,0.35741 0.49477,0.78038 -0.55508,1.8979 -0.74301,0.7909 -1.48605,1.438 -1.6512,1.438 -0.16515,0 0.28979,-0.6281 1.01098,-1.39577 z m 20.81784,-0.40585 c 0.20413,-0.3303 0.49033,-0.60054 0.63598,-0.60054 0.14566,0 0.26483,0.27024 0.26483,0.60054 0,0.3303 -0.28619,0.60054 -0.63598,0.60054 -0.34979,0 -0.46897,-0.27024 -0.26483,-0.60054 z m -5.81774,-2.21186 c 0.43352,-0.17348 0.95149,-0.15214 1.15104,0.0474 0.19955,0.19955 -0.15514,0.34149 -0.78821,0.31542 -0.6996,-0.0288 -0.8419,-0.17112 -0.36283,-0.36283 z m 12.81878,-0.79084 c 0,-0.82575 0.1363,-1.16355 0.3029,-0.75068 0.1666,0.41287 0.1666,1.08848 0,1.50135 -0.1666,0.41287 -0.3029,0.0751 -0.3029,-0.75067 z m -24.56685,-1.01451 c 0.57802,-0.15106 1.52387,-0.15106 2.10189,0 0.57802,0.15105 0.1051,0.27464 -1.05094,0.27464 -1.15604,0 -1.62897,-0.12359 -1.05095,-0.27464 z M 89.986414,202.8774 c 0,-0.31081 0.267148,-0.73021 0.593662,-0.93201 0.340422,-0.21039 0.441101,0.0307 0.236019,0.5651 -0.399234,1.04039 -0.829681,1.23074 -0.829681,0.36691 z m 3.302972,-6.04085 c 0.59783,-0.66059 1.222085,-1.20108 1.387234,-1.20108 0.165149,0 -0.188863,0.54049 -0.786693,1.20108 -0.59783,0.66059 -1.222085,1.20108 -1.387234,1.20108 -0.165148,0 0.188864,-0.54049 0.786693,-1.20108 z m 5.199416,0 c 0,-0.82574 0.136307,-1.16355 0.302905,-0.75068 0.166597,0.41288 0.166597,1.08848 0,1.50136 -0.166598,0.41287 -0.302905,0.0751 -0.302905,-0.75068 z m 3.058018,0.78711 c 0.57802,-0.15105 1.52387,-0.15105 2.10189,0 0.57802,0.15106 0.10509,0.27464 -1.05095,0.27464 -1.15604,0 -1.62896,-0.12358 -1.05094,-0.27464 z m 36.26566,-4.09008 c -0.19012,-0.49545 -0.0839,-0.90081 0.23602,-0.90081 0.31993,0 0.58169,0.40536 0.58169,0.90081 0,0.49544 -0.10621,0.90081 -0.23602,0.90081 -0.12981,0 -0.39157,-0.40537 -0.58169,-0.90081 z m 9.82582,-2.73788 c 0,-0.34979 0.27024,-0.46896 0.60054,-0.26483 0.33029,0.20414 0.60054,0.49033 0.60054,0.63599 0,0.14565 -0.27025,0.26483 -0.60054,0.26483 -0.3303,0 -0.60054,-0.2862 -0.60054,-0.63599 z m 1.20108,-4.99562 c 0,-0.1247 0.47292,-0.59763 1.05094,-1.05094 0.95249,-0.747 0.97373,-0.72576 0.22674,0.22674 -0.78453,1.00034 -1.27768,1.31847 -1.27768,0.8242 z m -87.154969,-3.82691 c -0.746994,-0.95249 -0.725753,-0.97373 0.226738,-0.22673 0.57802,0.45331 1.050945,0.92624 1.050945,1.05094 0,0.49427 -0.493155,0.17614 -1.277683,-0.82421 z m 101.491339,-9.0081 c -0.747,-0.95249 -0.72576,-0.97374 0.22673,-0.22674 0.57802,0.45331 1.05095,0.92624 1.05095,1.05094 0,0.49427 -0.49316,0.17615 -1.27768,-0.8242 z m 3.76345,-7.3766 c -0.77977,-0.64961 -1.15945,-1.18111 -0.84376,-1.18111 0.3157,0 1.06313,0.54049 1.66096,1.20109 1.37336,1.51755 1.01795,1.50886 -0.8172,-0.02 z M 50.350745,157.5654 c 0,-0.12981 0.419401,-0.39696 0.932002,-0.59366 0.534436,-0.20508 0.77549,-0.1044 0.565098,0.23602 -0.352672,0.57063 -1.4971,0.84403 -1.4971,0.35764 z m -3.152837,-6.16711 c 0.412871,-0.1666 1.088479,-0.1666 1.501351,0 0.412871,0.1666 0.07507,0.3029 -0.750676,0.3029 -0.825743,0 -1.163547,-0.1363 -0.750675,-0.3029 z m 124.509412,-6.55854 c 0.0288,-0.69959 0.17112,-0.84189 0.36283,-0.36282 0.17348,0.43351 0.15214,0.95148 -0.0474,1.15103 -0.19955,0.19956 -0.34149,-0.15514 -0.31542,-0.78821 z M 48.643946,131.97818 c 0,-0.82574 0.136307,-1.16355 0.302904,-0.75068 0.166597,0.41288 0.166597,1.08848 0,1.50136 -0.166597,0.41287 -0.302904,0.0751 -0.302904,-0.75068 z m 127.058334,-1.24922 c 0.21236,-0.81205 0.48458,-1.08427 0.6345,-0.6345 0.14442,0.43325 -0.023,1.07326 -0.37192,1.42223 -0.44564,0.44565 -0.5238,0.21118 -0.26258,-0.78773 z m -4.64291,-4.72074 c 0,-0.31081 0.26715,-0.73021 0.59366,-0.932 0.34043,-0.2104 0.44111,0.0307 0.23602,0.56509 -0.39923,1.04039 -0.82968,1.23074 -0.82968,0.36691 z m 1.68902,-2.84784 c 0.43352,-0.17348 0.95148,-0.15215 1.15104,0.0474 0.19955,0.19955 -0.15514,0.34149 -0.78821,0.31541 -0.6996,-0.0288 -0.8419,-0.17112 -0.36283,-0.36282 z M 49.073062,115.91372 c -0.746995,-0.95249 -0.725753,-0.97373 0.226737,-0.22673 0.578021,0.45331 1.050946,0.92624 1.050946,1.05094 0,0.49427 -0.493155,0.17614 -1.277683,-0.82421 z M 160.13704,94.934974 c 0.43352,-0.173479 0.95149,-0.152144 1.15104,0.04741 0.19955,0.199555 -0.15514,0.341492 -0.78821,0.315416 -0.69959,-0.02882 -0.8419,-0.171119 -0.36283,-0.362826 z m -4.80432,-0.60054 c 0.43352,-0.173479 0.95148,-0.152144 1.15104,0.04741 0.19955,0.199554 -0.15514,0.341491 -0.78821,0.315415 -0.6996,-0.02882 -0.8419,-0.171118 -0.36283,-0.362825 z M 69.568039,90.914691 c 0,-0.124705 0.472926,-0.597631 1.050946,-1.050946 0.95249,-0.746994 0.973732,-0.725753 0.226737,0.226738 -0.784528,1.000349 -1.277683,1.318473 -1.277683,0.824208 z M 90.193647,78.203908 c -0.195587,-0.509691 -0.221428,-1.060896 -0.05742,-1.2249 0.164004,-0.164004 0.442332,0.253016 0.618508,0.926711 0.374226,1.431045 -0.04157,1.652022 -0.561085,0.298189 z m 5.892994,-3.277072 c 0,-0.825743 0.136306,-1.163547 0.302904,-0.750676 0.166597,0.412872 0.166597,1.08848 0,1.501351 -0.166598,0.412872 -0.302904,0.07507 -0.302904,-0.750675 z m 19.572879,0.803354 c 0.41287,-0.166597 1.08848,-0.166597 1.50135,0 0.41287,0.166598 0.0751,0.302905 -0.75068,0.302905 -0.82574,0 -1.16354,-0.136307 -0.75067,-0.302905 z"
         id="path6" /><path
         style="fill:#569956"
         d="m 109.89907,181.82304 c 0,-0.82575 0.13631,-1.16355 0.3029,-0.75068 0.1666,0.41287 0.1666,1.08848 0,1.50135 -0.16659,0.41288 -0.3029,0.0751 -0.3029,-0.75067 z m 1.24559,-3.60324 c 0,-1.15605 0.12358,-1.62897 0.27464,-1.05095 0.15105,0.57802 0.15105,1.52387 0,2.10189 -0.15106,0.57802 -0.27464,0.1051 -0.27464,-1.05094 z m -6.44501,-1.80163 c -0.20413,-0.33029 -0.085,-0.60054 0.26483,-0.60054 0.34979,0 0.63599,0.27025 0.63599,0.60054 0,0.3303 -0.11918,0.60054 -0.26483,0.60054 -0.14566,0 -0.43185,-0.27024 -0.63599,-0.60054 z m 4.65419,-1.61504 c 0.57802,-0.15106 1.52387,-0.15106 2.10189,0 0.57802,0.15105 0.1051,0.27464 -1.05094,0.27464 -1.15604,0 -1.62897,-0.12359 -1.05095,-0.27464 z m -7.05635,-0.78712 c 0.20414,-0.3303 0.96326,-0.58154 1.68693,-0.55833 1.26856,0.0407 1.27268,0.0607 0.11469,0.55833 -1.65297,0.71031 -2.24061,0.71031 -1.80162,0 z m 14.41297,0 -1.20108,-0.51612 1.20108,-0.033 c 0.6606,-0.0182 1.60645,0.22895 2.1019,0.54913 0.80072,0.51747 0.80072,0.57848 0,0.54914 -0.49545,-0.0182 -1.4413,-0.26527 -2.1019,-0.54914 z m 3.16218,-0.82915 c -0.57289,-0.43503 -0.86565,-0.96692 -0.65059,-1.18198 0.65385,-0.65385 1.4012,-0.4374 1.24179,0.35965 -0.0826,0.41287 0.20776,0.67641 0.64518,0.58566 0.43742,-0.0908 0.62416,0.11192 0.41496,0.4504 -0.46057,0.74522 -0.37369,0.75646 -1.65134,-0.21373 z m -18.87632,-0.6722 c 0,-0.43246 0.36033,-0.64803 0.80072,-0.47903 0.4404,0.16899 0.80072,0.38456 0.80072,0.47903 0,0.0945 -0.36032,0.31004 -0.80072,0.47903 -0.44039,0.169 -0.80072,-0.0466 -0.80072,-0.47903 z m 3.87587,-0.79288 c -0.5657,-0.22451 2.08512,-0.4082 5.89071,-0.4082 3.80559,0 6.29526,0.17574 5.5326,0.39054 -1.84693,0.52018 -10.12485,0.53297 -11.42331,0.0177 z m 3.61838,-2.31979 c 0.43351,-0.17348 0.95148,-0.15214 1.15103,0.0474 0.19956,0.19956 -0.15514,0.34149 -0.78821,0.31542 -0.69959,-0.0288 -0.84189,-0.17112 -0.36282,-0.36283 z m 2.7713,-0.38797 c -0.16846,-0.43901 -0.21555,-3.209 -0.10464,-6.15554 l 0.20166,-5.35733 0.12349,5.80522 c 0.0847,3.98417 0.35897,5.90025 0.87417,6.10813 0.58796,0.23725 0.58387,0.31318 -0.0189,0.35032 -0.42324,0.0261 -0.90736,-0.31178 -1.07583,-0.7508 z m -12.343951,-2.6549 c -0.746995,-0.95249 -0.725754,-0.97373 0.226737,-0.22674 0.57802,0.45332 1.050944,0.92624 1.050944,1.05095 0,0.49427 -0.493154,0.17614 -1.277681,-0.82421 z m 38.062091,-3.45311 c 0.007,-1.32119 0.12965,-1.79096 0.2733,-1.04394 0.14364,0.74702 0.13819,1.82799 -0.0121,2.40216 -0.15031,0.57417 -0.26784,-0.037 -0.26118,-1.35822 z m -53.504719,-0.30027 c 0,-0.82574 0.136307,-1.16354 0.302905,-0.75067 0.166597,0.41287 0.166597,1.08848 0,1.50135 -0.166598,0.41287 -0.302905,0.0751 -0.302905,-0.75068 z m 19.723009,0.0354 c 0,-0.31081 0.26715,-0.73021 0.59367,-0.93201 0.34042,-0.21039 0.4411,0.0307 0.23601,0.5651 -0.39923,1.04039 -0.82968,1.23074 -0.82968,0.36691 z m -12.611346,-0.29346 c 0,-0.16515 0.540487,-0.58953 1.201081,-0.94307 0.660595,-0.35354 1.201081,-0.50768 1.201081,-0.34253 0,0.16515 -0.540486,0.58953 -1.201081,0.94307 -0.660594,0.35354 -1.201081,0.50768 -1.201081,0.34253 z m 8.962655,-5.59726 -1.455899,-1.65148 1.651486,1.4559 c 1.543564,1.36075 1.926884,1.84707 1.455894,1.84707 -0.10757,0 -0.85074,-0.74317 -1.651481,-1.65149 z m 34.800191,-0.60054 c -0.74699,-0.95249 -0.72575,-0.97373 0.22674,-0.22673 0.57802,0.45331 1.05095,0.92624 1.05095,1.05094 0,0.49427 -0.49316,0.17614 -1.27769,-0.82421 z m -24.40544,-4.95446 c 10e-4,-1.15604 0.20829,-2.91262 0.46043,-3.90351 0.41767,-1.64143 0.46167,-1.66813 0.49488,-0.30027 0.02,0.82574 -0.18715,2.58233 -0.46043,3.90351 l -0.49687,2.40217 z m 10.2084,0 c 0,-1.15604 0.12359,-1.62896 0.27464,-1.05094 0.15106,0.57802 0.15106,1.52387 0,2.10189 -0.15105,0.57802 -0.27464,0.10509 -0.27464,-1.05095 z m -17.555,-6.79385 c 0,-0.10336 0.87829,-0.98165 1.95176,-1.95176 l 1.95176,-1.76384 -1.76385,1.95175 c -1.64414,1.81931 -2.13967,2.2278 -2.13967,1.76385 z m 4.80433,-4.24261 c 0,-0.12471 0.47292,-0.59763 1.05094,-1.05095 0.95249,-0.74699 0.97373,-0.72575 0.22674,0.22674 -0.78453,1.00035 -1.27768,1.31847 -1.27768,0.82421 z m 3.52664,-2.02529 c -0.747,-0.95249 -0.72576,-0.97373 0.22673,-0.22674 1.00035,0.78453 1.31848,1.27769 0.82421,1.27769 -0.1247,0 -0.59763,-0.47293 -1.05094,-1.05095 z"
         id="path5" /><path
         style="fill:#595959"
         d="m 59.243157,150.14605 c 4.065083,-0.10405 10.55092,-0.10372 14.41297,7.2e-4 3.862051,0.10444 0.536074,0.18957 -7.39106,0.18918 -7.927134,-3.9e-4 -11.086994,-0.0858 -7.02191,-0.1899 z m 85.992973,0.03 c 12.71146,-0.42818 23.88523,-0.44306 23.62977,-0.0315 -0.15377,0.24772 -6.6819,0.39483 -14.50697,0.32691 -7.82506,-0.0679 -11.93032,-0.20086 -9.1228,-0.29543 z m -84.188258,-4.79564 c 0.433515,-0.17348 0.951481,-0.15214 1.151036,0.0474 0.199554,0.19956 -0.15514,0.3415 -0.78821,0.31542 -0.699595,-0.0288 -0.841897,-0.17112 -0.362826,-0.36283 z m 7.807025,-0.60054 c 0.433516,-0.17348 0.951482,-0.15214 1.151036,0.0474 0.199555,0.19956 -0.155139,0.34149 -0.788209,0.31542 -0.699595,-0.0288 -0.841897,-0.17112 -0.362827,-0.36283 z m 22.219997,-0.60054 c 0.433515,-0.17348 0.951481,-0.15214 1.151035,0.0474 0.199555,0.19956 -0.155139,0.34149 -0.788209,0.31542 -0.699595,-0.0288 -0.841897,-0.17112 -0.362826,-0.36283 z m 63.619756,-0.0242 c 1.07346,-0.13321 2.83004,-0.13321 3.90351,0 1.07347,0.13322 0.19517,0.24221 -1.95176,0.24221 -2.14693,0 -3.02522,-0.10899 -1.95175,-0.24221 z m -95.936339,-1.03148 c 0,-0.47595 0.245041,-1.01681 0.544535,-1.20191 0.299494,-0.1851 0.403097,0.20432 0.230228,0.86537 -0.366697,1.40225 -0.774763,1.57951 -0.774763,0.33654 z m 62.663439,-0.66188 c -0.19559,-0.50969 -0.18711,-1.09522 0.0189,-1.30117 0.20595,-0.20596 0.37446,0.0561 0.37446,0.5824 0,0.52628 0.47292,1.08046 1.05094,1.23151 0.98494,0.25739 0.98376,0.27902 -0.0188,0.34431 -0.58839,0.0383 -1.22982,-0.34736 -1.42541,-0.85705 z m -59.660737,-0.10215 c 0.495446,-0.18342 1.306176,-0.63501 1.801622,-1.00353 0.782778,-0.58225 0.792815,-0.53234 0.0766,0.3809 -0.453315,0.57802 -1.264044,1.02961 -1.801621,1.00354 -0.817606,-0.0397 -0.83013,-0.10194 -0.0766,-0.38091 z m 12.498748,-0.58246 c 0.433515,-0.17348 0.951482,-0.15214 1.151036,0.0474 0.199555,0.19956 -0.155139,0.34149 -0.788209,0.31542 -0.699596,-0.0288 -0.841897,-0.17112 -0.362827,-0.36283 z m 55.850259,0 c 0.43352,-0.17348 0.95148,-0.15214 1.15104,0.0474 0.19955,0.19956 -0.15514,0.34149 -0.78821,0.31542 -0.6996,-0.0288 -0.8419,-0.17112 -0.36283,-0.36283 z m 8.37003,-0.0136 c 0.74317,-0.14314 1.95927,-0.14314 2.70244,0 0.74317,0.14314 0.13512,0.26025 -1.35122,0.26025 -1.48634,0 -2.09438,-0.11711 -1.35122,-0.26025 z m 10.66385,-0.16984 c -0.21039,-0.34043 0.0307,-0.44111 0.5651,-0.23602 1.04038,0.39923 1.23074,0.82968 0.3669,0.82968 -0.3108,0 -0.7302,-0.26715 -0.932,-0.59366 z m 20.83147,-0.90769 c 0.0122,-0.9909 0.14683,-1.32356 0.29909,-0.73925 0.15226,0.58431 0.14225,1.39504 -0.0223,1.80162 -0.1645,0.40659 -0.28908,-0.0715 -0.27684,-1.06237 z m -88.396522,0.67407 c 0,-0.12471 0.472926,-0.59763 1.050946,-1.05095 0.95249,-0.74699 0.973732,-0.72575 0.226737,0.22674 -0.784528,1.00035 -1.277683,1.31848 -1.277683,0.82421 z m 73.115802,-0.17099 c 0.41287,-0.1666 1.08848,-0.1666 1.50135,0 0.41287,0.1666 0.0751,0.3029 -0.75068,0.3029 -0.82574,0 -1.16355,-0.1363 -0.75067,-0.3029 z m -32.72946,-1.21732 c 0.57802,-0.15105 1.52387,-0.15105 2.10189,0 0.57802,0.15105 0.1051,0.27464 -1.05094,0.27464 -1.15604,0 -1.62897,-0.12359 -1.05095,-0.27464 z m 41.17456,0.004 c 0.43351,-0.17348 0.95148,-0.15214 1.15103,0.0474 0.19956,0.19955 -0.15514,0.34149 -0.78821,0.31542 -0.69959,-0.0288 -0.84189,-0.17112 -0.36282,-0.36283 z M 50.514311,137.38304 c 0,-1.48633 0.117115,-2.09438 0.260255,-1.35121 0.143141,0.74317 0.143141,1.95926 0,2.70243 -0.14314,0.74317 -0.260255,0.13512 -0.260255,-1.35122 z m 20.742748,1.39139 c 0.433515,-0.17348 0.951481,-0.15215 1.151036,0.0474 0.199555,0.19955 -0.15514,0.34149 -0.788209,0.31541 -0.699596,-0.0288 -0.841898,-0.17111 -0.362827,-0.36282 z m -3.490641,-1.99193 c -0.541262,-0.34979 -0.615333,-0.58582 -0.185577,-0.59134 0.393378,-0.005 0.882253,0.26105 1.086387,0.59134 0.460798,0.74559 0.252902,0.74559 -0.90081,0 z m 49.768252,-0.4504 c -0.74699,-0.95249 -0.72575,-0.97373 0.22674,-0.22674 0.57802,0.45332 1.05095,0.92624 1.05095,1.05095 0,0.49426 -0.49316,0.17614 -1.27769,-0.82421 z m 40.16968,0.62621 c 0.74702,-0.14365 1.82799,-0.1382 2.40216,0.0121 0.57417,0.15032 -0.037,0.26784 -1.35822,0.26118 -1.32118,-0.007 -1.79096,-0.12965 -1.04394,-0.27329 z m -98.006618,-2.15346 c 0.225522,-0.59227 0.561321,-0.92557 0.746219,-0.74067 0.184899,0.1849 3.81e-4,0.66948 -0.410039,1.07685 -0.593103,0.58869 -0.662084,0.51971 -0.33618,-0.33618 z M 169.99762,133.7798 c 0,-1.15604 0.12359,-1.62896 0.27464,-1.05094 0.15105,0.57802 0.15105,1.52387 0,2.10189 -0.15105,0.57802 -0.27464,0.10509 -0.27464,-1.05095 z m -96.338399,0.79084 c 0.433515,-0.17347 0.951481,-0.15214 1.151036,0.0474 0.199554,0.19955 -0.15514,0.34149 -0.78821,0.31541 -0.699595,-0.0288 -0.841897,-0.17112 -0.362826,-0.36283 z m 29.388949,0.0125 c 0.41287,-0.1666 0.75067,-0.94005 0.75067,-1.71877 0,-0.77873 0.27025,-1.58289 0.60054,-1.78702 0.75982,-0.46959 0.76523,0.38948 0.0149,2.36307 -0.32212,0.84724 -0.93017,1.51911 -1.35122,1.49303 -0.60227,-0.0373 -0.60544,-0.11201 -0.0149,-0.35031 z m 17.33228,-0.0948 c -0.19458,-0.31485 0.0269,-0.88839 0.49219,-1.27455 0.66746,-0.55394 0.81758,-0.5086 0.7114,0.21484 -0.18195,1.2397 -0.77153,1.7588 -1.20359,1.05971 z m 16.44812,0.2658 c 0,-0.1247 0.47292,-0.59763 1.05094,-1.05094 0.95249,-0.747 0.97374,-0.72575 0.22674,0.22674 -0.78453,1.00035 -1.27768,1.31847 -1.27768,0.8242 z m -64.763547,-1.57488 c 0,-0.82574 0.136307,-1.16355 0.302904,-0.75067 0.166598,0.41287 0.166598,1.08847 0,1.50135 -0.166597,0.41287 -0.302904,0.0751 -0.302904,-0.75068 z m 25.971628,-0.15013 -1.144022,-1.35122 1.351216,1.14402 c 1.26981,1.0751 1.624607,1.55841 1.144022,1.55841 -0.113957,0 -0.722004,-0.60805 -1.351216,-1.35121 z m 2.966719,0.4245 c -0.19558,-0.50969 -0.22142,-1.0609 -0.0574,-1.2249 0.16401,-0.164 0.44233,0.25302 0.61851,0.92671 0.37423,1.43105 -0.0416,1.65202 -0.56109,0.29819 z m 30.42033,0.36161 c 0,-0.3108 0.26715,-0.7302 0.59367,-0.932 0.34042,-0.21039 0.4411,0.0307 0.23602,0.5651 -0.39924,1.04039 -0.82969,1.23074 -0.82969,0.3669 z m -67.937667,-1.08638 c -0.746995,-0.9525 -0.725754,-0.97374 0.226737,-0.22674 1.000349,0.78453 1.318474,1.27768 0.824208,1.27768 -0.124705,0 -0.597631,-0.47292 -1.050945,-1.05094 z m 78.908967,0.63477 c 0.5843,-0.15226 1.39503,-0.14225 1.80162,0.0222 0.40658,0.16451 -0.0715,0.28909 -1.06238,0.27685 -0.99089,-0.0122 -1.32355,-0.14683 -0.73924,-0.2991 z m -51.081047,-1.14575 c -0.425894,-0.46213 -0.509404,-0.84024 -0.185577,-0.84024 0.623625,0 1.52641,1.14236 1.1702,1.48074 -0.115649,0.10986 -0.558729,-0.17837 -0.984623,-0.6405 z m 62.930287,0.73464 c 0,-0.1247 0.47293,-0.59763 1.05095,-1.05094 0.95249,-0.747 0.97373,-0.72576 0.22673,0.22673 -0.78452,1.00035 -1.27768,1.31848 -1.27768,0.82421 z m -3.75338,-1.37207 c 0.41287,-0.16659 1.08848,-0.16659 1.50135,0 0.41288,0.1666 0.0751,0.30291 -0.75067,0.30291 -0.82574,0 -1.16355,-0.13631 -0.75068,-0.30291 z m -48.65378,-0.87787 c 0.40737,-0.41042 0.89195,-0.59494 1.07684,-0.41004 0.1849,0.1849 -0.1484,0.5207 -0.74066,0.74622 -0.85589,0.3259 -0.92487,0.25692 -0.33618,-0.33618 z m -23.109488,-2.02737 c 0.0067,-1.32119 0.129647,-1.79097 0.273292,-1.04395 0.143646,0.74702 0.138192,1.828 -0.01212,2.40217 -0.150311,0.57416 -0.267839,-0.037 -0.261172,-1.35822 z m 79.363108,0.15013 -1.14403,-1.35121 1.35122,1.14402 c 1.26981,1.0751 1.62461,1.55841 1.14402,1.55841 -0.11396,0 -0.722,-0.60805 -1.35121,-1.35122 z m -55.65975,-1.09532 c 0.73399,-0.76464 1.48559,-1.23919 1.67022,-1.05455 0.18464,0.18463 -0.4159,0.81024 -1.33453,1.39025 l -1.67023,1.05455 z m 1.8183,0.84773 c 0.41287,-0.1666 1.08848,-0.1666 1.50135,0 0.41287,0.1666 0.0751,0.30291 -0.75067,0.30291 -0.82575,0 -1.16355,-0.13631 -0.75068,-0.30291 z m -5.85527,-0.39073 c 0,-0.10335 0.878291,-0.98164 1.95176,-1.95175 l 1.95175,-1.76385 -1.76384,1.95176 c -1.644147,1.81931 -2.13967,2.2278 -2.13967,1.76384 z m -8.182792,-1.29362 c -0.18594,-0.48455 -0.198793,-1.22772 -0.02856,-1.65149 0.17023,-0.42377 0.330843,-0.13353 0.356919,0.64498 0.03427,1.02326 0.305658,1.31637 0.979413,1.05783 0.534436,-0.20509 0.775491,-0.10441 0.565098,0.23601 -0.537425,0.86958 -1.484687,0.72425 -1.872866,-0.28733 z m -24.393374,-3.62306 c -0.157851,-0.82574 -0.05423,-1.50135 0.230261,-1.50135 0.284494,0 0.517262,0.67561 0.517262,1.50135 0,0.82575 -0.103617,1.50135 -0.230261,1.50135 -0.126643,0 -0.359412,-0.6756 -0.517262,-1.50135 z m 4.20063,-2.49961 c 0.412872,-0.1666 1.08848,-0.1666 1.501352,0 0.412871,0.16659 0.07507,0.3029 -0.750676,0.3029 -0.825743,0 -1.163547,-0.13631 -0.750676,-0.3029 z m 40.386346,-1.0301 c 0,-0.1247 0.47292,-0.59763 1.05094,-1.05094 0.9525,-0.747 0.97374,-0.72576 0.22674,0.22673 -0.78453,1.00035 -1.27768,1.31848 -1.27768,0.82421 z m -43.916055,-1.42475 c -0.746995,-0.95249 -0.725753,-0.97373 0.226737,-0.22673 0.57802,0.45331 1.050946,0.92624 1.050946,1.05094 0,0.49427 -0.493155,0.17614 -1.277683,-0.82421 z m 75.283485,-1.35121 c 0,-1.15604 0.12359,-1.62897 0.27464,-1.05095 0.15105,0.57802 0.15105,1.52387 0,2.10189 -0.15105,0.57802 -0.27464,0.1051 -0.27464,-1.05094 z m -29.47099,-1.20108 c 0,-0.82575 0.13631,-1.16355 0.30291,-0.75068 0.16659,0.41287 0.16659,1.08848 0,1.50135 -0.1666,0.41287 -0.30291,0.0751 -0.30291,-0.75067 z m -28.920761,0.3738 c 0,-0.1247 0.472926,-0.59763 1.050946,-1.05095 0.952491,-0.74699 0.973732,-0.72575 0.226737,0.22674 -0.784528,1.00035 -1.277683,1.31848 -1.277683,0.82421 z m 3.050114,-0.72412 c 0.02882,-0.69959 0.171118,-0.8419 0.362826,-0.36282 0.173479,0.43351 0.152144,0.95148 -0.04741,1.15103 -0.199555,0.19956 -0.341492,-0.15514 -0.315416,-0.78821 z m 32.429187,0 c 0.0288,-0.69959 0.17111,-0.8419 0.36282,-0.36282 0.17348,0.43351 0.15215,0.95148 -0.0474,1.15103 -0.19955,0.19956 -0.34149,-0.15514 -0.31541,-0.78821 z m -6.53629,-4.75428 c 0.0122,-0.99089 0.14684,-1.32355 0.2991,-0.73924 0.15226,0.5843 0.14225,1.39503 -0.0222,1.80162 -0.16451,0.40658 -0.28908,-0.0715 -0.27685,-1.06238 z m 7.80703,0 c 0.0122,-0.99089 0.14683,-1.32355 0.29909,-0.73924 0.15227,0.5843 0.14225,1.39503 -0.0222,1.80162 -0.1645,0.40658 -0.28908,-0.0715 -0.27684,-1.06238 z m -17.69416,-0.34841 c 0.21235,-0.81205 0.48457,-1.08427 0.6345,-0.6345 0.14442,0.43326 -0.0229,1.07326 -0.37193,1.42224 -0.44564,0.44564 -0.52379,0.21117 -0.26257,-0.78774 z m -1.19981,-2.42854 c 0.40736,-0.41042 0.89195,-0.59494 1.07684,-0.41004 0.1849,0.1849 -0.1484,0.5207 -0.74066,0.74622 -0.85589,0.32591 -0.92487,0.25692 -0.33618,-0.33618 z m 11.06469,-2.32764 c 0,-0.82574 0.13631,-1.16355 0.30291,-0.75068 0.16659,0.41288 0.16659,1.08848 0,1.50136 -0.1666,0.41287 -0.30291,0.0751 -0.30291,-0.75068 z m 6.55854,-1.5514 c 0.0288,-0.69959 0.17111,-0.84189 0.36282,-0.36282 0.17348,0.43351 0.15215,0.95148 -0.0474,1.15103 -0.19955,0.19956 -0.34149,-0.15514 -0.31541,-0.78821 z m -5.52888,-1.90171 c -0.747,-0.95249 -0.72575,-0.97373 0.22674,-0.22674 0.57802,0.45332 1.05094,0.92624 1.05094,1.05095 0,0.49427 -0.49315,0.17614 -1.27768,-0.82421 z m -6.48193,-1.10099 c 0.0288,-0.69959 0.17112,-0.8419 0.36282,-0.36283 0.17348,0.43352 0.15215,0.95149 -0.0474,1.15104 -0.19955,0.19955 -0.34149,-0.15514 -0.31541,-0.78821 z m 4.04377,-0.0599 c 0.43351,-0.17348 0.95148,-0.15214 1.15103,0.0474 0.19956,0.19955 -0.15514,0.34149 -0.78821,0.31542 -0.69959,-0.0288 -0.84189,-0.17112 -0.36282,-0.36283 z m 1.90218,-1.105628 c -0.41781,-0.503427 -0.64335,-1.031624 -0.50121,-1.173769 0.14215,-0.142145 0.58831,0.26975 0.99148,0.915323 0.87187,1.396094 0.5811,1.549374 -0.49027,0.258446 z m 8.11934,-0.285757 c -0.97913,-0.420745 -1.01342,-0.523922 -0.18558,-0.558331 0.55853,-0.02322 1.18252,0.228034 1.38666,0.558331 0.42678,0.690545 0.40591,0.690545 -1.20108,0 z m 28.49334,-1.651486 -2.06956,-2.252027 2.25202,2.069562 c 1.23862,1.13826 2.25203,2.151672 2.25203,2.252027 0,0.458589 -0.50819,0.02657 -2.43449,-2.069562 z m 3.03503,-2.852568 c -1.45873,-1.486337 -2.51712,-2.702432 -2.35197,-2.702432 0.16515,0 1.49378,1.216095 2.95251,2.702432 1.45873,1.486338 2.51711,2.702432 2.35197,2.702432 -0.16515,0 -1.49378,-1.216094 -2.95251,-2.702432 z m -39.79581,1.426832 c 0.40736,-0.410421 0.89194,-0.594938 1.07684,-0.41004 0.1849,0.184899 -0.1484,0.520697 -0.74066,0.746219 -0.85589,0.325904 -0.92487,0.256924 -0.33618,-0.336179 z M 67.165877,95.719015 c 0,-0.124706 0.472926,-0.597631 1.050946,-1.050946 0.952491,-0.746995 0.973732,-0.725753 0.226737,0.226737 -0.784527,1.000349 -1.277683,1.318474 -1.277683,0.824209 z M 108.43964,81.699892 c 1.0661,-0.132666 2.9578,-0.134846 4.20378,-0.0048 1.24598,0.130002 0.37372,0.238548 -1.93836,0.241212 -2.31208,0.0027 -3.33152,-0.103701 -2.26542,-0.236368 z m -1.78123,-4.195093 c 0.74702,-0.143645 1.828,-0.138191 2.40216,0.01212 0.57417,0.150311 -0.037,0.267839 -1.35821,0.261173 -1.32119,-0.0067 -1.79097,-0.129647 -1.04395,-0.273293 z m 5.69814,0.01077 c 0.57802,-0.151052 1.52387,-0.151052 2.10189,0 0.57802,0.151053 0.10509,0.274641 -1.05095,0.274641 -1.15604,0 -1.62896,-0.123588 -1.05094,-0.274641 z"
         id="path4" /><path
         style="fill:#ba0000"
         d="m 133.93545,222.49156 c -0.98451,-1.18626 1.94245,-4.02536 3.02937,-2.93844 0.56082,0.56082 0.3817,1.06007 -0.80668,2.24845 -1.27593,1.27592 -1.64207,1.38959 -2.22269,0.68999 z m -53.40183,-2.2051 c -1.053465,-1.33599 -1.165099,-1.77557 -0.514335,-2.02529 1.028465,-0.39466 3.635823,2.26732 3.08839,3.15308 -0.597683,0.96707 -1.093483,0.74984 -2.574055,-1.12779 z m 52.99198,-1.22991 c 0.59783,-0.6606 1.22208,-1.20108 1.38723,-1.20108 0.16515,0 -0.18886,0.54048 -0.78669,1.20108 -0.59783,0.66059 -1.22209,1.20108 -1.38724,1.20108 -0.16515,0 0.18887,-0.54049 0.7867,-1.20108 z m -50.791124,-1.05095 -1.455898,-1.65149 1.651486,1.4559 c 1.543562,1.36076 1.926887,1.84708 1.455899,1.84708 -0.107574,0 -0.850742,-0.74317 -1.651487,-1.65149 z m 47.428234,0.0779 c -0.67327,-0.81123 -0.61985,-1.08707 0.3475,-1.79441 1.30944,-0.95749 2.07842,-1.03066 3.22101,-0.30649 0.61465,0.38957 0.38105,0.81364 -0.9834,1.78522 -1.62456,1.15679 -1.8629,1.18589 -2.58511,0.31568 z m -45.788354,-1.32631 c -0.546638,-0.60403 -0.993887,-1.27963 -0.993887,-1.50135 0,-0.59018 2.560314,-0.47465 3.564627,0.16085 0.714547,0.45215 0.727665,0.70767 0.0766,1.49215 -1.00901,1.21579 -1.431746,1.19157 -2.647342,-0.15165 z m 17.364654,-1.23588 c -0.18101,-0.29287 0.10352,-0.89154 0.63227,-1.33037 0.52876,-0.43883 1.13383,-1.2436 1.34461,-1.78839 0.34865,-0.90114 0.65238,-0.9115 3.36622,-0.11478 l 2.983,0.87574 -2.38246,1.44207 c -2.39799,1.45148 -5.33306,1.90368 -5.94364,0.91573 z m 14.72467,-0.12251 -1.44786,-0.57887 1.68022,-1.75377 c 1.38727,-1.44801 2.00383,-1.68904 3.53643,-1.38252 1.02092,0.20418 2.31941,0.9332 2.88553,1.62003 0.99072,1.20197 0.96871,1.27591 -0.58722,1.97237 -1.9362,0.86668 -4.09707,0.9104 -6.0671,0.12276 z m -20.471862,-1.14662 c -1.61019,-0.88154 -1.817057,-1.15662 -0.884299,-1.17591 0.669675,-0.0138 1.75899,-0.40438 2.420699,-0.86786 1.37207,-0.96103 4.469002,-0.60113 4.469002,0.51935 0,0.98126 -1.97739,2.73196 -3.049986,2.70033 -0.469438,-0.0138 -1.799375,-0.543 -2.955416,-1.17591 z m -8.257431,-0.73415 c -1.073466,-0.64792 -1.951756,-1.41717 -1.951756,-1.70945 0,-0.57431 2.934266,-2.67382 3.203204,-2.29193 1.964899,2.79013 2.279232,3.71137 1.51029,4.42631 -0.653668,0.60777 -1.186639,0.52576 -2.761738,-0.42493 z m 37.600663,-0.73023 c -1.57534,-1.46525 -2.00269,-2.21486 -1.53137,-2.68618 1.50959,-1.5096 5.96556,-0.0771 7.52434,2.4189 0.60113,0.96256 0.53194,1.13112 -0.46433,1.13112 -0.6439,0 -1.33774,0.27025 -1.54188,0.60054 -0.64021,1.03589 -1.72832,0.63622 -3.98676,-1.46438 z m -14.34787,-0.41354 c -1.14606,-0.62266 -3.00889,-1.47962 -4.13963,-1.90435 l -2.05589,-0.77224 1.99978,-1.26617 c 1.82141,-1.15323 2.20297,-1.19449 4.2777,-0.46248 5.02437,1.7727 5.90256,2.98146 3.37115,4.64011 -1.23461,0.80894 -1.57443,0.78583 -3.45311,-0.23487 z m -19.699509,-2.77627 c -0.834917,-1.61705 -1.37013,-5.27728 -0.936791,-6.40654 0.351729,-0.9166 0.497698,-0.89573 1.536834,0.21965 0.631505,0.67784 1.407906,1.23244 1.725337,1.23244 0.31743,0 0.577146,0.44102 0.577146,0.98006 0,0.53903 0.562527,1.89025 1.250061,3.0027 l 1.25006,2.02264 h -2.430012 c -1.707223,0 -2.591411,-0.3126 -2.972635,-1.05095 z m 25.585799,-0.92556 c -1.56183,-0.72955 -2.84549,-1.49763 -2.85257,-1.70683 -0.042,-1.23999 7.38773,-1.47033 9.50758,-0.29475 l 1.41315,0.78367 -2.19816,1.29694 c -2.64228,1.55898 -2.35505,1.56285 -5.87,-0.079 z m -16.46485,0.3035 c -2.422767,-0.25054 -4.492446,-2.32017 -3.191841,-3.19178 0.931755,-0.62441 6.568471,-0.17453 7.340691,0.58589 0.88979,0.87618 -2.18707,2.80876 -4.14885,2.60589 z m 27.60422,-1.43596 c -2.13038,-1.0418 -1.68303,-3.73697 0.81825,-4.92975 1.11805,-0.53316 2.1729,-0.96939 2.3441,-0.96939 0.17121,0 0.2296,1.41625 0.12976,3.14722 -0.19512,3.38311 -0.8618,3.9404 -3.29211,2.75192 z m -27.18454,-4.45519 c -1.798942,-0.48355 -3.420402,-1.02951 -3.603239,-1.21325 -0.182838,-0.18375 0.29576,-0.84338 1.063549,-1.46585 1.108888,-0.89901 1.97342,-1.05623 4.20378,-0.76451 1.54429,0.20199 2.84334,0.39674 2.88676,0.43278 0.26769,0.22218 -0.58669,3.96169 -0.89779,3.92952 -0.21024,-0.0217 -1.85411,-0.43515 -3.65306,-0.91869 z m 14.16131,0.48836 c -0.33999,-0.55012 2.91652,-2.83052 4.87369,-3.41284 1.4959,-0.44507 1.64816,0.0208 0.76554,2.34225 -0.4928,1.29615 -0.96336,1.54045 -2.96726,1.54045 -1.30987,0 -2.51226,-0.21144 -2.67197,-0.46986 z m -8.25217,-1.74808 c 0.29192,-1.09153 0.98687,-1.76564 2.13744,-2.07335 0.93768,-0.25078 2.42461,-1.1455 3.30428,-1.98828 l 1.5994,-1.53233 1.28075,1.73232 1.28076,1.73231 -1.31616,1.19777 c -2.05495,1.87014 -3.74053,2.54895 -6.32933,2.54895 -2.30145,0 -2.37373,-0.0597 -1.95714,-1.61739 z m 16.02006,-0.0457 c 0.19743,-0.90193 0.46739,-1.98904 0.59991,-2.41581 0.24615,-0.79264 4.75766,-3.09054 6.11454,-3.11438 0.81162,-0.0143 1.00972,2.2699 0.29107,3.35612 -0.46355,0.70065 -3.28825,2.26415 -5.85052,3.23833 -1.4276,0.54277 -1.49348,0.48207 -1.155,-1.06426 z m -30.406303,-1.13764 c -0.532219,-1.39984 -0.368845,-1.84661 1.307869,-3.57654 1.053834,-1.08728 2.695705,-2.24866 3.648604,-2.58084 l 1.732542,-0.60397 -0.394699,2.22875 c -0.407785,2.30265 -3.460515,6.13226 -4.888256,6.13226 -0.438828,0 -1.071555,-0.71985 -1.40606,-1.59966 z m 40.235983,-3.11174 c 0.28497,-1.76056 0.80201,-2.43245 2.61324,-3.39589 1.97286,-1.04942 2.3324,-1.08734 2.84731,-0.30027 1.18797,1.81582 0.35108,3.19443 -2.76681,4.55776 l -3.049,1.33321 z m -47.405089,0.70068 c -2.768486,-1.19864 -2.767216,-1.19646 -1.504684,-2.59154 1.26084,-1.39321 2.156045,-1.48129 4.915154,-0.48358 2.337596,0.84529 2.38917,1.03076 0.769918,2.76882 -1.410361,1.51385 -1.394114,1.51266 -4.180388,0.3063 z m 31.601279,-0.71303 c -1.46325,-1.61688 -1.19171,-2.45293 1.10889,-3.41419 2.66556,-1.11374 6.96109,-1.11806 8.4622,-0.009 1.11093,0.82114 1.06076,0.90584 -1.06701,1.80163 -1.228,0.51698 -2.6602,0.93997 -3.18266,0.93997 -0.52245,0 -1.71442,0.39534 -2.64881,0.87853 -1.5377,0.79517 -1.79127,0.77644 -2.67261,-0.19742 z m -14.03138,0.0858 -1.94766,-0.24191 0.91214,-1.76388 c 0.70896,-1.37096 1.32324,-1.76387 2.75771,-1.76387 1.88236,0 5.93061,1.60444 5.93061,2.35048 0,1.63541 -2.37129,2.07516 -7.6528,1.41918 z m -25.592763,-3.3772 -2.317729,-1.40301 1.610985,-1.2672 1.610985,-1.2672 2.653187,1.28902 2.653187,1.28902 -1.30045,1.38426 c -1.616168,1.72034 -2.030566,1.71823 -4.910165,-0.0249 z m 63.272583,-0.63341 c 0,-1.71432 0.35278,-2.25072 2.19511,-3.33772 1.73872,-1.02587 2.29868,-1.13185 2.69324,-0.50973 1.11311,1.75511 0.51215,3.26914 -1.81728,4.57835 -1.28358,0.72142 -2.49968,1.31167 -2.70243,1.31167 -0.20275,0 -0.36864,-0.91916 -0.36864,-2.04257 z m -70.233403,-4.07986 -2.553276,-1.8777 1.41186,-0.78298 c 1.98402,-1.10028 2.692828,-1.01859 5.048005,0.58179 1.937645,1.31667 2.003299,1.46554 1.019085,2.31082 -1.946471,1.6717 -2.363867,1.65205 -4.925674,-0.23193 z m 77.307783,-0.23336 c -0.65266,-1.43244 -0.52555,-1.70371 1.65683,-3.53593 l 2.36372,-1.98446 0.79724,1.88444 c 0.76403,1.80597 0.71527,1.95322 -1.17087,3.53593 -2.4272,2.03673 -2.76033,2.04587 -3.64692,0.10002 z m -83.88604,-5.47485 -1.831549,-2.22198 1.893459,-0.79614 c 1.800292,-0.75697 1.992533,-0.70012 3.906978,1.15544 l 2.013518,1.95158 -1.368474,1.05319 c -1.954293,1.50405 -2.555416,1.35525 -4.613932,-1.14209 z m 90.6867,1.1379 c -0.36473,-0.68151 -0.66315,-1.71501 -0.66315,-2.29668 0,-1.02342 2.80048,-4.42625 3.64274,-4.42625 0.22843,0 0.76001,0.83213 1.18129,1.84918 0.72717,1.75554 0.65799,1.95715 -1.36588,3.98103 -2.06632,2.06632 -2.15222,2.09375 -2.795,0.89272 z m -96.35816,-7.77339 -1.601988,-2.25153 1.956358,-0.50694 c 1.791643,-0.46426 2.123054,-0.31411 3.936242,1.78344 1.774762,2.0531 1.868101,2.33451 0.900932,2.71627 -2.338628,0.92309 -3.595876,0.50141 -5.191544,-1.74124 z m 101.84487,1.0586 c -1.04938,-1.68033 -0.95171,-2.21943 0.82391,-4.54738 l 1.5689,-2.05694 1.13353,1.44106 c 1.43827,1.82847 1.43774,1.83371 -0.4391,4.29437 -1.82867,2.39751 -2.08717,2.47026 -3.08724,0.86889 z M 53.403419,170.37329 c -1.536918,-2.73457 -1.554815,-2.64948 0.669389,-3.18259 1.419412,-0.34022 1.844811,-0.0618 3.433068,2.24662 l 1.812896,2.63495 -1.856649,0.37133 c -1.021157,0.20423 -2.043349,0.37133 -2.271538,0.37133 -0.228189,0 -1.032414,-1.09874 -1.787166,-2.44164 z m 111.443351,1.34341 c -0.54663,-0.60403 -0.99388,-1.42818 -0.99388,-1.83145 0,-0.64605 1.58652,-4.16524 2.17458,-4.82362 0.37863,-0.42389 2.62974,1.89375 2.62974,2.70746 0,0.6919 -2.30274,5.04584 -2.66867,5.04584 -0.0813,0 -0.59513,-0.4942 -1.14177,-1.09823 z M 51.124714,165.13069 c -0.634886,-0.406 -2.57559,-4.33029 -2.57559,-5.20809 0,-0.17576 0.892001,-0.31956 1.982224,-0.31956 1.754433,0 2.133104,0.31056 3.295168,2.70243 1.019586,2.09862 1.124389,2.70244 0.469054,2.70244 -0.464139,0 -1.203796,0.13228 -1.643682,0.29396 -0.439885,0.16168 -1.127114,0.0846 -1.527174,-0.17118 z m 117.325306,-1.22102 c -1.24115,-1.37145 -1.24376,-2.07321 -0.0167,-4.48659 1.33512,-2.62593 1.25089,-2.59511 2.88841,-1.05674 l 1.45871,1.37039 -1.28047,2.63559 c -1.44243,2.96895 -1.65665,3.07693 -3.04995,1.53735 z M 48.145398,157.31664 c -0.54527,-0.34182 -1.982807,-4.34094 -1.995087,-5.55017 -0.0018,-0.1814 0.898741,-0.2245 2.001295,-0.0958 1.791369,0.20914 2.09978,0.53174 2.898856,3.03225 l 0.894211,2.79822 -1.567814,0.11576 c -0.862297,0.0637 -1.866455,-0.0714 -2.231461,-0.30027 z m 123.389122,-1.28658 c -1.45167,-1.14188 -1.51098,-1.38458 -0.92331,-3.7781 0.34541,-1.40681 0.68775,-2.63552 0.76076,-2.73046 0.073,-0.0949 0.86899,0.16285 1.76886,0.57286 1.49335,0.68041 1.60303,0.95248 1.25682,3.11759 -0.60902,3.8086 -1.05095,4.24358 -2.86313,2.81811 z M 47.767275,149.56125 c -1.825986,-0.27476 -2.821394,-2.01323 -2.821394,-4.92754 0,-1.46183 0.192008,-1.64254 1.483011,-1.39575 0.815656,0.15592 1.724614,0.59137 2.019906,0.96767 0.474858,0.60511 1.556544,5.92665 1.158368,5.69878 -0.08648,-0.0495 -0.914428,-0.20391 -1.839891,-0.34316 z m 125.496755,-1.75784 c -1.10565,-0.58555 -1.57746,-1.21604 -1.35121,-1.80564 0.1912,-0.49827 0.34763,-1.82389 0.34763,-2.94583 0,-1.99693 0.0348,-2.02496 1.65149,-1.33064 2.29099,0.98391 2.20084,0.82295 2.03607,3.63526 -0.18772,3.20415 -0.57956,3.56136 -2.68398,2.44685 z M 46.146962,141.05215 c -1.326293,-0.36656 -1.522722,-0.78566 -1.684639,-3.59437 -0.177246,-3.07463 -0.137658,-3.16542 1.201081,-2.75466 0.761403,0.23362 1.722173,0.69502 2.135044,1.02533 0.795,0.63604 1.067615,5.9005 0.30027,5.79852 -0.247722,-0.0329 -1.126013,-0.24659 -1.951756,-0.47482 z m 128.815928,-1.1699 c -2.0629,-0.38866 -2.70244,-1.35552 -2.70244,-4.08553 0,-2.57438 0.0413,-2.63062 1.65149,-2.2511 2.39007,0.56333 2.64565,0.9737 2.43849,3.91531 -0.16037,2.27716 -0.35452,2.61596 -1.38754,2.42132 z M 46.597367,132.81197 c -1.709215,-0.90264 -2.076278,-2.85953 -1.141219,-6.0841 l 0.390544,-1.34679 1.736359,1.38796 c 1.643671,1.31388 1.707786,1.53549 1.201081,4.15152 l -0.535278,2.76356 z m 128.065253,-1.26669 c -2.05268,-0.36825 -2.31644,-0.71565 -2.89513,-3.81323 l -0.50353,-2.69529 2.0048,0.23405 c 2.09078,0.24408 2.26492,0.54428 2.75864,4.75561 0.12585,1.07347 0.20806,1.91496 0.18269,1.86998 -0.0254,-0.045 -0.72173,-0.20299 -1.54747,-0.35112 z M 47.798448,124.40006 c -0.908317,-0.47729 -1.651486,-1.00975 -1.651486,-1.18324 0,-1.0978 1.417866,-5.65161 1.759676,-5.65161 0.228804,0 1.009484,0.55291 1.734842,1.22868 1.301571,1.2126 1.333849,2.25489 0.169554,5.47522 -0.323585,0.895 -0.532674,0.90861 -2.012586,0.13095 z m 124.815242,-1.41712 c -1.32937,-0.23806 -1.93039,-0.81712 -2.50661,-2.41503 -1.10723,-3.07048 -1.03338,-3.33374 0.97813,-3.48701 1.58529,-0.12079 1.94787,0.14895 2.73615,2.03557 1.30604,3.12579 0.9538,4.25352 -1.20767,3.86647 z M 49.858089,116.17869 c -1.263714,-1.34516 -1.273075,-1.46158 -0.313857,-3.90351 1.122685,-2.85808 1.398352,-2.98451 2.896926,-1.3286 0.958877,1.05955 0.993063,1.48278 0.3153,3.90351 -0.418102,1.49332 -0.9482,2.71512 -1.177996,2.71512 -0.229796,0 -1.003964,-0.62393 -1.720373,-1.38652 z m 118.545981,-1.46605 c -0.65371,-0.6495 -2.20819,-4.49492 -1.92964,-4.77347 0.12932,-0.12933 1.0005,-0.29052 1.93594,-0.3582 1.39894,-0.10122 1.88642,0.25 2.7466,1.97883 0.57519,1.15604 1.05877,2.4397 1.07464,2.85257 0.0312,0.81146 -3.06832,1.05461 -3.82754,0.30027 z m -115.081237,-5.88786 -1.436611,-1.5292 1.454869,-2.74245 1.45487,-2.74246 1.377572,1.60152 1.377572,1.60152 -1.271836,2.52237 c -0.69951,1.38731 -1.327634,2.58887 -1.395831,2.67014 -0.0682,0.0813 -0.770469,-0.54037 -1.560605,-1.38144 z M 165.18914,107.4001 c -0.94204,-0.65758 -3.26708,-4.31884 -2.94632,-4.6396 0.17742,-0.17742 1.17024,-0.36454 2.20626,-0.41583 1.60994,-0.0797 2.099,0.26736 3.36525,2.38809 l 1.48157,2.48134 -1.80673,0.26517 c -0.9937,0.14585 -2.02871,0.11022 -2.30003,-0.0792 z M 57.636439,101.61518 c -1.338912,-1.702147 -1.309929,-1.841216 1.034388,-4.96323 l 1.498969,-1.996234 0.774329,1.395694 c 1.093556,1.971088 1.007716,2.679938 -0.613437,5.06568 L 58.900363,103.222 Z M 158.61857,98.432987 c -1.90528,-2.326015 -1.91339,-2.362641 -0.60054,-2.714601 2.50904,-0.672647 3.374,-0.369994 4.98723,1.745063 1.81216,2.375866 1.7738,2.540891 -0.69751,3.000471 -1.5009,0.27911 -2.04014,-0.0177 -3.68918,-2.030933 z M 62.732214,95.068088 c -0.979501,-1.494908 -0.969078,-1.642337 0.235733,-3.334338 2.084627,-2.927589 3.141406,-3.194342 4.05423,-1.023373 0.74808,1.779158 0.687717,1.968909 -1.239385,3.89601 l -2.025764,2.025765 z m 90.094656,-2.63792 -1.64208,-1.713962 1.5086,-0.98847 c 2.03755,-1.335056 2.22255,-1.291558 4.49983,1.057996 1.92336,1.984398 1.94634,2.06636 0.75783,2.702432 -1.9762,1.057627 -3.37373,0.769076 -5.12418,-1.057996 z M 68.744385,89.786061 c -0.671253,-2.504587 -0.383473,-3.252828 1.866886,-4.853982 2.038973,-1.450751 2.282366,-1.500735 2.660223,-0.546318 0.828965,2.093855 0.45824,3.084833 -1.832877,4.899432 -2.327604,1.843496 -2.334073,1.844699 -2.694232,0.500868 z m 78.143235,-2.442167 c -2.02478,-1.657821 -2.03866,-1.926494 -0.16299,-3.155482 1.43067,-0.937409 1.58317,-0.900313 3.92548,0.954831 2.26069,1.790497 2.35937,1.989008 1.36408,2.743978 -1.55294,1.177958 -3.24304,0.998837 -5.12657,-0.543327 z M 75.344233,84.440376 c -0.204231,-1.021157 -0.37133,-2.043349 -0.37133,-2.271538 0,-0.489313 4.785266,-3.257457 5.095257,-2.947466 0.116588,0.116589 0.391271,0.926335 0.610405,1.799436 0.348587,1.388879 0.06309,1.818173 -2.282288,3.431837 l -2.680714,1.84438 z m 65.057677,-1.260392 c -1.13959,-0.697983 -2.1921,-1.361648 -2.3389,-1.474813 -0.1468,-0.113164 0.32195,-0.794612 1.04167,-1.514328 l 1.30857,-1.308574 2.76873,1.345153 c 2.35849,1.145843 2.65638,1.480536 2.01043,2.258854 -1.53278,1.846887 -2.64479,2.007916 -4.7905,0.693708 z M 82.604207,80.481633 c -0.438263,-2.292625 -0.0061,-2.949487 2.636381,-4.006783 3.06339,-1.225726 2.944205,-1.267614 2.944205,1.034751 0,1.747458 -0.31264,2.134116 -2.639738,3.264708 l -2.639737,1.282483 z m 49.474463,-1.140508 -2.04747,-0.892599 1.49611,-1.496106 c 1.48145,-1.481456 1.52062,-1.486299 3.99922,-0.494558 2.73752,1.095339 2.84298,1.27391 1.66714,2.822892 -0.9501,1.251594 -2.34478,1.268055 -5.115,0.06037 z m -41.706169,-1.96025 c 0.06428,-0.854275 0.138831,-1.85895 0.165665,-2.232611 0.03709,-0.516438 4.206787,-2.023049 5.598995,-2.023049 0.117711,0 0.108706,0.90209 -0.02001,2.004644 -0.209333,1.793089 -0.530973,2.099603 -3.047778,2.904445 l -2.813747,0.8998 z m 34.308869,-0.170351 -2.23828,-0.594879 0.93051,-1.799414 c 0.77603,-1.500663 1.1842,-1.735743 2.45848,-1.415919 0.84038,0.210922 2.29246,0.536393 3.22684,0.723269 l 1.69887,0.339774 -1.28133,1.733092 c -1.38822,1.877672 -1.47594,1.896224 -4.79509,1.014077 z M 98.271057,74.891565 c 0.293627,-2.000607 1.877833,-2.967431 4.862333,-2.967431 1.49711,0 1.63307,0.17341 1.39699,1.781865 -0.26743,1.822178 -0.63983,2.04973 -4.38207,2.677668 -2.119093,0.355579 -2.14537,0.334693 -1.877253,-1.492102 z m 17.989003,0.806212 c -1.88572,-0.285662 -1.84149,-0.192999 -1.06581,-2.233197 0.61868,-1.627261 1.77192,-1.879656 5.33367,-1.167307 l 1.86569,0.373139 -1.23098,1.728752 c -1.20972,1.698897 -1.59192,1.800135 -4.90257,1.298613 z m -9.61582,-1.521617 c 0.5564,-2.272852 1.39661,-2.852567 4.13435,-2.852567 1.4459,0 2.6289,0.09479 2.6289,0.210656 0,0.11586 -0.29668,1.061712 -0.65929,2.101891 -0.61621,1.767679 -0.84795,1.891236 -3.54702,1.891236 -2.69233,0 -2.86535,-0.09143 -2.55694,-1.351216 z"
         id="path3" /><path
         style="fill:#016501"
         d="m 106.17351,187.2576 -2.973,-2.973 1.50025,-2.82158 c 0.82513,-1.55186 1.50025,-3.32181 1.50025,-3.93321 0,-0.83479 0.44868,-1.11164 1.80162,-1.11164 1.76766,0 1.80241,0.0594 1.84383,3.15284 0.0719,5.36679 0.92138,6.08994 1.40372,1.1949 0.39893,-4.04851 0.52604,-4.34774 1.84683,-4.34774 1.10989,0 1.57602,0.48986 2.14298,2.25203 0.39851,1.23862 1.13676,2.96713 1.64057,3.84115 0.85005,1.47472 0.82217,1.7084 -0.38727,3.24596 -1.76257,2.24075 -4.87374,4.47329 -6.23377,4.47329 -0.61215,0 -2.45086,-1.33785 -4.08601,-2.973 z m -8.190677,-4.24327 c -1.149285,-0.45815 -2.591555,-2.26893 -2.591555,-3.2537 0,-0.18687 0.837427,-0.33975 1.860949,-0.33975 1.293368,0 2.374246,-0.54949 3.543913,-1.80163 2.78506,-2.98141 4.81619,-2.17392 3.62334,1.44048 -1.09485,3.3174 -3.82593,4.99535 -6.436647,3.9546 z m 21.682407,-0.0829 c -1.47842,-0.71042 -3.05192,-3.20879 -3.34565,-5.31218 -0.17516,-1.25425 0.0621,-1.53262 1.44182,-1.69137 0.90832,-0.10451 1.65149,0.0876 1.65149,0.42701 0,1.18812 2.64411,3.06599 4.31702,3.06599 1.93655,0 2.2241,1.14504 0.63743,2.53832 -1.4879,1.30656 -3.24871,1.67063 -4.70211,0.97223 z m -13.01383,-8.75952 c 2.06436,-0.11726 5.4424,-0.11726 7.50676,0 2.06435,0.11727 0.37533,0.21322 -3.75338,0.21322 -4.12872,0 -5.81774,-0.096 -3.75338,-0.21322 z m -6.780772,-0.79639 c -0.600148,-0.97106 0.01728,-1.28704 2.847592,-1.4573 1.42008,-0.0854 1.90636,-0.0421 1.08061,0.0962 -2.83848,0.47562 -3.43092,0.87678 -2.10189,1.42326 1.15473,0.47481 1.1503,0.4955 -0.11469,0.53608 -0.72368,0.0232 -1.49391,-0.24601 -1.711622,-0.59828 z m 19.401032,0.24552 c 0.74806,-0.16029 1.20504,-0.54236 1.0155,-0.84904 -0.18954,-0.30669 -0.0359,-0.55761 0.34141,-0.55761 1.34901,0 0.16237,1.50333 -1.26272,1.59972 -1.36244,0.0922 -1.36839,0.08 -0.0942,-0.19307 z m -8.56661,-2.00719 -4.80432,-0.38029 4.20378,-0.0656 c 2.31208,-0.0361 5.41988,0.15077 6.90621,0.41525 2.36755,0.42127 2.44197,0.47652 0.60054,0.4459 -1.15604,-0.0192 -4.26383,-0.20609 -6.90621,-0.41525 z m -21.898931,-1.38511 c -5.659404,-1.94924 -6.559837,-10.75954 -1.505944,-14.73493 6.444057,-5.0689 15.763515,1.24992 17.456255,11.83577 0.34963,2.18644 0.27316,2.33725 -1.34439,2.6513 -0.9433,0.18314 -1.78373,0.15256 -1.86762,-0.068 -0.0839,-0.22052 -0.68354,-1.27199 -1.33258,-2.33659 -2.651302,-4.34886 -8.423815,-2.79732 -8.423815,2.26417 0,1.34301 -0.152277,1.36284 -2.981906,0.38825 z m 3.217665,-9.61682 c -0.588492,-0.32934 -0.751584,-0.93911 -0.482539,-1.80413 0.386058,-1.24122 0.349774,-1.25615 -0.72473,-0.29815 -0.855522,0.76276 -1.401913,0.85696 -2.24243,0.38658 -0.965255,-0.54018 -1.057335,-0.4519 -0.700683,0.67181 0.242781,0.76494 0.08543,1.68555 -0.38497,2.25235 -0.695191,0.83765 -0.634647,0.90754 0.479806,0.55382 0.86042,-0.27309 1.387427,-0.11282 1.619735,0.49256 0.285135,0.74305 0.60059,0.66911 1.834551,-0.43 1.233564,-1.09877 1.337112,-1.41304 0.60126,-1.82484 z m 36.997746,8.61121 c 0,-2.17369 -1.85134,-4.21522 -3.82252,-4.21522 -1.78458,0 -4.4976,2.09398 -5.23878,4.04342 -0.38132,1.00295 -0.86906,1.36649 -1.50562,1.12222 -0.51787,-0.19873 -1.35492,-0.36132 -1.86011,-0.36132 -2.21691,0 1.67985,-10.2862 5.00166,-13.20279 4.17581,-3.66641 9.6174,-3.676 13.11708,-0.0231 1.42596,1.48838 1.78511,2.46123 1.99869,5.414 0.35785,4.94727 -1.492,7.5978 -6.03891,8.65272 -1.52155,0.35301 -1.65149,0.2405 -1.65149,-1.42991 z m 3.73967,-7.5615 c 1.12246,-0.35625 1.15108,-0.46113 0.26167,-0.95887 -0.54925,-0.30737 -0.99864,-0.88324 -0.99864,-1.2797 0,-0.39992 -0.79886,-0.72083 -1.79443,-0.72083 -1.45395,0 -1.72942,0.20489 -1.45174,1.07976 0.18849,0.59388 -0.0153,1.51115 -0.45288,2.03839 -0.69519,0.83765 -0.63465,0.90754 0.47981,0.55382 0.90923,-0.28858 1.40869,-0.0979 1.73971,0.66405 0.42851,0.9864 0.4833,0.98995 0.71026,0.0461 0.13526,-0.5625 0.81307,-1.20273 1.50624,-1.42274 z m -26.80676,4.94352 c -0.52656,-1.81129 -1.79054,-5.14116 -2.80885,-7.39971 -3.70243,-8.21173 -2.76727,-12.75273 3.79264,-18.41661 l 3.43967,-2.96984 3.29146,2.48507 c 1.8103,1.36679 4.01393,3.71788 4.89695,5.22465 1.41892,2.42121 1.56665,3.17136 1.27124,6.45519 -0.21481,2.3879 -1.10208,5.43239 -2.483,8.51995 -1.1818,2.64238 -2.31766,5.81774 -2.52412,7.05635 -0.36649,2.19869 -1.02076,2.68548 -2.40915,1.79243 -0.44708,-0.28757 -0.85235,-4.51912 -1.16382,-12.15175 -0.55957,-13.71212 -1.2787,-12.69663 -1.38217,1.95176 -0.04,5.65676 -0.31238,10.05905 -0.62248,10.05905 -0.30328,0 -0.95407,0.15451 -1.44621,0.34336 -0.66785,0.25628 -1.13759,-0.49187 -1.85216,-2.9499 z"
         id="path2" /><path
         style="fill:#050505"
         d="m 51.729173,147.74237 c -0.262689,-1.23862 -0.472142,-6.30568 -0.46545,-11.26014 0.01012,-7.49407 0.244338,-9.86606 1.393523,-14.1127 6.176209,-22.823251 24.447627,-39.652304 47.611124,-43.852647 5.27066,-0.955753 16.81855,-0.825659 21.86759,0.246351 11.29565,2.398284 21.29461,7.663025 29.4817,15.52296 9.32223,8.949706 14.64769,18.524556 17.4106,31.303126 0.98287,4.54584 1.20286,17.38542 0.37185,21.70264 l -0.46239,2.40216 -14.25295,0.16101 -14.25296,0.161 v -2.09163 c 0,-1.45331 0.3545,-2.28135 1.1616,-2.7133 0.64315,-0.34421 4.94032,-0.62167 9.62794,-0.62167 9.2119,0 12.19822,-0.69136 12.92877,-2.99314 0.22714,-0.71564 0.29894,-1.4152 0.15955,-1.55458 -0.13938,-0.13938 -1.83813,0.0395 -3.775,0.39758 -1.93687,0.35805 -4.48238,0.53681 -5.65668,0.39725 -1.17431,-0.13956 -2.94672,0.083 -3.93871,0.49465 -1.20791,0.50122 -5.07565,0.73436 -11.71053,0.70592 -5.44882,-0.0234 -11.55648,0.16642 -13.57258,0.42175 -3.42081,0.43323 -3.68781,0.37949 -3.99743,-0.80449 -0.26191,-1.00155 -0.0591,-1.26879 0.96322,-1.26903 0.71224,-1.6e-4 2.71666,-0.54065 4.45427,-1.20108 1.7376,-0.66043 3.7149,-1.20078 4.39399,-1.20078 1.27967,0 4.64229,-2.20804 7.03414,-4.61893 1.59704,-1.60975 2.42688,-1.74819 2.91136,-0.48566 0.41405,1.07898 2.69064,1.18983 3.70031,0.18016 1.16078,-1.16078 0.87381,-2.88259 -0.48044,-2.88259 -1.02437,0 -1.20108,-0.40036 -1.20108,-2.72128 0,-1.87511 -0.28248,-2.82968 -0.90846,-3.06989 -1.36871,-0.52522 -2.69478,0.9108 -2.69478,2.91822 0,1.22275 -0.34521,1.87459 -1.09688,2.07115 -0.60328,0.15776 -1.56805,1.08448 -2.14394,2.05938 -1.14206,1.93335 -3.77686,3.93572 -4.38223,3.33036 -0.20849,-0.2085 -0.0508,-1.0996 0.35045,-1.98022 0.59874,-1.3141 0.57075,-1.75992 -0.15615,-2.48682 -1.19541,-1.19541 -2.78044,-0.48465 -2.78044,1.24682 0,0.77298 -0.3378,1.8203 -0.75067,2.32738 -0.84809,1.04161 -6.7837,4.71246 -7.61984,4.71246 -0.94806,0 -4.24084,-3.0723 -4.24084,-3.95689 0,-1.16408 2.36341,-1.06865 3.70978,0.14979 1.28741,1.16509 2.20712,0.64361 1.13763,-0.64504 -0.59881,-0.72152 -0.41878,-1.03814 1.0105,-1.77725 2.53154,-1.30911 5.85334,-5.22223 7.93691,-9.34977 2.32914,-4.61399 2.38817,-5.67322 0.26219,-4.70456 -1.38039,0.62894 -1.68721,0.54231 -2.70422,-0.76355 -1.49828,-1.92382 -2.14329,-4.34265 -1.23845,-4.64426 1.12559,-0.37519 0.79572,-1.33279 -0.45912,-1.33279 -0.78694,0 -1.37535,-0.66918 -1.84819,-2.10189 -0.71818,-2.17609 -2.40216,-2.90689 -2.40216,-1.04247 0,0.58269 0.5628,2.54195 1.25067,4.35392 1.58911,4.18599 1.67028,5.00455 0.52005,5.24431 -2.15241,0.44868 -4.45734,-8.84081 -3.27768,-13.20995 0.37211,-1.37822 0.25727,-1.65148 -0.69409,-1.65148 -1.45839,0 -3.17169,5.07666 -2.08129,6.16706 0.96633,0.96633 0.84024,2.2405 -0.22172,2.2405 -0.49544,0 -0.90081,0.38942 -0.90081,0.86537 0,0.47596 -0.28208,1.03971 -0.62684,1.25278 -1.08748,0.6721 -2.37586,-0.98568 -2.37586,-3.05705 0,-1.0961 -0.27024,-2.15993 -0.60054,-2.36407 -0.3303,-0.20413 -0.60054,-1.11188 -0.60054,-2.01722 0,-1.76285 -0.95327,-3.08737 -2.222,-3.08737 -0.52618,0 -0.7807,0.89076 -0.7807,2.73225 0,1.50274 -0.42492,3.55396 -0.94426,4.55826 -1.07208,2.07316 -0.75599,3.67307 0.62126,3.14457 0.57549,-0.22084 0.92354,-1.10895 0.92354,-2.3566 0,-1.89665 0.87111,-3.20376 1.62962,-2.44526 0.19175,0.19175 0.34863,2.20282 0.34863,4.46906 0,3.3537 -0.25616,4.4669 -1.37665,5.98243 -1.2328,1.66746 -1.29714,2.05395 -0.61577,3.69892 0.61584,1.48677 0.61425,2.01359 -0.008,2.76379 -0.64282,0.77455 -0.55613,1.07616 0.52746,1.83514 1.98544,1.39066 1.6482,2.64176 -0.71211,2.64176 -1.24614,0 -2.4215,0.45601 -3.09578,1.20108 -0.59783,0.66059 -1.31533,1.20108 -1.59443,1.20108 -0.71273,0 -0.63515,-2.25236 0.0931,-2.70243 1.12637,-0.69614 0.6038,-1.50135 -0.97435,-1.50135 -1.34218,0 -1.46276,-0.13511 -0.81602,-0.91437 0.43912,-0.52912 1.23044,-0.7647 1.87811,-0.55914 1.42259,0.45152 2.03883,-1.00097 1.13845,-2.68335 -0.88221,-1.64842 -1.7205,-1.58011 -2.16128,0.17611 -0.50279,2.00327 -4.686489,5.94436 -6.034668,5.68472 -0.929179,-0.17894 -0.732135,-0.61696 1.284628,-2.85563 1.31018,-1.45435 2.08267,-2.74578 1.71664,-2.86985 -0.36603,-0.12408 -1.17676,-0.60784 -1.801621,-1.07503 -1.1061,-0.82699 -1.101974,-0.87382 0.156199,-1.77275 0.710772,-0.50783 1.692102,-2.09664 2.180732,-3.5307 0.74354,-2.18218 0.76101,-2.91039 0.10713,-4.46551 -0.67079,-1.59535 -0.6517,-1.90787 0.135,-2.20976 0.66665,-0.25581 0.80382,-0.79968 0.5035,-1.99627 -0.5587,-2.22603 -0.63515,-2.25524 -2.35711,-0.90075 -0.827571,0.65097 -2.801066,1.53444 -4.385548,1.96328 -3.913334,1.05913 -4.355066,1.49644 -3.961476,3.92185 0.225269,1.38818 0.0013,2.55951 -0.691451,3.61684 -0.960927,1.46656 -0.961724,1.63326 -0.01282,2.68179 0.952504,1.05251 0.935126,1.22571 -0.296518,2.95539 -1.356606,1.90518 -1.445264,3.65834 -0.20587,4.07099 0.393496,0.13101 1.143604,-0.58976 1.666908,-1.60172 0.574162,-1.11031 1.421631,-1.83993 2.137121,-1.83993 1.384515,0 1.415912,0.17878 0.483998,2.75595 -0.663652,1.83529 -0.566058,2.10237 1.801621,4.9303 2.709315,3.23598 3.021025,4.34835 1.558579,5.56207 -0.519586,0.43122 -1.46632,1.80649 -2.103853,3.05616 -1.598417,3.13315 -3.042099,3.73792 -9.020119,3.77854 -5.945931,0.0404 -7.148619,0.6649 -7.148619,3.71186 v 2.02836 H 66.292279 52.206791 Z m 18.139136,-2.89539 c 8.596931,-0.20944 13.703643,-1.73271 14.575286,-4.34764 0.329158,-0.98747 -1.362558,-0.89974 -2.204142,0.1143 -1.077415,1.29821 -3.413107,1.50886 -11.170063,1.00739 -4.34075,-0.28062 -7.492355,-0.2419 -7.925365,0.0974 -0.395383,0.30979 -1.471342,0.47448 -2.391018,0.36598 -2.011678,-0.23734 -2.572917,1.2406 -1.049587,2.76393 0.743396,0.74339 1.493949,0.89121 2.882563,0.56772 1.032604,-0.24056 4.309651,-0.49664 7.282326,-0.56905 z m 80.756771,-4.54442 c 1.3913,-1.02864 2.22322,-1.20653 4.17946,-0.89372 1.95137,0.31204 2.4424,0.20803 2.4424,-0.51735 0,-0.71025 -0.7919,-0.90791 -3.63758,-0.90791 -4.45102,0 -8.97377,1.07006 -8.97377,2.12314 0,1.7966 3.66237,1.91635 5.98949,0.19584 z m -57.785811,-1.3836 c 1.403605,-0.64159 2.552009,-1.51988 2.552009,-1.95176 0,-1.08145 -0.855593,-0.9859 -3.569518,0.39864 -2.030356,1.03581 -2.364926,1.06833 -2.675093,0.26005 -0.583641,-1.52094 -3.622082,-0.84134 -3.863555,0.86416 -0.16724,1.18119 -3.5e-4,1.34414 1.038827,1.01432 0.680942,-0.21612 1.716455,-0.11494 2.301141,0.22485 0.584685,0.33979 1.198315,0.55896 1.363622,0.48703 0.165307,-0.0719 1.448962,-0.65571 2.852567,-1.29729 z m -10.779989,0.1456 c 1.395866,-1.39587 0.69921,-1.98221 -2.432776,-2.04755 -3.438069,-0.0717 -7.572888,-1.43035 -5.704547,-1.87441 1.127321,-0.26794 1.365196,-1.73827 0.501819,-3.10179 -0.733195,-1.15793 -2.453575,-0.36933 -2.453575,1.12469 0,1.06863 -0.151093,1.13066 -1.183516,0.4859 -0.650934,-0.40651 -1.473817,-1.42222 -1.828629,-2.25711 -0.354813,-0.8349 -1.041808,-2.04734 -1.526655,-2.69431 -0.856157,-1.14244 -0.935304,-1.11745 -2.748583,0.86784 -1.509432,1.65261 -1.733826,2.223 -1.171538,2.97793 0.382526,0.51358 1.023042,1.69777 1.423367,2.63154 0.579403,1.35147 1.043271,1.65147 2.274219,1.4708 1.325508,-0.19454 1.509548,-0.0344 1.288636,1.12122 -0.237254,1.24111 -0.0023,1.36587 2.958705,1.57095 7.126096,0.49355 9.906105,0.42127 10.603073,-0.2757 z m 58.97307,-2.30319 c 0,-1.58208 -2.19766,-1.56926 -2.70073,0.0158 -0.20872,0.65764 -0.21053,1.4691 -0.004,1.80324 0.59387,0.9609 2.70475,-0.45872 2.70475,-1.819 z m -81.043967,0.39766 c -0.35484,-0.93331 -0.313159,-1.65376 0.120782,-2.08771 0.962333,-0.96233 -1.072471,-3.05349 -2.586055,-2.65768 -2.334048,0.61036 -0.876994,6.17048 1.617003,6.17048 1.214786,0 1.321762,-0.17972 0.84827,-1.42509 z m 101.063297,-0.17766 c 0.22092,-0.22092 -0.0199,-0.86749 -0.53513,-1.43682 -0.51524,-0.56933 -1.15044,-1.80736 -1.41155,-2.75117 -0.36939,-1.33519 -0.7841,-1.68026 -1.86875,-1.55492 -3.04223,0.35157 -3.93062,2.80381 -1.79093,4.9435 1.1636,1.16361 4.73318,1.67259 5.60636,0.79941 z m -75.62286,-2.30333 c 1.416758,-2.16224 1.988003,-5.34472 0.89537,-4.9882 -1.111972,0.36282 -3.730469,5.10444 -3.249039,5.88342 0.6043,0.97777 1.299755,0.71326 2.353669,-0.89522 z m 65.82476,-0.0119 c 0.41781,-0.50343 0.57306,-1.10192 0.345,-1.32998 -0.5009,-0.5009 -2.29425,0.55016 -2.62337,1.53753 -0.34212,1.02636 1.38489,0.86904 2.27837,-0.20755 z M 91.912433,131.8624 c -0.984793,-0.98479 -2.229627,0.26004 -1.683424,1.68342 0.375632,0.97889 0.468058,0.98182 1.40522,0.0447 0.783519,-0.78352 0.844428,-1.16185 0.278204,-1.72808 z m 73.891787,-0.33459 C 164.85414,122.59178 160.51114,111.38279 155.2753,104.35332 147.60972,94.061748 135.94868,86.372559 123.24254,83.231193 115.71782,81.370841 104.99213,81.395414 97.49317,83.290185 86.611733,86.039608 78.014055,91.094929 70.066279,99.41683 63.136412,106.67291 57.302551,117.75041 56.065,126.00285 l -0.400751,2.67236 1.843055,-0.0532 c 2.643913,-0.0763 3.897038,-1.51186 5.746587,-6.583 0.897424,-2.46058 1.771269,-4.47378 1.941877,-4.47378 0.170609,0 1.250973,0.82601 2.40081,1.83558 2.60509,2.2873 4.212335,2.11711 5.992272,-0.6345 2.673146,-4.13243 7.107296,-9.5755 8.288938,-10.17495 3.194717,-1.6207 4.559556,-1.7828 9.252,-1.09887 3.413281,0.49749 5.173767,0.51338 6.17021,0.0557 0.766839,-0.35223 2.663764,-2.78193 4.215392,-5.39935 3.17714,-5.35949 4.26902,-6.531122 6.63737,-7.122193 1.84035,-0.459297 2.10089,0.259464 1.07353,2.961612 -0.65894,1.733149 0.47923,3.362381 2.34894,3.362381 0.59656,0 1.42108,0.40536 1.83226,0.90081 0.41118,0.49544 0.98476,0.90081 1.27462,0.90081 0.96155,0 0.54663,-1.30464 -0.99919,-3.14175 -2.6539,-3.153983 -0.47643,-4.676176 2.95032,-2.062466 1.08219,0.825432 2.75601,1.590887 3.71958,1.701013 1.4226,0.162586 2.00587,0.736493 3.10261,3.052793 0.74287,1.56891 1.57377,2.85257 1.84645,2.85257 0.27269,0 1.06658,1.01559 1.76422,2.25686 0.69763,1.24127 1.96349,2.90983 2.81301,3.70792 0.84953,0.79809 1.54459,2.07957 1.54459,2.84774 0,2.06988 2.43799,1.8285 4.67858,-0.46322 l 1.81838,-1.85989 1.85612,1.37228 c 1.43419,1.06035 1.85611,1.83118 1.85611,3.39101 0,1.48948 0.54393,2.57878 2.07471,4.15499 1.45436,1.4975 2.1912,2.91304 2.46429,4.73414 0.23286,1.55281 0.7754,2.74594 1.34867,2.96592 1.19678,0.45925 3.95025,-1.52841 4.22968,-3.05329 0.11463,-0.62559 0.42354,-1.36528 0.68647,-1.64375 0.71464,-0.75689 3.38602,1.23001 4.74069,3.52601 0.65564,1.11123 2.22316,2.55346 3.48337,3.20497 1.26022,0.6515 2.76159,1.74698 3.33638,2.4344 1.62763,1.94657 2.13646,1.49528 1.80707,-1.60272 z M 81.961823,127.5027 c 2.167467,-4.56407 2.21412,-5.73371 0.228696,-5.73371 -1.621003,0 -2.729644,-3.63334 -1.865246,-6.11296 0.359169,-1.03031 0.653034,-2.14267 0.653034,-2.47191 0,-0.96386 -2.869295,2.40898 -3.327392,3.91133 -0.229853,0.75381 -0.826981,1.83662 -1.32695,2.40625 -0.827633,0.94293 -0.765113,1.09039 0.698158,1.64673 1.337228,0.50841 1.584602,0.93969 1.472694,2.56756 -0.271988,3.95649 0.09878,8.26219 0.71147,8.26219 0.346578,0 1.586569,-2.01396 2.755536,-4.47548 z m 71.742257,3.54344 c 1.44809,-0.74883 1.72267,-1.19148 1.39693,-2.25202 -0.22299,-0.726 -0.50209,-1.4277 -0.62022,-1.55934 -0.29097,-0.32424 -5.04087,2.99626 -5.04087,3.5239 0,1.4401 1.8005,1.56147 4.26416,0.28746 z m -81.733879,-0.56931 c 0,-0.49545 -0.405365,-0.90081 -0.900811,-0.90081 -0.937788,0 -1.191452,0.71026 -0.50045,1.40126 0.691002,0.691 1.401261,0.43734 1.401261,-0.50045 z m -6.650417,-3.54966 c 0.909276,-1.09561 1.573422,-5.15818 0.843256,-5.15818 -0.474142,0 -3.200946,4.87375 -3.200946,5.7212 0,0.6339 1.701567,0.22756 2.35769,-0.56302 z m 8.124862,0.47418 c 1.368413,-0.52511 2.758048,-3.41313 2.130716,-4.42817 -0.43158,-0.69831 -0.664057,-0.69959 -1.497097,-0.008 -1.281199,1.0633 -2.768223,3.94911 -2.284293,4.43304 0.461945,0.46194 0.455666,0.46193 1.650674,0.003 z m 61.582304,-3.2302 c 0,-0.33029 -0.27025,-0.60054 -0.60054,-0.60054 -0.3303,0 -0.60054,0.27025 -0.60054,0.60054 0,0.3303 0.27024,0.60054 0.60054,0.60054 0.33029,0 0.60054,-0.27024 0.60054,-0.60054 z m -45.74916,-2.59176 c 0.105702,-0.54499 -0.513969,-1.64533 -1.377047,-2.4452 -1.239302,-1.14855 -1.484238,-1.79297 -1.164975,-3.06501 0.360494,-1.43632 0.251689,-1.58881 -1.005046,-1.40855 -0.775118,0.11118 -1.805547,0.91048 -2.289844,1.77621 -0.814952,1.45682 -0.771714,1.70998 0.580471,3.39878 2.384885,2.97858 4.857829,3.79895 5.256441,1.74377 z m 49.94704,0.49698 c 0.60226,-0.72568 0.55204,-0.96649 -0.2671,-1.28082 -1.18322,-0.45405 -2.44482,0.57738 -1.86123,1.52166 0.55417,0.89667 1.24959,0.81798 2.12833,-0.24084 z m -31.93018,-2.89542 c 0.23973,-1.24486 -0.98017,-2.95784 -1.76223,-2.4745 -0.29287,0.18101 -0.53249,1.1437 -0.53249,2.13932 0,1.3962 0.23878,1.76422 1.04404,1.60914 0.57423,-0.11058 1.13703,-0.68387 1.25068,-1.27396 z m 31.82998,-3.01672 c 0.11234,-0.57927 -0.18907,-1.00118 -0.71523,-1.00118 -1.11565,0 -1.78899,0.97897 -1.26097,1.83332 0.54321,0.87893 1.74228,0.37402 1.9762,-0.83214 z M 85.782631,111.5598 c 0,-0.33029 -0.254294,-0.60054 -0.565098,-0.60054 -0.310804,0 -0.732118,0.27025 -0.936253,0.60054 -0.204135,0.3303 0.05016,0.60054 0.565098,0.60054 0.514939,0 0.936253,-0.27024 0.936253,-0.60054 z m 3.264081,-1.73869 c 0.182745,-0.29569 -0.07155,-0.69257 -0.565098,-0.88196 -0.545087,-0.20917 -0.897362,0.002 -0.897362,0.53761 0,0.97131 0.938419,1.19227 1.46246,0.34435 z m 18.697138,-0.73061 c 0.45272,-0.73251 -0.89604,-1.83396 -1.66431,-1.35914 -0.26349,0.16285 -0.47907,0.6855 -0.47907,1.16145 0,1.01907 1.54753,1.1618 2.14338,0.19769 z m -0.70628,-6.88819 c 0.60648,-1.58048 0.40959,-3.368972 -0.34325,-3.118022 -1.11974,0.373245 -1.92069,2.011482 -1.50855,3.085512 0.47864,1.2473 1.37957,1.26312 1.8518,0.0325 z m -5.42372,31.27722 c -0.48901,-1.27435 0.17964,-2.70243 1.26534,-2.70243 0.62148,0 0.91965,0.58413 0.91965,1.80162 0,1.93272 -1.54464,2.56954 -2.18499,0.90081 z m 13.6914,-9.45246 c -1.30474,-1.30474 -0.83128,-5.87175 0.83524,-8.05666 0.84255,-1.10465 1.7884,-2.00844 2.10189,-2.00844 0.87153,0 0.67787,5.78576 -0.26956,8.05327 -1.00376,2.40234 -1.72963,2.94978 -2.66757,2.01183 z"
         id="path1" /></g></g></svg>
