<?xml version="1.0" encoding="UTF-8" standalone="no"?>
<!-- Created with Inkscape (http://www.inkscape.org/) -->

<svg
   xmlns:dc="http://purl.org/dc/elements/1.1/"
   xmlns:cc="http://creativecommons.org/ns#"
   xmlns:rdf="http://www.w3.org/1999/02/22-rdf-syntax-ns#"
   xmlns:svg="http://www.w3.org/2000/svg"
   xmlns="http://www.w3.org/2000/svg"
   xmlns:sodipodi="http://sodipodi.sourceforge.net/DTD/sodipodi-0.dtd"
   xmlns:inkscape="http://www.inkscape.org/namespaces/inkscape"
   width="101.75"
   height="27.129999"
   id="svg3660"
   version="1.1"
   inkscape:version="0.48.1 "
   sodipodi:docname="Neues Dokument 3">
  <defs
     id="defs3662" />
  <sodipodi:namedview
     id="base"
     pagecolor="#ffffff"
     bordercolor="#666666"
     borderopacity="1.0"
     inkscape:pageopacity="0.0"
     inkscape:pageshadow="2"
     inkscape:zoom="8.9630899"
     inkscape:cx="50.875"
     inkscape:cy="13.564999"
     inkscape:document-units="px"
     inkscape:current-layer="layer1"
     showgrid="false"
     fit-margin-top="0"
     fit-margin-left="0"
     fit-margin-right="0"
     fit-margin-bottom="0"
     inkscape:window-width="1024"
     inkscape:window-height="708"
     inkscape:window-x="-4"
     inkscape:window-y="-4"
     inkscape:window-maximized="1" />
  <metadata
     id="metadata3665">
    <rdf:RDF>
      <cc:Work
         rdf:about="">
        <dc:format>image/svg+xml</dc:format>
        <dc:type
           rdf:resource="http://purl.org/dc/dcmitype/StillImage" />
        <dc:title></dc:title>
      </cc:Work>
    </rdf:RDF>
  </metadata>
  <g
     inkscape:label="Ebene 1"
     inkscape:groupmode="layer"
     id="layer1"
     transform="translate(-170.125,-440.65125)">
    <path
       inkscape:connector-curvature="0"
       d="m 269.94065,460.64087 c 0,2.87238 -2.30538,5.20188 -5.14938,5.20188 l -87.58087,0 c -2.84413,0 -5.14825,-2.3295 -5.14825,-5.20188 l 0,-12.84987 c 0,-2.87238 2.3055,-5.202 5.14825,-5.202 l 87.58087,0 c 2.844,0 5.14938,2.32837 5.14938,5.202"
       style="fill:#ffffff;fill-opacity:1;fill-rule:nonzero;stroke:none"
       id="path592" />
    <path
       inkscape:connector-curvature="0"
       d="m 269.93963,460.6411 c 0,2.87291 -2.30543,5.20218 -5.14923,5.20218 l -87.5813,0 c -2.84367,0 -5.14873,-2.32927 -5.14873,-5.20218 l 0,-12.85021 c 0,-2.87291 2.30506,-5.20167 5.14873,-5.20167 l 87.5813,0 c 2.84367,0 5.14923,2.32876 5.14923,5.20167 l 0,12.85021 z"
       style="fill:none;stroke:#0e3463;stroke-width:1.86312854;stroke-linecap:butt;stroke-linejoin:miter;stroke-miterlimit:3.86400008;stroke-opacity:1;stroke-dasharray:none"
       id="path596" />
    <path
       inkscape:connector-curvature="0"
       d="m 193.31666,456.42219 1.60813,-4.39103 1.34722,4.39103 -2.95535,0 z m -13.13094,-6.15089 3.3068,0 c 0.91456,0.0299 1.62554,0.89657 1.51163,1.81388 -0.0953,0.76893 -0.65328,1.30617 -1.41724,1.37778 l -3.40119,0 0,-3.19166 z m 17.00657,-3.10811 -4.72403,0 -4.20843,12.34576 -1.93297,-3.37309 c 0,0 2.55093,-0.0959 2.64582,-4.1047 0.11727,-4.98457 -4.91319,-5.00492 -4.91319,-5.00492 l -8.50354,0 0,14.55064 4.53538,0 0,-5.25005 1.13381,0 3.58985,5.25005 2.73995,0 1.88969,0 1.98408,0 0.73449,-2.00486 5.07498,0 0.61522,2.00486 4.62977,0"
       style="fill:#ed1c24;fill-opacity:1;fill-rule:nonzero;stroke:none"
       id="path598" />
    <path
       inkscape:connector-curvature="0"
       d="m 206.73425,450.69471 2.55142,5e-4 0,-3.53202 -10.01503,0 0,3.53202 3.21203,-5e-4 0,10.88217 4.25158,0"
       style="fill:#ed1c24;fill-opacity:1;fill-rule:nonzero;stroke:none"
       id="path600" />
    <path
       inkscape:connector-curvature="0"
       d="m 231.92761,454.29823 c 0,-0.002 3.7e-4,-0.005 3.7e-4,-0.007 0,-4.97753 -3.9939,-9.0125 -8.92114,-9.0125 -1.85126,1.2e-4 -3.56734,0.57518 -4.99291,1.55079 l 3.71135,5.02489 c 0.33118,-0.17929 0.75874,-0.32239 1.28156,-0.32239 0.98408,0 1.6325,0.50633 1.93097,0.80825 0.29847,0.30154 0.80015,0.95676 0.80015,1.95096 l 0,0.007 -2.19947,0 5.14699,6.96768 5.14724,-6.96768"
       style="fill:#ed1c24;fill-opacity:1;fill-rule:nonzero;stroke:none"
       id="path602" />
    <path
       inkscape:connector-curvature="0"
       d="m 224.26116,456.73881 c -0.37545,0.19776 -0.80189,0.31058 -1.25432,0.31058 -0.98408,0 -1.63201,-0.50633 -1.93098,-0.80787 -0.2981,-0.30104 -0.79642,-0.95337 -0.79915,-1.94279 l 2.20967,0 -5.14687,-6.96819 -5.14636,6.96819 1.89354,0 c 0.004,4.97363 3.99614,9.00433 8.92015,9.00433 1.84181,0 3.55266,-0.56513 4.97375,-1.53132"
       style="fill:#0e3463;fill-opacity:1;fill-rule:nonzero;stroke:none"
       id="path604" />
    <path
       inkscape:connector-curvature="0"
       d="m 212.37758,455.14643 -1.89342,0 0.62641,-0.8477 -5e-4,0 2.98122,-4.03635 -8.7e-4,-0.23043 0,-2.86876 -4.33279,0 0,14.41331 4.34635,0 0,-6.43007"
       style="fill:#ed1c24;fill-opacity:1;fill-rule:nonzero;stroke:none"
       id="path606" />
    <path
       inkscape:connector-curvature="0"
       d="m 249.8904,456.42219 1.60726,-4.39103 1.39125,4.39103 -2.99851,0 z m 12.33316,1.62366 -0.001,-10.88266 -4.01592,0 0,11.8849 -4.44023,-11.8849 -4.72404,0 -4.15669,12.19599 0,-12.19599 -4.06342,0 0,8.39987 -4.91269,-8.39987 -4.00709,0.005 0,6.28218 1.8438,0 1.77142,0 -0.51847,0.70347 0.01,0.004 -3.10272,4.19956 0,2.43769 -0.009,0.63951 0.007,0.14223 4.00323,0 0,-7.2544 4.72404,7.2544 3.49608,0 0.75599,0 3.11728,0 0.73436,-2.00486 5.14972,0 0.63537,2.00486 3.68424,0 0.94503,0 8.22011,0 0,-3.5319"
       style="fill:#ed1c24;fill-opacity:1;fill-rule:nonzero;stroke:none"
       id="path608" />
    <path
       inkscape:connector-curvature="0"
       d="m 265.23301,446.74367 0,-0.70636 0.45566,0 c 0.2435,0 0.47817,0.0663 0.47817,0.35079 0,0.34602 -0.30021,0.35557 -0.60527,0.35557 l -0.32856,0 z m 0,0.21334 0.4181,0 0.56734,0.90549 0.29139,0 -0.60117,-0.90549 c 0.2721,-0.0474 0.50677,-0.20857 0.50677,-0.56891 0,-0.36511 -0.20171,-0.56412 -0.657,-0.56412 l -0.77379,0 0,2.03852 0.24823,0 1.3e-4,-0.90549 z m 0.38477,-1.87746 c -0.98495,0 -1.74567,0.77282 -1.74567,1.76363 0,0.99093 0.7606,1.76362 1.74567,1.76362 0.98533,0 1.74568,-0.77269 1.74568,-1.76362 0,-0.99081 -0.76023,-1.76363 -1.74568,-1.76363 m 0,0.25128 c 0.84467,0 1.47345,0.66854 1.47345,1.51235 0,0.84393 -0.62878,1.51234 -1.47345,1.51234 -0.84467,0 -1.47307,-0.66841 -1.47307,-1.51234 0,-0.84381 0.6284,-1.51235 1.47307,-1.51235"
       style="fill:#0e3463;fill-opacity:1;fill-rule:nonzero;stroke:none"
       id="path610" />
  </g>
</svg>
