<?xml version="1.0" encoding="UTF-8" standalone="no"?>
<!-- Created with Inkscape (http://www.inkscape.org/) -->

<svg
   width="210mm"
   height="297mm"
   viewBox="0 0 210 297"
   version="1.1"
   id="svg1"
   xml:space="preserve"
   inkscape:version="1.3.1 (9b9bdc1480, 2023-11-25, custom)"
   sodipodi:docname="sackee.svg"
   xmlns:inkscape="http://www.inkscape.org/namespaces/inkscape"
   xmlns:sodipodi="http://sodipodi.sourceforge.net/DTD/sodipodi-0.dtd"
   xmlns="http://www.w3.org/2000/svg"
   xmlns:svg="http://www.w3.org/2000/svg"><sodipodi:namedview
     id="namedview1"
     pagecolor="#ffffff"
     bordercolor="#000000"
     borderopacity="0.25"
     inkscape:showpageshadow="2"
     inkscape:pageopacity="0.0"
     inkscape:pagecheckerboard="0"
     inkscape:deskcolor="#d1d1d1"
     inkscape:document-units="mm"
     inkscape:zoom="0.51402139"
     inkscape:cx="768.4505"
     inkscape:cy="342.3982"
     inkscape:window-width="1845"
     inkscape:window-height="1016"
     inkscape:window-x="75"
     inkscape:window-y="27"
     inkscape:window-maximized="1"
     inkscape:current-layer="layer1" /><defs
     id="defs1" /><g
     inkscape:label="Layer 1"
     inkscape:groupmode="layer"
     id="layer1"><g
       id="g25"
       transform="translate(0.64498326,-3.417169)"><path
         style="fill:#d7e1ef"
         d="m 24.58319,173.8212 c 0.1827,-0.0731 0.400991,-0.0641 0.485091,0.02 0.0841,0.0841 -0.06538,0.14392 -0.332182,0.13293 -0.294837,-0.0121 -0.354808,-0.0721 -0.152909,-0.15291 z m 41.258494,-5.07874 c 21.204472,-0.0357 55.827326,-0.0357 76.939666,0 21.11235,0.0357 3.76324,0.0649 -38.55358,0.0649 -42.316818,0 -59.590557,-0.0292 -38.386086,-0.0649 z m 117.822556,-9.3011 c 6.6e-4,-1.39201 0.0432,-1.92917 0.0944,-1.1937 0.0513,0.73546 0.0507,1.87437 -0.001,2.53091 -0.0519,0.65653 -0.0939,0.0548 -0.0932,-1.33721 z m -41.59936,-4.76138 c 0,-0.0436 0.37014,-0.41371 0.82254,-0.82255 l 0.82255,-0.74335 -0.74335,0.82255 c -0.69291,0.76672 -0.90174,0.93888 -0.90174,0.74335 z m 31.46031,-1.62835 c 1.50397,-0.0448 3.89568,-0.0447 5.31492,3.7e-4 1.41923,0.045 0.18871,0.0817 -2.73449,0.0815 -2.9232,-2.1e-4 -4.08439,-0.037 -2.58043,-0.0819 z m -68.87782,-1.83573 c 0,-0.348 0.0574,-0.49037 0.12765,-0.31637 0.0702,0.174 0.0702,0.45873 0,0.63273 -0.0702,0.174 -0.12765,0.0316 -0.12765,-0.31636 z m 8.352,-0.25309 c 0,-0.348 0.0575,-0.49037 0.12766,-0.31637 0.0702,0.174 0.0702,0.45873 0,0.63273 -0.0702,0.174 -0.12766,0.0316 -0.12766,-0.31636 z m -66.128999,-0.696 c -0.314812,-0.40142 -0.305861,-0.41037 0.09556,-0.0956 0.421586,0.33063 0.555656,0.53847 0.347353,0.53847 -0.05255,0 -0.251865,-0.19931 -0.442909,-0.44291 z m 57.776999,-0.56946 c 0,-0.348 0.0574,-0.49036 0.12765,-0.31636 0.0702,0.174 0.0702,0.45872 0,0.63272 -0.0702,0.174 -0.12765,0.0316 -0.12765,-0.31636 z m 8.352,0 c 0,-0.348 0.0575,-0.49036 0.12766,-0.31636 0.0702,0.174 0.0702,0.45872 0,0.63272 -0.0702,0.174 -0.12766,0.0316 -0.12766,-0.31636 z m 39.94842,-5.94764 c 0.47222,-0.4872 0.91552,-0.88582 0.98512,-0.88582 0.0696,0 -0.25981,0.39862 -0.73203,0.88582 -0.47221,0.4872 -0.91551,0.88582 -0.98511,0.88582 -0.0696,0 0.25981,-0.39862 0.73202,-0.88582 z m -9.87055,0.53717 c 0,-0.0525 0.19931,-0.25186 0.44291,-0.44291 0.40142,-0.31481 0.41037,-0.30586 0.0956,0.0956 -0.33063,0.42159 -0.53847,0.55566 -0.53847,0.34735 z m 2.27782,-2.53091 c 0,-0.0525 0.19931,-0.25186 0.44291,-0.44291 0.40142,-0.31481 0.41037,-0.30586 0.0956,0.0956 -0.33063,0.42159 -0.53847,0.55566 -0.53847,0.34735 z m -18.76102,-1.6128 c -0.31481,-0.40142 -0.30586,-0.41037 0.0956,-0.0956 0.2436,0.19104 0.44291,0.39035 0.44291,0.44291 0,0.2083 -0.20784,0.0742 -0.53847,-0.34735 z m 21.03884,-0.91811 c 0,-0.0526 0.19931,-0.25186 0.44291,-0.44291 0.40142,-0.31481 0.41037,-0.30586 0.0956,0.0956 -0.33063,0.42159 -0.53847,0.55566 -0.53847,0.34735 z m -11.95855,-1.61128 c 1.1484,-0.0469 3.0276,-0.0469 4.176,0 1.1484,0.0469 0.2088,0.0853 -2.088,0.0853 -2.2968,0 -3.2364,-0.0384 -2.088,-0.0853 z m 15.81819,-3.9e-4 c 1.3572,-0.0455 3.57807,-0.0455 4.93527,0 1.3572,0.0455 0.24677,0.0827 -2.46763,0.0827 -2.7144,0 -3.82484,-0.0372 -2.46764,-0.0827 z m 16.21477,-9e-4 c 2.89773,-0.0406 7.56726,-0.0406 10.37673,1.2e-4 2.80948,0.0407 0.43862,0.0739 -5.26858,0.0739 -5.7072,-6e-5 -8.00587,-0.0334 -5.10815,-0.074 z m 25.1966,-1.26569 c -0.31481,-0.40142 -0.30586,-0.41037 0.0956,-0.0956 0.2436,0.19105 0.44291,0.39036 0.44291,0.44291 0,0.20831 -0.20784,0.0742 -0.53847,-0.34735 z m 4.06812,-3.54327 -0.8722,-0.9491 0.94909,0.8722 c 0.8834,0.81182 1.06546,1.02599 0.8722,1.02599 -0.0423,0 -0.46939,-0.42709 -0.94909,-0.94909 z"
         id="path31" /><path
         style="fill:#c9d6e9"
         d="m 133.57707,150.20353 c 0,-6.8904 0.0326,-9.7092 0.0723,-6.264 0.0398,3.4452 0.0398,9.0828 0,12.52801 -0.0398,3.4452 -0.0723,0.6264 -0.0723,-6.26401 z m 8.33658,8.6051 c 0,-2.1576 0.0388,-3.04026 0.0863,-1.96146 0.0474,1.0788 0.0474,2.84411 0,3.92291 -0.0474,1.0788 -0.0863,0.19615 -0.0863,-1.96145 z m 41.67814,3.39564 c 0.0121,-0.29484 0.0721,-0.35481 0.15291,-0.15291 0.0731,0.1827 0.0641,0.40099 -0.02,0.48509 -0.0841,0.0841 -0.14392,-0.0654 -0.13293,-0.33218 z m -41.67755,-20.47929 c 3.2e-4,-2.2272 0.039,-3.10444 0.086,-1.94943 0.047,1.15501 0.0467,2.97726 -5.8e-4,4.04945 -0.0473,1.07219 -0.0858,0.12718 -0.0855,-2.10002 z m 9.51501,3.57427 c 0,-0.0526 0.19931,-0.25187 0.44291,-0.44291 0.40141,-0.31481 0.41036,-0.30586 0.0956,0.0956 -0.33063,0.42159 -0.53846,0.55566 -0.53846,0.34736 z m 31.733,-4.58663 c 5e-4,-1.6704 0.0415,-2.32081 0.091,-1.44536 0.0496,0.87546 0.0492,2.24215 -9.1e-4,3.0371 -0.0501,0.79494 -0.0906,0.0787 -0.0901,-1.59174 z m -25.15264,-2.24683 c 0,-0.0526 0.19931,-0.25186 0.44291,-0.44291 0.40142,-0.31481 0.41037,-0.30586 0.0956,0.0956 -0.33063,0.42158 -0.53847,0.55565 -0.53847,0.34735 z m -96.490949,-0.85201 c 1.1484,-0.0469 3.027601,-0.0469 4.176002,0 1.1484,0.0469 0.2088,0.0853 -2.088001,0.0853 -2.296801,0 -3.236402,-0.0384 -2.088001,-0.0853 z m 26.827648,0 c 1.148401,-0.0469 3.027601,-0.0469 4.176002,0 1.1484,0.0469 0.2088,0.0853 -2.088001,0.0853 -2.296801,0 -3.236401,-0.0384 -2.088001,-0.0853 z m -22.12499,-6.0757 c 21.13487,-0.0357 55.643831,-0.0357 76.686581,0 21.04275,0.0357 3.75058,0.0649 -38.42704,0.0649 -42.177617,-1e-5 -59.394411,-0.0292 -38.259541,-0.0649 z"
         id="path30" /><path
         style="fill:#b6c8e2"
         d="m 65.061935,173.80428 c 21.75001,-0.0357 57.340935,-0.0357 79.090945,0 21.75001,0.0357 3.95455,0.0649 -39.54547,0.0649 -43.500022,0 -61.295485,-0.0292 -39.545475,-0.0649 z m 51.393295,-10.35981 c 0.1827,-0.0731 0.40099,-0.0641 0.48509,0.02 0.0841,0.0841 -0.0654,0.14392 -0.33218,0.13293 -0.29484,-0.0121 -0.35481,-0.0721 -0.15291,-0.15291 z m 9.91801,-2.95976 c 0,-0.0526 0.1993,-0.25187 0.4429,-0.44291 0.40142,-0.31481 0.41037,-0.30586 0.0956,0.0956 -0.33063,0.42158 -0.53846,0.55565 -0.53846,0.34735 z m -89.151317,-2.85606 c 0.174,-0.0702 0.458727,-0.0702 0.632727,0 0.174,0.0702 0.03164,0.12765 -0.316364,0.12765 -0.348,0 -0.490364,-0.0574 -0.316363,-0.12765 z m 136.795697,-0.78077 c 1.7748,-0.0435 4.67902,-0.0435 6.45382,0 1.7748,0.0435 0.32269,0.0791 -3.22691,0.0791 -3.5496,0 -5.00171,-0.0356 -3.22691,-0.0791 z M 48.714253,155.01226 c 0,-0.348 0.05745,-0.49036 0.127656,-0.31636 0.07021,0.174 0.07021,0.45873 0,0.63273 -0.07021,0.174 -0.127656,0.0316 -0.127656,-0.31637 z m 75.329907,-7.78122 c 1.15501,-0.047 2.97727,-0.0467 4.04946,5.8e-4 1.07219,0.0473 0.12718,0.0858 -2.10002,0.0855 -2.2272,-3.2e-4 -3.10445,-0.039 -1.94944,-0.086 z m 26.75236,-1.33005 c 0.25195,-0.2784 0.51503,-0.50619 0.58463,-0.50619 0.0696,0 -0.0796,0.22779 -0.33154,0.50619 -0.25195,0.2784 -0.51503,0.50618 -0.58463,0.50618 -0.0696,0 0.0796,-0.22778 0.33154,-0.50618 z M 26.422262,144.99408 c 0.01215,-0.29484 0.07212,-0.35481 0.152909,-0.15291 0.07311,0.1827 0.06412,0.40099 -0.01998,0.48509 -0.0841,0.0841 -0.143918,-0.0654 -0.132929,-0.33218 z m 91.298428,-1.79689 c 0.1827,-0.0731 0.40099,-0.0641 0.48509,0.02 0.0841,0.0841 -0.0654,0.14391 -0.33219,0.13292 -0.29483,-0.0121 -0.3548,-0.0721 -0.1529,-0.1529 z m 39.6562,-4.12966 c 0.25194,-0.2784 0.51503,-0.50618 0.58463,-0.50618 0.0696,0 -0.0796,0.22778 -0.33154,0.50618 -0.25195,0.2784 -0.51504,0.50618 -0.58464,0.50618 -0.0696,0 0.0796,-0.22778 0.33155,-0.50618 z M 27.098282,131.56027 c 0.174,-0.0702 0.458727,-0.0702 0.632727,0 0.174,0.0702 0.03164,0.12766 -0.316364,0.12766 -0.348,0 -0.490363,-0.0574 -0.316363,-0.12766 z m 154.148248,-0.005 c 0.1827,-0.0731 0.40099,-0.0641 0.48509,0.02 0.0841,0.0841 -0.0654,0.14392 -0.33218,0.13293 -0.29484,-0.0121 -0.35481,-0.0721 -0.15291,-0.15291 z M 65.335521,126.47625 c 21.900483,-0.0357 57.662249,-0.0357 79.470579,1e-5 21.80834,0.0357 3.88976,0.0649 -39.81906,0.0649 -43.708816,0 -61.552001,-0.0292 -39.651519,-0.0649 z"
         id="path29" /><path
         style="fill:#93aed4"
         d="m 182.2589,168.75938 c 0.1827,-0.0731 0.40099,-0.0641 0.48509,0.02 0.0841,0.0841 -0.0654,0.14392 -0.33218,0.13293 -0.29484,-0.0122 -0.35481,-0.0721 -0.15291,-0.15291 z m 14.72673,-1.21911 c 0.47221,-0.4872 0.91551,-0.88582 0.98511,-0.88582 0.0696,0 -0.25981,0.39862 -0.73202,0.88582 -0.47221,0.4872 -0.91551,0.88582 -0.98511,0.88582 -0.0696,0 0.25981,-0.39862 0.73202,-0.88582 z m -185.405095,-0.18982 -0.743351,-0.82255 0.822545,0.74336 c 0.766728,0.6929 0.93888,0.90174 0.743352,0.90174 -0.04356,0 -0.413703,-0.37015 -0.822546,-0.82255 z m 3.919677,-3.41673 -0.613572,-0.696 0.696,0.61357 c 0.650517,0.57348 0.812065,0.77843 0.613572,0.77843 -0.04533,0 -0.358535,-0.3132 -0.696,-0.696 z m 177.182868,0.60045 c 0,-0.0526 0.19931,-0.25187 0.44291,-0.44291 0.40142,-0.31482 0.41037,-0.30586 0.0956,0.0956 -0.33063,0.42159 -0.53847,0.55566 -0.53847,0.34736 z M 36.339584,163.43574 c 0.384714,-0.0582 0.954169,-0.0566 1.265455,0.003 0.311286,0.0601 -0.0035,0.10767 -0.69948,0.10577 -0.696001,-0.002 -0.950689,-0.0511 -0.565975,-0.10923 z m 81.112196,0.003 c 0.3132,-0.0603 0.82571,-0.0603 1.13891,0 0.3132,0.0603 0.0569,0.10968 -0.56946,0.10968 -0.6264,0 -0.88265,-0.0494 -0.56945,-0.10968 z m 45.23076,-13.23521 c 0,-6.8904 0.0325,-9.7092 0.0723,-6.264 0.0398,3.4452 0.0398,9.0828 0,12.52801 -0.0398,3.4452 -0.0723,0.6264 -0.0723,-6.26401 z m -76.329677,9.29445 c 0.10843,-0.10806 2.010713,-0.16468 4.227297,-0.12583 l 4.030152,0.0707 -4.227297,0.12582 c -2.325013,0.0692 -4.138581,0.0374 -4.030152,-0.0706 z M 61.26557,159.3796 c 1.1484,-0.0469 3.027601,-0.0469 4.176002,0 1.1484,0.0469 0.2088,0.0853 -2.088001,0.0853 -2.296801,0 -3.236402,-0.0384 -2.088001,-0.0853 z m -23.015465,-1.75623 c 0.1827,-0.0731 0.400991,-0.0641 0.485091,0.02 0.0841,0.0841 -0.06538,0.14392 -0.332182,0.13293 -0.294837,-0.0121 -0.354808,-0.0721 -0.152909,-0.15291 z M 25.91608,155.37081 c 0.01215,-0.29484 0.07212,-0.35481 0.152909,-0.15291 0.07311,0.1827 0.06412,0.40099 -0.01998,0.48509 -0.0841,0.0841 -0.143917,-0.0654 -0.132928,-0.33218 z m 98.24261,-2.31831 c 1.0788,-0.0474 2.84411,-0.0474 3.92291,0 1.0788,0.0474 0.19615,0.0863 -1.96146,0.0863 -2.1576,0 -3.04025,-0.0388 -1.96145,-0.0863 z M 4.9095254,151.82753 c 0.012144,-0.29483 0.072116,-0.3548 0.1529091,-0.15291 0.073111,0.1827 0.064119,0.401 -0.019981,0.4851 -0.0841,0.0841 -0.1439178,-0.0654 -0.1329281,-0.33219 z m 5.3149116,0 c 0.01214,-0.29483 0.07212,-0.3548 0.152909,-0.15291 0.07311,0.1827 0.06412,0.401 -0.01998,0.4851 -0.0841,0.0841 -0.143918,-0.0654 -0.132929,-0.33219 z m 139.433173,-4.75664 c 0,-0.0526 0.19931,-0.25187 0.44291,-0.44291 0.40141,-0.31482 0.41037,-0.30586 0.0956,0.0956 -0.33063,0.42159 -0.53846,0.55566 -0.53846,0.34736 z m -107.500412,-2.1173 c 1.0788,-0.0474 2.84411,-0.0474 3.92291,0 1.078801,0.0474 0.196146,0.0863 -1.961455,0.0863 -2.157601,0 -3.040256,-0.0388 -1.961455,-0.0863 z M 155.4787,141.01306 c 0,-0.0435 0.37015,-0.4137 0.82255,-0.82254 l 0.82254,-0.74336 -0.74335,0.82255 c -0.6929,0.76673 -0.90174,0.93888 -0.90174,0.74335 z M 36.467182,137.11247 c 0.454893,-0.0563 1.138239,-0.0552 1.518546,0.003 0.380307,0.0577 0.0081,0.10384 -0.827078,0.10242 -0.835201,-0.001 -1.146361,-0.0487 -0.691468,-0.105 z m 80.736038,0 c 0.45489,-0.0563 1.13824,-0.0552 1.51854,0.003 0.38031,0.0577 0.008,0.10384 -0.82707,0.10242 -0.8352,-0.001 -1.14636,-0.0487 -0.69147,-0.105 z M 26.354827,131.555 c 0.1827,-0.0731 0.400991,-0.0641 0.485091,0.02 0.0841,0.0841 -0.06538,0.14392 -0.332182,0.13293 -0.294837,-0.0121 -0.354808,-0.0721 -0.152909,-0.15291 z"
         id="path28" /><path
         style="fill:#678dc3"
         d="m 50.445928,162.66827 c 0,-0.1044 1.81138,-0.18982 4.025289,-0.18982 2.213908,0 3.972497,0.0854 3.907974,0.18982 -0.06452,0.1044 -1.875903,0.18981 -4.025288,0.18981 -2.149386,0 -3.907975,-0.0854 -3.907975,-0.18981 z m 20.196027,0.001 c 1.15501,-0.047 2.977265,-0.0467 4.049456,5.9e-4 1.072191,0.0473 0.127183,0.0858 -2.100018,0.0855 -2.227201,-3.2e-4 -3.104448,-0.039 -1.949438,-0.0861 z m 8.858185,0 c 1.15501,-0.047 2.977266,-0.0467 4.049457,5.9e-4 1.072191,0.0473 0.127183,0.0858 -2.100018,0.0855 -2.227201,-3.2e-4 -3.104449,-0.039 -1.949439,-0.0861 z m 17.261445,0.0175 c 3.391315,-0.18343 6.834485,-0.19291 6.833995,-0.0188 -3e-4,0.1044 -1.85127,0.16828 -4.113266,0.14196 -2.262001,-0.0263 -3.486329,-0.0817 -2.720729,-0.12315 z m 38.912745,-0.0173 c 1.1484,-0.0469 3.0276,-0.0469 4.176,0 1.1484,0.0469 0.2088,0.0853 -2.088,0.0853 -2.2968,0 -3.2364,-0.0384 -2.088,-0.0853 z m 14.14831,-0.002 c -0.0649,-0.1044 1.38053,-0.16027 3.21197,-0.12414 6.05401,0.11941 6.68575,0.21414 1.76303,0.26438 -2.67139,0.0273 -4.91014,-0.0358 -4.975,-0.14024 z m 18.1208,2.8e-4 c 2.8884,-0.0406 7.61487,-0.0406 10.50327,0 2.8884,0.0406 0.52517,0.0738 -5.25164,0.0738 -5.7768,0 -8.14004,-0.0332 -5.25163,-0.0738 z m -59.55882,-2.78429 -0.61358,-0.696 0.69601,0.61358 c 0.3828,0.33746 0.696,0.65066 0.696,0.696 0,0.19849 -0.20496,0.0369 -0.77843,-0.61358 z m -67.536169,-4.00727 c 0.01214,-0.29484 0.07212,-0.35481 0.152909,-0.15291 0.07311,0.1827 0.06412,0.40099 -0.01998,0.48509 -0.0841,0.0841 -0.143918,-0.0654 -0.132928,-0.33218 z M 27.9841,155.07723 c 1.078801,-0.0474 2.844111,-0.0474 3.922911,0 1.078801,0.0474 0.196146,0.0863 -1.961455,0.0863 -2.157601,0 -3.040256,-0.0388 -1.961456,-0.0863 z m 153.15251,-4.8737 c 0,-1.6008 0.0411,-2.25567 0.0913,-1.45527 0.0502,0.8004 0.0502,2.11015 0,2.91055 -0.0502,0.8004 -0.0913,0.14552 -0.0913,-1.45528 z m 22.73182,1.13891 c 0.005,-0.4176 0.0619,-0.55779 0.12605,-0.31154 0.0642,0.24625 0.0599,0.58792 -0.009,0.75927 -0.0693,0.17135 -0.12183,-0.0301 -0.11667,-0.44773 z M 4.9388843,150.83626 c 0.00516,-0.4176 0.06188,-0.5578 0.1260499,-0.31155 0.06417,0.24625 0.05995,0.58793 -0.00938,0.75928 -0.069327,0.17135 -0.1218298,-0.0301 -0.1166719,-0.44773 z M 203.86843,149.06462 c 0.005,-0.4176 0.0619,-0.55779 0.12605,-0.31154 0.0642,0.24625 0.0599,0.58792 -0.009,0.75927 -0.0693,0.17135 -0.12183,-0.0301 -0.11667,-0.44773 z M 4.9295063,148.68499 c 0,-0.348 0.057445,-0.49037 0.1276555,-0.31637 0.070211,0.174 0.070211,0.45873 0,0.63273 -0.07021,0.174 -0.1276555,0.0316 -0.1276555,-0.31636 z M 142.57106,145.04616 c 0,-0.0526 0.19931,-0.25187 0.44291,-0.44291 0.40142,-0.31481 0.41037,-0.30586 0.0956,0.0956 -0.33063,0.42159 -0.53847,0.55566 -0.53847,0.34736 z m -28.0931,-0.50619 c 0,-0.0526 0.19931,-0.25186 0.44291,-0.4429 0.40141,-0.31482 0.41036,-0.30587 0.0956,0.0956 -0.33063,0.42159 -0.53846,0.55566 -0.53846,0.34735 z m 39.98838,-2.5619 c 0.47221,-0.4872 0.91551,-0.88581 0.98511,-0.88581 0.0696,0 -0.25981,0.39861 -0.73202,0.88581 -0.47221,0.48721 -0.91552,0.88582 -0.98512,0.88582 -0.0696,0 0.25982,-0.39861 0.73203,-0.88582 z m -9.61746,0.53718 c 0,-0.0526 0.19931,-0.25187 0.44291,-0.44291 0.40142,-0.31482 0.41037,-0.30586 0.0956,0.0956 -0.33063,0.42159 -0.53846,0.55566 -0.53846,0.34736 z m 2.27782,-2.53091 c 0,-0.0526 0.19931,-0.25187 0.44291,-0.44291 0.40141,-0.31482 0.41037,-0.30586 0.0955,0.0956 -0.33063,0.42159 -0.53846,0.55566 -0.53846,0.34736 z M 15.519367,136.66316 c 0.472213,-0.4872 0.915515,-0.88582 0.985115,-0.88582 0.0696,0 -0.25981,0.39862 -0.732024,0.88582 -0.472213,0.4872 -0.915514,0.88582 -0.985114,0.88582 -0.0696,0 0.25981,-0.39862 0.732023,-0.88582 z"
         id="path27" /><path
         style="fill:#4976b7"
         d="m 141.81179,154.67998 c 0,-0.0436 0.37014,-0.41371 0.82254,-0.82255 l 0.82255,-0.74335 -0.74335,0.82255 c -0.69291,0.76672 -0.90174,0.93888 -0.90174,0.74335 z m -79.651161,-0.36121 c 0.805483,-0.0504 2.058284,-0.0499 2.784001,0.001 0.725718,0.051 0.06669,0.0922 -1.464514,0.0916 -1.531201,-5.7e-4 -2.12497,-0.0423 -1.319487,-0.0926 z m 27.08074,0 c 0.805483,-0.0504 2.058283,-0.0499 2.784001,0.001 0.725718,0.051 0.06669,0.0922 -1.464515,0.0916 -1.5312,-5.7e-4 -2.124969,-0.0423 -1.319486,-0.0926 z m 114.617681,-4.11524 c 0,-0.348 0.0574,-0.49036 0.12766,-0.31636 0.0702,0.174 0.0702,0.45873 0,0.63273 -0.0702,0.174 -0.12766,0.0316 -0.12766,-0.31637 z M 4.9295063,149.69735 c 0,-0.348 0.057445,-0.49036 0.1276555,-0.31636 0.070211,0.174 0.070211,0.45872 0,0.63272 -0.07021,0.174 -0.1276555,0.0316 -0.1276555,-0.31636 z M 173.38489,147.23076 c 1.4268,-0.0451 3.76157,-0.0451 5.18837,0 1.4268,0.0451 0.25942,0.082 -2.59418,0.082 -2.85361,0 -4.02099,-0.0369 -2.59419,-0.082 z m -20.69019,-3.48105 c 0.47221,-0.4872 0.91552,-0.88582 0.98512,-0.88582 0.0696,0 -0.25981,0.39862 -0.73203,0.88582 -0.47221,0.4872 -0.91551,0.88582 -0.98511,0.88582 -0.0696,0 0.25981,-0.39862 0.73202,-0.88582 z m -9.36437,0.53717 c 0,-0.0525 0.19931,-0.25186 0.44291,-0.44291 0.40142,-0.31481 0.41037,-0.30586 0.0956,0.0956 -0.33063,0.42159 -0.53847,0.55566 -0.53847,0.34735 z m 30.56074,-0.85277 c 1.70521,-0.0438 4.49553,-0.0438 6.20073,0 1.70521,0.0438 0.31004,0.0796 -3.10036,0.0796 -3.4104,0 -4.80557,-0.0358 -3.10037,-0.0796 z M 36.731559,142.691 c 0.1827,-0.0731 0.400991,-0.0641 0.485091,0.02 0.0841,0.0841 -0.06538,0.14392 -0.332182,0.13293 -0.294837,-0.0121 -0.354808,-0.0721 -0.152909,-0.15291 z m 108.876591,-0.93503 c 0,-0.0525 0.19931,-0.25186 0.44291,-0.44291 0.40142,-0.31481 0.41037,-0.30586 0.0956,0.0956 -0.33063,0.42159 -0.53847,0.55566 -0.53847,0.34735 z m -19.13242,-1.48626 -0.48213,-0.56945 0.56945,0.48213 c 0.3132,0.26518 0.56946,0.52143 0.56946,0.56946 0,0.20253 -0.20369,0.053 -0.65678,-0.48214 z m 21.41024,-1.04465 c 0,-0.0526 0.19931,-0.25186 0.44291,-0.44291 0.40142,-0.31481 0.41037,-0.30586 0.0956,0.0956 -0.33063,0.42159 -0.53847,0.55566 -0.53847,0.34735 z m 45.40579,-2.75171 -0.48213,-0.56946 0.56945,0.48214 c 0.53515,0.45308 0.68468,0.65677 0.48214,0.65677 -0.048,0 -0.30428,-0.25625 -0.56946,-0.56945 z m 3.5514,-3.54328 -0.74335,-0.82254 0.82255,0.74335 c 0.4524,0.40884 0.82254,0.77899 0.82254,0.82254 0,0.19553 -0.20883,0.0234 -0.90174,-0.74335 z"
         id="path26" /><path
         style="fill:#3c6db3"
         d="m 22.859007,173.35847 c -2.190009,-0.44905 -3.539361,-0.95342 -5.770942,-2.15712 C 10.802397,167.8109 6.9336415,162.37303 5.5253071,154.9489 5.0420122,152.40117 5.0323214,147.52209 5.5057471,145.1007 7.1352698,136.76632 12.64692,130.48468 20.834279,127.63073 l 2.404365,-0.83812 h 81.495306 81.49531 l 2.20035,0.78751 c 5.68859,2.03593 11.17785,7.20321 13.46265,12.67297 1.52322,3.64656 1.80028,5.17795 1.80028,9.95044 0,3.83787 -0.0779,4.714 -0.58321,6.56346 -1.44084,5.27302 -4.35695,9.6731 -8.39438,12.66617 -1.9023,1.41023 -5.20997,3.06193 -7.47332,3.73184 -1.43946,0.42604 -5.71681,0.45157 -82.12804,0.49012 -66.288267,0.0334 -80.901761,-0.0193 -82.254583,-0.29665 z M 186.22926,168.2113 c 5.72681,-1.92148 9.52555,-5.59322 11.42988,-11.04776 0.66887,-1.91582 0.70711,-2.26298 0.71092,-6.45382 0.004,-4.91794 -0.24223,-6.25708 -1.7484,-9.49092 -2.1058,-4.52125 -5.78295,-7.60894 -10.89858,-9.15153 -1.44901,-0.43694 -5.13734,-0.4611 -80.55104,-0.52756 -88.571855,-0.0781 -80.80717,-0.24821 -85.086095,1.86445 -3.782856,1.86773 -6.824967,5.22894 -8.497815,9.38917 -2.105964,5.23737 -1.7433968,11.92839 0.924207,17.05586 2.318194,4.45586 6.487693,7.6188 11.48558,8.71283 1.238409,0.27108 16.17904,0.32422 80.989123,0.28805 l 79.47058,-0.0443 z M 33.555785,162.99177 c -3.925462,-1.10952 -6.717598,-3.70638 -7.286963,-6.77733 l -0.175965,-0.94909 3.761259,0.01 3.76126,0.01 0.5075,0.8128 c 0.680103,1.08923 1.974841,1.69774 3.613358,1.69822 2.490718,7.3e-4 3.857281,-1.10102 3.106254,-2.50432 -0.402966,-0.75295 -1.283783,-1.14411 -5.241702,-2.32778 -1.927176,-0.57635 -4.092152,-1.32295 -4.811058,-1.65913 -2.909885,-1.36071 -4.366502,-3.8725 -4.042634,-6.9711 0.439948,-4.2092 3.777829,-6.6723 9.448667,-6.97239 2.956075,-0.15643 5.120949,0.18175 7.078719,1.10576 2.245883,1.05999 4.085721,3.33126 4.540516,5.60524 l 0.163295,0.81647 h -3.787377 c -3.772435,0 -3.78849,-0.002 -4.069567,-0.61934 -0.45282,-0.99383 -1.404771,-1.45685 -3.026627,-1.47213 -2.159011,-0.0203 -3.151402,0.73247 -2.727258,2.06883 0.256768,0.809 1.238687,1.25531 5.096702,2.31657 2.034078,0.55954 4.354202,1.34842 5.155832,1.75309 3.328,1.67996 4.723671,4.78437 3.692036,8.21224 -0.777354,2.58295 -2.727641,4.36507 -5.978674,5.46317 -2.148757,0.72578 -6.837272,0.92914 -8.777573,0.38072 z m 81.681445,0.21268 c -4.69772,-0.89802 -8.1451,-3.82155 -9.60042,-8.1416 -0.73418,-2.1794 -0.90713,-5.28924 -0.42872,-7.70916 1.25808,-6.36374 5.86241,-10.041 12.58878,-10.05406 5.98089,-0.0116 9.81213,2.55178 11.38973,7.6206 0.75452,2.42429 0.98218,2.26933 -3.21685,2.1897 l -3.69366,-0.07 -0.33422,-0.97309 c -1.10999,-3.23177 -5.55594,-4.05681 -7.51665,-1.39486 -1.13657,1.54307 -1.33926,2.41855 -1.33926,5.78467 0,3.02327 0.0328,3.22288 0.73968,4.49873 0.96947,1.74984 2.09969,2.45284 3.94343,2.45284 2.25053,0 3.66389,-1.19412 4.4085,-3.72466 0.11664,-0.39639 0.52986,-0.4429 3.93463,-0.4429 2.09237,0 3.80431,0.10189 3.80431,0.22643 0,0.12453 -0.22884,0.96732 -0.50853,1.87285 -1.04135,3.37149 -3.52501,6.0351 -6.80094,7.29369 -1.06017,0.40731 -2.0986,0.56489 -4.07963,0.6191 -1.4616,0.04 -2.94218,0.0183 -3.29018,-0.0482 z m -64.533589,-0.78268 c 0.0025,-0.10803 1.969228,-5.66318 4.370413,-12.34478 l 4.365791,-12.14837 4.108136,-0.0695 c 2.259475,-0.0383 4.108137,-0.0223 4.108137,0.0355 0,0.0848 2.511776,7.1107 8.494703,23.76131 l 0.341029,0.94909 h -3.978117 -3.978118 l -0.472843,-1.65106 -0.472843,-1.65106 -4.185937,0.0692 -4.185938,0.0693 -0.420082,1.51854 -0.420082,1.51855 -3.839435,0.0699 c -2.11169,0.0384 -3.837356,-0.0185 -3.834814,-0.12654 z m 15.433931,-8.31904 c 0,-0.57262 -2.283017,-8.28388 -2.529435,-8.54358 -0.112356,-0.11842 -0.26643,-0.005 -0.342386,0.25309 -0.07596,0.25761 -0.605893,2.1198 -1.177636,4.1382 -0.571742,2.0184 -1.09804,3.86913 -1.169549,4.11273 -0.11803,0.40208 0.116539,0.44291 2.544495,0.44291 2.278512,0 2.674511,-0.0597 2.674511,-0.40335 z m 12.123224,6.54081 c 0.396768,-1.0788 2.404214,-6.65946 4.460992,-12.40146 l 3.739597,-10.44001 4.074463,0.004 4.074464,0.004 4.302547,12.04989 c 2.366401,6.62743 4.339371,12.2061 4.384381,12.39702 0.0666,0.28271 -0.6457,0.34714 -3.83767,0.34714 h -3.919498 l -0.472103,-1.58182 -0.472103,-1.58181 -4.19288,-0.0692 -4.192879,-0.0692 -0.446914,1.65103 -0.446914,1.65103 H 81.42784 77.5394 Z m 14.957515,-6.46975 c 0,-0.27974 -2.016988,-7.354 -2.430873,-8.5259 -0.11918,-0.33745 -0.156954,-0.33745 -0.339967,0 -0.190895,0.352 -2.544071,8.42001 -2.544071,8.72252 0,0.0746 1.195855,0.13567 2.657455,0.13567 2.025171,0 2.657456,-0.0791 2.657456,-0.33229 z m 40.494559,-3.97026 v -12.40146 h 4.04319 4.04319 l 0.0695,4.10386 0.0695,4.10386 3.66982,-4.09614 3.66982,-4.09614 4.49237,-0.008 c 2.4708,-0.004 4.49236,0.0597 4.49236,0.14218 0,0.0824 -1.94263,2.15846 -4.31696,4.61338 -2.65963,2.7499 -4.27665,4.61136 -4.21196,4.84865 0.0578,0.21184 2.28016,3.71648 4.93867,7.78808 l 4.83365,7.40291 h -4.77559 -4.77559 l -2.96163,-4.872 c -1.62889,-2.6796 -3.00762,-4.92155 -3.06384,-4.9821 -0.0562,-0.0606 -0.5557,0.3327 -1.10994,0.87391 l -1.00772,0.98401 v 3.99809 3.99809 h -4.04946 -4.04946 z m 29.10547,0 v -12.40146 h 10.12364 10.12364 v 2.784 2.78401 h -6.07418 -6.07419 v 2.02472 2.02473 h 5.06183 5.06182 v 2.784 2.784 h -5.06182 -5.06183 v 2.02473 2.02473 h 6.32728 6.32728 v 2.784 2.784 h -10.37674 -10.37673 z"
         id="path25" /></g></g></svg>
