<?xml version="1.0" encoding="UTF-8" standalone="no"?>
<!-- Created with Inkscape (http://www.inkscape.org/) -->

<svg
   width="210mm"
   height="297mm"
   viewBox="0 0 210 297"
   version="1.1"
   id="svg1"
   xml:space="preserve"
   inkscape:version="1.3.1 (9b9bdc1480, 2023-11-25, custom)"
   sodipodi:docname="xpeliar.svg"
   xmlns:inkscape="http://www.inkscape.org/namespaces/inkscape"
   xmlns:sodipodi="http://sodipodi.sourceforge.net/DTD/sodipodi-0.dtd"
   xmlns="http://www.w3.org/2000/svg"
   xmlns:svg="http://www.w3.org/2000/svg"><sodipodi:namedview
     id="namedview1"
     pagecolor="#ffffff"
     bordercolor="#000000"
     borderopacity="0.25"
     inkscape:showpageshadow="2"
     inkscape:pageopacity="0.0"
     inkscape:pagecheckerboard="0"
     inkscape:deskcolor="#d1d1d1"
     inkscape:document-units="mm"
     inkscape:zoom="0.51402139"
     inkscape:cx="896.84983"
     inkscape:cy="342.3982"
     inkscape:window-width="1845"
     inkscape:window-height="1016"
     inkscape:window-x="75"
     inkscape:window-y="27"
     inkscape:window-maximized="1"
     inkscape:current-layer="layer1" /><defs
     id="defs1" /><g
     inkscape:label="Layer 1"
     inkscape:groupmode="layer"
     id="layer1"><g
       id="g7"
       transform="translate(1.3270242,-0.03666375)"><path
         style="fill:#b0d8ca"
         d="m 51.565808,168.05547 c 0,-0.0993 0.376733,-0.47607 0.837184,-0.83718 0.758754,-0.59506 0.775675,-0.57814 0.180619,0.18062 -0.624955,0.79687 -1.017803,1.05029 -1.017803,0.65656 z m 75.714402,-0.1509 c 0.46546,-0.12129 1.11129,-0.11332 1.43517,0.0177 0.32389,0.13104 -0.0569,0.23028 -0.84629,0.22053 -0.78934,-0.01 -1.05434,-0.11697 -0.58888,-0.23826 z m 29.18182,0 c 0.46546,-0.12129 1.11129,-0.11332 1.43517,0.0177 0.32389,0.13104 -0.0569,0.23028 -0.84629,0.22053 -0.78934,-0.01 -1.05434,-0.11697 -0.58888,-0.23826 z m -15.22245,-16.65134 c 1.8e-4,-8.94591 0.0647,-12.53799 0.14341,-7.98242 0.0787,4.55558 0.0786,11.87495 -3.2e-4,16.26528 -0.0789,4.39033 -0.14326,0.66304 -0.14309,-8.28286 z m 23.1093,14.8301 c -0.12574,-0.65778 -0.0432,-1.19597 0.18343,-1.19597 0.22662,0 0.41205,0.53819 0.41205,1.19597 0,0.65779 -0.0825,1.19598 -0.18343,1.19598 -0.10088,0 -0.28631,-0.53819 -0.41205,-1.19598 z m -53.94104,-0.41981 c 0,-0.0993 0.37673,-0.47607 0.83718,-0.83719 0.75876,-0.59505 0.77568,-0.57813 0.18062,0.18062 -0.62495,0.79688 -1.0178,1.0503 -1.0178,0.65657 z m 59.99356,-8.9088 c 0,-4.3414 0.0725,-6.11742 0.16117,-3.94672 0.0886,2.17069 0.0886,5.72274 0,7.89344 -0.0886,2.1707 -0.16117,0.39467 -0.16117,-3.94672 z m -139.330848,0.47839 c 0,-0.65779 0.108582,-0.92688 0.241294,-0.59799 0.132711,0.32889 0.132711,0.86708 0,1.19598 -0.132712,0.32889 -0.241294,0.0598 -0.241294,-0.59799 z m 128.491908,-4.62235 c 0.3289,-0.13271 0.86709,-0.13271 1.19598,0 0.32889,0.13272 0.0598,0.2413 -0.59799,0.2413 -0.65778,0 -0.92688,-0.10858 -0.59799,-0.2413 z M 47.260294,150.35502 c 0,-0.0993 0.376732,-0.47607 0.837183,-0.83718 0.758754,-0.59506 0.775675,-0.57814 0.180619,0.18062 -0.624955,0.79688 -1.017802,1.05029 -1.017802,0.65656 z m 7.251393,-1.25455 c 0,-0.65779 0.108582,-0.92688 0.241293,-0.59799 0.132712,0.32889 0.132712,0.86708 0,1.19598 -0.132711,0.32889 -0.241293,0.0598 -0.241293,-0.59799 z m -25.430232,-0.21775 c 0,-0.36912 1.423816,-0.66604 1.625904,-0.33906 0.121756,0.19701 -0.194264,0.3895 -0.702265,0.42777 -0.508002,0.0383 -0.923639,-0.002 -0.923639,-0.0887 z m 130.989295,-1.06583 c 0.34534,-0.13819 0.75795,-0.12119 0.91692,0.0378 0.15896,0.15897 -0.12358,0.27203 -0.62789,0.25126 -0.5573,-0.023 -0.67065,-0.13631 -0.28903,-0.28903 z m 15.75699,-4.80317 c 0.85512,-0.10612 2.25442,-0.10612 3.10954,0 0.85512,0.10612 0.15548,0.19294 -1.55477,0.19294 -1.71025,0 -2.40989,-0.0868 -1.55477,-0.19294 z m -47.33076,-0.45912 c 0.34534,-0.1382 0.75795,-0.1212 0.91692,0.0378 0.15896,0.15896 -0.12359,0.27203 -0.62789,0.25125 -0.5573,-0.0229 -0.67066,-0.13631 -0.28903,-0.28902 z m 68.37994,0.01 c 0.3289,-0.13271 0.86709,-0.13271 1.19598,0 0.32889,0.13272 0.0598,0.2413 -0.59799,0.2413 -0.65779,0 -0.92688,-0.10858 -0.59799,-0.2413 z m -0.92688,-4.79387 c 0.34534,-0.13819 0.75795,-0.1212 0.91692,0.0378 0.15896,0.15897 -0.12359,0.27203 -0.62789,0.25126 -0.5573,-0.023 -0.67066,-0.13631 -0.28903,-0.28903 z m 2.5971,0.11585 c 0.19505,-0.23023 0.12922,-0.69022 -0.1463,-1.0222 -0.36839,-0.44389 -0.30767,-0.57523 0.2295,-0.49639 1.18274,0.17359 1.31659,0.59278 0.4109,1.2868 -0.46681,0.35772 -0.68915,0.46202 -0.4941,0.23179 z M 24.895538,134.41899 c 0.460451,-0.12033 1.213916,-0.12033 1.674367,0 0.460451,0.12033 0.08372,0.21878 -0.837184,0.21878 -0.920901,0 -1.297634,-0.0984 -0.837183,-0.21878 z m 27.56603,-5.29132 c -0.595056,-0.75876 -0.578135,-0.77568 0.180619,-0.18062 0.460451,0.36111 0.837183,0.73784 0.837183,0.83718 0,0.39373 -0.392847,0.14031 -1.017802,-0.65656 z"
         id="path13" /><path
         style="fill:#90c9b5"
         d="m 91.433058,173.01999 c 0,-1.97336 0.08445,-2.78064 0.187655,-1.79396 0.10321,0.98668 0.10321,2.60125 0,3.58793 -0.10321,0.98668 -0.187655,0.1794 -0.187655,-1.79397 z m 82.808132,-17.93964 c -3e-4,-6.57787 0.0671,-9.33517 0.14972,-6.12733 0.0826,3.20784 0.0829,8.58973 5.3e-4,11.95976 -0.0823,3.37004 -0.14996,0.74544 -0.15025,-5.83243 z m -38.62581,1.81221 2.96238,-0.18207 0.19731,-1.65639 c 0.19619,-1.64691 0.19703,-1.64609 0.14716,0.14171 l -0.0502,1.7981 -3.10954,0.0404 -3.10954,0.0404 z m -27.52396,-1.57301 c 0,-0.65779 0.10859,-0.92689 0.2413,-0.59799 0.13271,0.32889 0.13271,0.86708 0,1.19597 -0.13271,0.3289 -0.2413,0.0598 -0.2413,-0.59798 z m -69.083362,-2.2304 c 0.328893,-0.13271 0.867083,-0.13271 1.195976,0 0.328894,0.13272 0.0598,0.2413 -0.597988,0.2413 -0.657787,0 -0.926882,-0.10858 -0.597988,-0.2413 z m -25.675722,-1.3974 c 0.02295,-0.5573 0.136313,-0.67065 0.289028,-0.28903 0.138192,0.34534 0.121197,0.75795 -0.03777,0.91692 -0.158965,0.15896 -0.272032,-0.12359 -0.25126,-0.62789 z m 146.478424,-9.14188 c 0.46546,-0.12129 1.11129,-0.11331 1.43518,0.0177 0.32388,0.13104 -0.057,0.23028 -0.84629,0.22053 -0.78935,-0.01 -1.05434,-0.11696 -0.58889,-0.23826 z m -94.95697,-7.67362 c 1.125193,-0.10106 2.847399,-0.0996 3.827124,0.003 0.979726,0.10279 0.05911,0.18548 -2.045805,0.18374 -2.104918,-0.002 -2.906511,-0.0858 -1.781319,-0.1869 z m 19.614011,0 c 1.125193,-0.10106 2.847398,-0.0996 3.827124,0.003 0.979725,0.10279 0.05911,0.18548 -2.045805,0.18374 -2.104918,-0.002 -2.906512,-0.0858 -1.781319,-0.1869 z m 91.359939,-0.47356 c 0.85512,-0.10612 2.25442,-0.10612 3.10954,0 0.85512,0.10612 0.15548,0.19294 -1.55477,0.19294 -1.71025,0 -2.40989,-0.0868 -1.55477,-0.19294 z m -124.801343,-6.7102 c -0.595056,-0.75875 -0.578135,-0.77567 0.180619,-0.18061 0.46045,0.36111 0.837183,0.73784 0.837183,0.83718 0,0.39373 -0.392847,0.14031 -1.017802,-0.65657 z m -19.642688,-3.79512 c 0.345338,-0.1382 0.75795,-0.1212 0.916915,0.0378 0.158965,0.15896 -0.123584,0.27203 -0.627887,0.25126 -0.557298,-0.023 -0.670656,-0.13632 -0.289028,-0.28903 z"
         id="path12" /><path
         style="fill:#7cc0a8"
         d="m 91.436217,166.08333 c 0.0017,-2.10492 0.08584,-2.90651 0.186901,-1.78132 0.101058,1.1252 0.09964,2.8474 -0.0032,3.82713 -0.102796,0.97972 -0.185479,0.0591 -0.183742,-2.04581 z M 122.4897,157.7115 c 0.15754,-0.57993 1.19696,-0.72284 5.41831,-0.74499 l 5.22338,-0.0274 -5.00591,0.16487 c -3.20499,0.10555 -5.15428,0.37356 -5.41831,0.74498 -0.29457,0.41436 -0.35671,0.37508 -0.21747,-0.13746 z m 73.46034,-8.93783 c 0.34534,-0.13819 0.75795,-0.12119 0.91692,0.0378 0.15896,0.15897 -0.12359,0.27203 -0.62789,0.25126 -0.5573,-0.023 -0.67066,-0.13631 -0.28903,-0.28903 z m -5.65099,-3.73952 c 0,-0.9209 0.0841,-1.67437 0.18686,-1.67437 0.10277,0 0.27482,0.75347 0.38233,1.67437 0.10751,0.9209 0.0234,1.67437 -0.18686,1.67437 -0.21028,0 -0.38233,-0.75347 -0.38233,-1.67437 z m -86.19998,-2.00116 c 0.34533,-0.1382 0.75795,-0.1212 0.91691,0.0378 0.15897,0.15896 -0.12358,0.27203 -0.62789,0.25126 -0.55729,-0.023 -0.67065,-0.13632 -0.28902,-0.28903 z m 70.08783,-5.41389 c 0,-1.71025 0.0868,-2.4099 0.19294,-1.55477 0.10612,0.85512 0.10612,2.25441 0,3.10954 -0.10612,0.85512 -0.19294,0.15547 -0.19294,-1.55477 z m -31.37877,-2.73723 c 0.84925,-0.10568 2.35618,-0.10741 3.34873,-0.004 0.99255,0.10356 0.2977,0.19002 -1.5441,0.19215 -1.8418,0.002 -2.65389,-0.0826 -1.80463,-0.1883 z M 32.0805,131.0685 c 0.465459,-0.12129 1.111286,-0.11332 1.435172,0.0177 0.323886,0.13104 -0.05694,0.23028 -0.846288,0.22053 -0.789345,-0.01 -1.054342,-0.11697 -0.588884,-0.23826 z m 0.738381,-7.17113 c 0.345338,-0.1382 0.75795,-0.1212 0.916915,0.0378 0.158965,0.15896 -0.123584,0.27203 -0.627888,0.25126 -0.557297,-0.023 -0.670655,-0.13632 -0.289027,-0.28903 z"
         id="path11" /><path
         style="fill:#5cb192"
         d="m 40.682425,167.42793 c 0.46045,-0.12033 1.213915,-0.12033 1.674366,0 0.460451,0.12033 0.08372,0.21878 -0.837183,0.21878 -0.920902,0 -1.297634,-0.0985 -0.837183,-0.21878 z m 125.816705,-0.49711 c 0.98668,-0.10321 2.60125,-0.10321 3.58793,0 0.98668,0.10321 0.17939,0.18765 -1.79397,0.18765 -1.97336,0 -2.78064,-0.0844 -1.79396,-0.18765 z m 9.32861,0.002 c 0.85512,-0.10612 2.25442,-0.10612 3.10954,0 0.85512,0.10612 0.15548,0.19295 -1.55477,0.19295 -1.71025,0 -2.40989,-0.0868 -1.55477,-0.19295 z m 10.03553,8e-4 c 0.84926,-0.10568 2.35619,-0.10742 3.34874,-0.004 0.99254,0.10356 0.2977,0.19003 -1.5441,0.19215 -1.84181,0.002 -2.65389,-0.0826 -1.80464,-0.18829 z m -94.405176,-10.4181 c 8.37e-4,-3.42049 0.07704,-4.75701 0.16933,-2.97004 0.09229,1.78696 0.09161,4.58555 -0.0015,6.21907 -0.09313,1.63353 -0.168646,0.17146 -0.167809,-3.24903 z m 63.956226,3.78726 c 0.023,-0.5573 0.13631,-0.67066 0.28902,-0.28903 0.1382,0.34534 0.1212,0.75795 -0.0378,0.91692 -0.15897,0.15896 -0.27204,-0.12359 -0.25126,-0.62789 z m -21.69561,-0.0662 c 0.84925,-0.10568 2.35618,-0.10742 3.34873,-0.004 0.99255,0.10356 0.29771,0.19003 -1.5441,0.19215 -1.8418,0.002 -2.65389,-0.0826 -1.80463,-0.18829 z m -116.999873,-1.5683 c 0,-0.65779 0.108582,-0.92688 0.241294,-0.59799 0.132711,0.32889 0.132711,0.86708 0,1.19598 -0.132712,0.32889 -0.241294,0.0598 -0.241294,-0.59799 z m 19.31971,-5.22924 c -0.151378,-0.24493 -0.09232,-0.55838 0.13123,-0.69654 0.223554,-0.13817 0.406462,0.0622 0.406462,0.44533 0,0.80665 -0.150854,0.87713 -0.537692,0.25121 z m 86.640583,-0.39185 c -0.12283,-0.19734 1.31757,-0.29996 3.2009,-0.22806 6.15358,0.23493 6.864,0.42451 1.8977,0.50643 -2.6814,0.0442 -4.97577,-0.081 -5.0986,-0.27837 z m 0.64525,-3.17056 c 0,-0.0993 0.37674,-0.47607 0.83719,-0.83718 0.75875,-0.59506 0.77567,-0.57814 0.18062,0.18062 -0.62496,0.79687 -1.01781,1.05029 -1.01781,0.65656 z m -96.506175,-1.10768 c 0.465458,-0.12129 1.111285,-0.11332 1.435171,0.0177 0.323886,0.13104 -0.05694,0.23028 -0.846288,0.22053 -0.789344,-0.01 -1.054342,-0.11697 -0.588883,-0.23826 z m 170.567005,0.005 c 0.34534,-0.13819 0.75795,-0.12119 0.91692,0.0378 0.15896,0.15897 -0.12359,0.27203 -0.62789,0.25126 -0.5573,-0.023 -0.67065,-0.13631 -0.28903,-0.28903 z m -100.372304,-3.7398 c 0,-0.9209 0.08409,-1.67437 0.186857,-1.67437 0.102771,0 0.274819,0.75347 0.382329,1.67437 0.10751,0.9209 0.02343,1.67437 -0.186856,1.67437 -0.210282,0 -0.38233,-0.75347 -0.38233,-1.67437 z m 83.393064,-7.41505 c 0,-1.71025 0.0868,-2.4099 0.19295,-1.55477 0.10612,0.85512 0.10612,2.25441 0,3.10954 -0.10612,0.85512 -0.19295,0.15547 -0.19295,-1.55477 z M 43.850539,132.4764 c -0.595056,-0.75875 -0.578135,-0.77568 0.180619,-0.18062 0.796878,0.62496 1.050296,1.0178 0.656565,1.0178 -0.09934,0 -0.476073,-0.37673 -0.837184,-0.83718 z m 149.328451,-0.84874 c 0.33283,-0.40104 0.70366,-0.63063 0.82407,-0.51022 0.33176,0.33176 -0.34231,1.23936 -0.92047,1.23936 -0.31722,0 -0.28093,-0.27449 0.0964,-0.72914 z m 2.03267,0.39762 c 0.46546,-0.12129 1.11129,-0.11331 1.43517,0.0177 0.32389,0.13104 -0.0569,0.23028 -0.84628,0.22053 -0.78935,-0.01 -1.05435,-0.11697 -0.58889,-0.23826 z m 3.45923,-0.14687 c -0.16262,-0.26311 -0.0677,-0.47839 0.21096,-0.47839 0.27864,0 0.50662,0.21528 0.50662,0.47839 0,0.26312 -0.0949,0.47839 -0.21096,0.47839 -0.11603,0 -0.34401,-0.21527 -0.50662,-0.47839 z m -151.216854,-1.55477 -0.911328,-1.07638 1.076379,0.91133 c 1.01153,0.85642 1.294161,1.24143 0.911328,1.24143 -0.09078,0 -0.575148,-0.48437 -1.076379,-1.07638 z m -18.462279,-6.42627 c 0.345338,-0.1382 0.75795,-0.1212 0.916915,0.0378 0.158965,0.15896 -0.123584,0.27203 -0.627888,0.25126 -0.557297,-0.023 -0.670655,-0.13632 -0.289027,-0.28903 z"
         id="path10" /><path
         style="fill:#299971"
         d="m 32.34049,175.08515 c 0.345338,-0.13819 0.75795,-0.1212 0.916915,0.0378 0.158965,0.15896 -0.123584,0.27203 -0.627887,0.25126 -0.557298,-0.023 -0.670656,-0.13631 -0.289028,-0.28903 z m 2.391953,0 c 0.345338,-0.13819 0.75795,-0.1212 0.916915,0.0378 0.158965,0.15896 -0.123584,0.27203 -0.627888,0.25126 -0.557297,-0.023 -0.670655,-0.13631 -0.289027,-0.28903 z m -19.08213,-7.20785 -1.159768,-1.31558 1.315573,1.15977 c 0.723566,0.63787 1.315574,1.22988 1.315574,1.31558 0,0.37518 -0.3874,0.0698 -1.471379,-1.15977 z m 127.157817,-0.94326 c 0.84925,-0.10568 2.35618,-0.10742 3.34873,-0.004 0.99255,0.10356 0.2977,0.19003 -1.5441,0.19215 -1.8418,0.002 -2.65389,-0.0826 -1.80463,-0.18829 z m 37.65213,-11.85369 c -2.9e-4,-6.57787 0.0671,-9.33517 0.14973,-6.12733 0.0826,3.20784 0.0829,8.58973 5.3e-4,11.95976 -0.0824,3.37004 -0.14997,0.74544 -0.15026,-5.83243 z m 10.02755,5.2623 c 7.4e-4,-3.68361 0.0758,-5.1273 0.16687,-3.20821 0.091,1.91909 0.0904,4.93295 -0.001,6.69747 -0.0918,1.76451 -0.16627,0.19434 -0.16552,-3.48926 z m -141.792345,3.8783 c 0,-0.1034 0.334095,-0.31621 0.742433,-0.47291 0.425732,-0.16337 0.617756,-0.0832 0.450157,0.18801 -0.280939,0.45457 -1.19259,0.67236 -1.19259,0.2849 z m 78.844735,-1.09556 c 0.34534,-0.13819 0.75795,-0.1212 0.91692,0.0378 0.15896,0.15896 -0.12359,0.27203 -0.62789,0.25126 -0.5573,-0.023 -0.67066,-0.13632 -0.28903,-0.28903 z m -11.27103,-7.56665 c 0.005,-1.05246 0.10328,-1.42668 0.2177,-0.8316 0.11443,0.59507 0.11009,1.45617 -0.01,1.91356 -0.11974,0.45738 -0.21336,-0.0295 -0.20805,-1.08196 z m -19.163002,0 c 0.0097,-0.78934 0.116966,-1.05434 0.238258,-0.58888 0.121293,0.46546 0.113316,1.11128 -0.01773,1.43517 -0.131042,0.32388 -0.230282,-0.0569 -0.220532,-0.84629 z m 53.486472,1.01536 c 0,-0.0993 0.37674,-0.47607 0.83719,-0.83718 0.75875,-0.59506 0.77567,-0.57814 0.18061,0.18061 -0.62495,0.79688 -1.0178,1.0503 -1.0178,0.65657 z M 9.1193501,151.49242 c 0,-1.18401 0.093294,-1.66839 0.2073196,-1.07638 0.1140258,0.59201 0.1140258,1.56075 0,2.15276 -0.1140258,0.59201 -0.2073196,0.10764 -0.2073196,-1.07638 z m 82.3168669,-4.54471 c 0.0017,-2.10492 0.08584,-2.90651 0.186901,-1.78132 0.101058,1.1252 0.09964,2.8474 -0.0032,3.82713 -0.102796,0.97972 -0.185479,0.0591 -0.183742,-2.04581 z m 106.670203,-1.19597 c 0,-1.71025 0.0868,-2.4099 0.19295,-1.55477 0.10612,0.85512 0.10612,2.25441 0,3.10953 -0.10612,0.85513 -0.19295,0.15548 -0.19295,-1.55476 z m -87.50484,-0.1196 -0.91133,-1.07638 1.07638,0.91133 c 1.01153,0.85642 1.29416,1.24143 0.91133,1.24143 -0.0908,0 -0.57515,-0.48437 -1.07638,-1.07638 z m 24.62155,0.23919 c -0.59506,-0.75875 -0.57814,-0.77567 0.18061,-0.18062 0.79688,0.62496 1.0503,1.01781 0.65657,1.01781 -0.0993,0 -0.47607,-0.37674 -0.83718,-0.83719 z m -37.253443,0.17818 c 0,-0.0993 0.376733,-0.47608 0.837184,-0.83719 0.758754,-0.59505 0.775674,-0.57813 0.180619,0.18062 -0.624955,0.79688 -1.017803,1.0503 -1.017803,0.65657 z m 70.262383,-0.65657 c -0.59506,-0.75875 -0.57814,-0.77567 0.18062,-0.18062 0.79688,0.62496 1.0503,1.01781 0.65656,1.01781 -0.0993,0 -0.47607,-0.37674 -0.83718,-0.83719 z M 35.376067,144.79495 c 0,-0.65778 0.108582,-0.92688 0.241293,-0.59798 0.132712,0.32889 0.132712,0.86708 0,1.19597 -0.132711,0.3289 -0.241293,0.0598 -0.241293,-0.59799 z M 193.58677,137.2603 c -0.60733,-0.77439 -0.58481,-0.78455 0.30021,-0.13536 0.52623,0.38599 1.04648,0.76273 1.15611,0.83718 0.10963,0.0745 -0.0255,0.13537 -0.30021,0.13537 -0.27475,0 -0.795,-0.37673 -1.15611,-0.83719 z m 1.53396,-1.83383 c 0.0229,-0.55729 0.13631,-0.67065 0.28902,-0.28902 0.1382,0.34533 0.1212,0.75795 -0.0378,0.91691 -0.15897,0.15897 -0.27204,-0.12358 -0.25126,-0.62789 z m 2.08922,-1.67618 c -0.17678,-0.28604 -0.12798,-0.71352 0.10845,-0.94995 0.25424,-0.25423 0.42988,-0.0417 0.42988,0.52008 0,1.08701 -0.0885,1.15769 -0.53833,0.42987 z m -1.25991,-3.15546 c 0.34534,-0.13819 0.75795,-0.12119 0.91692,0.0378 0.15896,0.15897 -0.12359,0.27203 -0.62789,0.25126 -0.5573,-0.023 -0.67066,-0.13631 -0.28903,-0.28903 z M 28.961857,119.60182 c 0.328894,-0.13271 0.867083,-0.13271 1.195976,0 0.328894,0.13271 0.0598,0.24129 -0.597988,0.24129 -0.657787,0 -0.926881,-0.10858 -0.597988,-0.24129 z m 2.391953,0 c 0.328893,-0.13271 0.867083,-0.13271 1.195976,0 0.328893,0.13271 0.0598,0.24129 -0.597988,0.24129 -0.657787,0 -0.926882,-0.10858 -0.597988,-0.24129 z"
         id="path9" /><path
         style="fill:#179065"
         d="m 97.19878,170.38885 c 8.37e-4,-3.4205 0.07704,-4.75702 0.16933,-2.97005 0.09229,1.78697 0.09161,4.58555 -0.0015,6.21908 -0.09313,1.63352 -0.168646,0.17146 -0.167809,-3.24903 z m -45.393776,-3.10954 c 0.476231,-0.52623 0.973513,-0.95678 1.10507,-0.95678 0.131557,0 -0.150449,0.43055 -0.62668,0.95678 -0.476231,0.52623 -0.973513,0.95678 -1.10507,0.95678 -0.131557,0 0.150449,-0.43055 0.62668,-0.95678 z m 10.763489,-0.35879 c -1.64e-4,-0.19734 1.130034,-0.29729 2.51155,-0.22211 4.523089,0.24613 4.96976,0.43627 1.196273,0.50922 -2.039139,0.0394 -3.70766,-0.0898 -3.707823,-0.28711 z m 21.886663,0.009 c 1.118237,-0.10072 2.948081,-0.10072 4.066319,0 1.118238,0.10072 0.203316,0.18312 -2.03316,0.18312 -2.236475,0 -3.151397,-0.0824 -2.033159,-0.18312 z m 26.191884,-2.04167 c 0.47623,-0.52623 0.97351,-0.95679 1.10507,-0.95679 0.13155,0 -0.15045,0.43056 -0.62668,0.95679 -0.47624,0.52623 -0.97352,0.95678 -1.10507,0.95678 -0.13156,0 0.15044,-0.43055 0.62668,-0.95678 z m 8.31081,-0.83719 c -0.59506,-0.75875 -0.57814,-0.77567 0.18062,-0.18062 0.46045,0.36111 0.83718,0.73785 0.83718,0.83719 0,0.39373 -0.39285,0.14031 -1.0178,-0.65657 z M 152.02781,146.05 c 0,-0.0993 0.37674,-0.47608 0.83719,-0.83719 0.75875,-0.59505 0.77567,-0.57813 0.18062,0.18062 -0.62496,0.79688 -1.01781,1.0503 -1.01781,0.65657 z m 39.70642,-0.47839 c 0,-0.0993 0.37673,-0.47608 0.83718,-0.83719 0.75875,-0.59505 0.77567,-0.57813 0.18062,0.18062 -0.62496,0.79688 -1.0178,1.0503 -1.0178,0.65657 z m -98.659478,-2.07965 c 0.859835,-0.10647 2.15149,-0.10428 2.870343,0.005 0.718854,0.10916 0.01535,0.19627 -1.563337,0.19359 -1.578688,-0.003 -2.166841,-0.092 -1.307006,-0.19847 z M 15.20813,134.56814 c 0,-0.0993 0.376733,-0.47608 0.837184,-0.83719 0.758754,-0.59505 0.775674,-0.57813 0.180619,0.18062 -0.624955,0.79688 -1.017803,1.0503 -1.017803,0.65657 z"
         id="path8" /><path
         style="fill:#008656"
         d="m 91.750611,160.10345 v -16.26528 h 2.631147 2.631148 v 1.73004 1.73003 l 1.885019,-1.703 c 2.137665,-1.93125 4.270465,-2.49711 7.555325,-2.00451 8.12317,1.21814 10.6423,15.62894 3.78461,21.65007 -3.34734,2.93901 -7.56938,3.06316 -11.159875,0.32817 -0.837567,-0.638 -1.644851,-1.16 -1.793964,-1.16 -0.149113,0 -0.271115,2.69094 -0.271115,5.97988 v 5.97988 h -2.631148 -2.631147 z m 14.385409,1.64209 c 2.32444,-2.22696 3.05955,-7.17995 1.52033,-10.24358 -1.15319,-2.29529 -3.77117,-3.98839 -5.60304,-3.62361 -6.041052,1.20295 -6.608042,12.97255 -0.73489,15.25494 1.2811,0.49785 3.52374,-0.14816 4.8176,-1.38775 z m -79.446518,12.28492 c -8.330094,-2.69628 -14.037317,-8.08518 -16.315718,-15.40569 -1.1505499,-3.69673 -1.2201852,-10.6741 -0.143125,-14.34097 3.17317,-10.80313 13.030549,-17.69981 23.270078,-16.28083 3.882343,0.53801 8.551756,2.64211 10.59407,4.77382 l 1.370113,1.43009 -2.916775,-1.17813 c -3.901506,-1.57589 -7.830156,-2.26041 -11.313933,-1.9713 -3.180315,0.26391 -7.489267,1.75276 -9.328615,3.22326 l -1.195976,0.95614 3.162167,-0.30325 c 5.095374,-0.48864 8.490979,1.1944 10.549133,5.22872 0.827691,1.6224 0.956175,2.56328 0.775721,5.68051 -0.118952,2.05481 -0.177484,3.73603 -0.130072,3.73603 0.04741,0 2.628366,-3.01386 5.735452,-6.69747 3.107087,-3.6836 5.797065,-6.69746 5.97773,-6.69746 0.180665,0 0.931104,1.10721 1.667642,2.46047 1.705542,3.13365 1.830697,6.48151 0.349016,9.3361 -0.813446,1.56717 -1.660961,2.30351 -3.991962,3.46833 -3.09679,1.54748 -5.58116,1.851 -8.439927,1.03112 -0.858462,-0.2462 -1.451601,-0.27089 -1.318085,-0.0549 0.133516,0.21604 3.393939,3.04617 7.245383,6.28919 l 7.002627,5.89639 1.145492,-1.41643 c 3.984275,-4.92663 5.436063,-13.06429 3.75042,-21.02209 -1.816314,-8.57469 -7.720519,-14.98169 -16.171424,-17.54857 -4.468782,-1.35735 -10.524335,-1.06653 -15.634946,0.75088 -1.973361,0.70176 -3.948355,1.3967 -4.388875,1.5443 -0.563116,0.18869 -1.04147,-0.19674 -1.610969,-1.29803 -0.768178,-1.48549 -0.76535,-1.59908 0.05474,-2.19874 1.192904,-0.87228 5.602598,-2.48321 8.496024,-3.10374 3.670314,-0.78714 11.923367,-0.23237 15.559996,1.04594 4.149944,1.45874 9.679152,5.26088 12.262595,8.43233 4.295999,5.27379 6.170439,11.01367 6.147757,18.82556 -0.02425,8.35179 -2.397027,14.19469 -7.855498,19.34393 -3.358295,3.16805 -7.617914,5.56653 -11.457018,6.45117 -3.37149,0.77688 -9.914118,0.58079 -12.903242,-0.38672 z m 15.181956,-4.54858 c 4.401384,-2.02175 4.536802,-2.50599 0.639208,-2.28576 -4.456039,0.25179 -7.14061,-0.93317 -9.094634,-4.01435 -1.689117,-2.66346 -2.188494,-5.39221 -1.524009,-8.32764 0.266407,-1.17689 0.413357,-2.21081 0.326555,-2.29761 -0.149954,-0.14995 -10.716401,12.43901 -11.415795,13.60089 -0.396794,0.65918 2.93625,2.71408 6.521137,4.02044 3.902109,1.42196 10.638357,1.09969 14.547538,-0.69597 z m -24.257991,-7.19047 c -1.313944,-3.45593 -0.01677,-8.54669 2.776732,-10.89727 2.186706,-1.83999 4.511319,-2.44747 8.322163,-2.17481 2.622311,0.18763 3.18785,0.11562 2.683063,-0.3416 -4.722984,-4.27793 -12.998439,-10.82126 -13.461228,-10.64367 -0.933412,0.35819 -3.095525,4.66082 -3.9063,7.7736 -1.427112,5.47905 -0.461069,11.96967 2.406121,16.16615 1.392424,2.03799 1.929956,2.09159 1.179449,0.1176 z m 107.385283,5.0464 c -3.67278,-0.96436 -6.82711,-3.76415 -7.89861,-7.01081 -0.35852,-1.08634 -0.50697,-3.40065 -0.38363,-5.98057 0.25424,-5.3175 1.75123,-8.1242 5.30995,-9.95558 7.8276,-4.02823 15.78399,0.48616 16.49628,9.35986 l 0.24113,3.00401 h -8.26073 -8.26072 l 0.28727,1.77024 c 0.17233,1.062 0.87095,2.35394 1.74616,3.22914 1.20037,1.20037 1.84607,1.45889 3.64386,1.45889 1.79036,0 2.38936,-0.2376 3.31659,-1.31557 1.00245,-1.16542 1.46184,-1.31558 4.0249,-1.31558 3.38735,0 3.56114,0.36968 1.50688,3.2055 -2.13152,2.94248 -7.69402,4.62053 -11.76933,3.55047 z m 7.70246,-15.4866 c -0.40847,-2.04478 -2.09458,-3.67387 -4.14024,-4.00023 -3.02537,-0.48266 -5.19041,1.05385 -5.97364,4.23943 l -0.32345,1.31557 h 5.37396 5.37395 z m 21.46139,15.39761 c -0.79923,-0.23242 -2.09088,-1.08825 -2.87034,-1.90183 -1.26677,-1.32222 -1.4172,-1.80189 -1.4172,-4.51882 0,-2.57677 0.1821,-3.23746 1.19597,-4.33909 1.62914,-1.77015 4.53765,-2.9977 7.93126,-3.3474 4.8916,-0.50408 6.52537,-1.57903 5.451,-3.58651 -0.66903,-1.25009 -2.00883,-1.88987 -3.95768,-1.88987 -1.76741,0 -4.16228,1.53387 -4.16228,2.66587 0,0.51568 -0.70272,0.68286 -2.87034,0.68286 -3.18858,0 -3.37596,-0.2558 -2.21781,-3.02764 0.83195,-1.99115 3.18132,-3.9722 5.4618,-4.60555 4.14547,-1.15131 9.48134,-0.0748 11.84463,2.38971 l 1.41585,1.47648 0.23919,9.17896 c 0.13156,5.04842 0.41336,9.44805 0.62622,9.77694 0.29575,0.45695 -0.35304,0.59799 -2.75074,0.59799 -3.02803,0 -3.13777,-0.0418 -3.13777,-1.19598 0,-1.48807 -0.2298,-1.49021 -1.97896,-0.0184 -2.30654,1.94082 -5.66449,2.57491 -8.8028,1.66226 z m 8.96215,-5.68003 c 1.2928,-1.4262 2.14753,-4.22629 1.66996,-5.47081 -0.21207,-0.55264 -0.84236,-0.50757 -3.76009,0.2689 -4.95967,1.31986 -6.71508,3.44976 -4.93628,5.98936 1.37565,1.96402 4.88923,1.57025 7.02641,-0.78745 z m -100.077569,4.93339 c 0,-0.16431 2.175199,-3.71436 4.833775,-7.88901 l 4.833775,-7.59027 -0.925933,-1.5592 c -0.509263,-0.85756 -2.676978,-4.41161 -4.817143,-7.89788 l -3.891209,-6.33868 3.690894,0.002 3.690893,0.002 2.786346,4.536 c 1.53249,2.49479 2.933322,4.62683 3.11296,4.73785 0.179638,0.11102 1.636588,-1.87747 3.237666,-4.41888 l 2.911051,-4.62074 3.424201,-0.14056 c 1.883311,-0.0773 3.424201,-0.0276 3.424201,0.11043 0,0.13805 -1.95942,3.41618 -4.354268,7.28474 -2.394847,3.86857 -4.460967,7.31181 -4.591377,7.65165 -0.13041,0.33985 1.936649,4.08157 4.593463,8.31495 2.656815,4.23338 4.830573,7.79073 4.830573,7.90521 0,0.11449 -1.670321,0.20816 -3.711823,0.20816 h -3.711823 l -2.866047,-4.76729 c -1.576325,-2.62201 -3.069348,-4.707 -3.317828,-4.63331 -0.248479,0.0737 -1.755081,2.21897 -3.348004,4.76729 l -2.896222,4.63331 h -3.469061 c -1.907983,0 -3.46906,-0.13444 -3.46906,-0.29874 z m 78.456039,-15.48815 v -15.78689 h 3.10954 3.10954 v 15.78689 15.78689 h -3.10954 -3.10954 z m 33.00895,4.06632 v -11.72057 h 2.87034 2.87034 v 11.72057 11.72057 h -2.87034 -2.87034 z m 10.0462,0 v -11.72057 h 2.87034 2.87034 v 2.01065 2.01065 l 1.79397,-1.74297 c 1.73248,-1.68324 3.7472,-2.75672 5.17384,-2.75672 0.52006,0 0.68644,0.69573 0.68644,2.87035 0,2.83695 -0.0159,2.87034 -1.36378,2.87034 -2.16917,0 -4.24252,0.92341 -5.18252,2.30815 -0.72413,1.06673 -0.89581,2.49428 -1.03128,8.57523 l -0.16254,7.29546 h -2.8274 -2.82741 z m -10.0462,-17.46125 v -2.87035 h 2.87034 2.87034 v 2.87035 2.87034 h -2.87034 -2.87034 z m 20.14789,-3.25945 c -0.055,-2.04513 -0.0418,-2.06214 1.48218,-1.91356 1.42998,0.13941 1.54203,0.28049 1.5998,2.01423 0.0521,1.56338 -0.0309,1.73713 -0.51403,1.07638 -0.75619,-1.03414 -2.01763,-1.00707 -2.29367,0.0492 -0.12033,0.46045 -0.24376,-0.0914 -0.27428,-1.22629 z m 2.69765,-0.92647 c 0.12346,-0.37489 -0.26413,-0.59799 -1.03891,-0.59799 -0.80394,0 -1.23584,0.26241 -1.23584,0.75086 0,0.89967 1.97176,0.76716 2.27475,-0.15287 z"
         id="path7" /></g></g></svg>
